<?xml version="1.0" standalone="no"?>
<!DOCTYPE svg PUBLIC "-//W3C//DTD SVG 20010904//EN"
 "http://www.w3.org/TR/2001/REC-SVG-20010904/DTD/svg10.dtd">
<svg version="1.0" xmlns="http://www.w3.org/2000/svg"
 width="2560.000000pt" height="1600.000000pt" viewBox="0 0 2560.000000 1600.000000"
 preserveAspectRatio="xMidYMid meet">

<g transform="translate(0.000000,1600.000000) scale(0.100000,-0.100000)"
fill="#000000" stroke="none">
<path d="M13385 13203 c-42 -4 -246 -31 -475 -63 -238 -34 -258 -35 -280 -15
-11 10 -20 27 -20 37 0 26 -28 34 -48 14 -14 -13 -14 -21 -5 -47 9 -23 9 -31
0 -34 -48 -15 -406 -45 -527 -44 -160 1 -200 -7 -413 -80 -224 -77 -352 -141
-588 -296 -171 -112 -253 -178 -452 -363 -170 -158 -222 -213 -383 -402 -177
-207 -245 -298 -391 -520 -38 -58 -101 -152 -140 -210 -152 -227 -254 -412
-455 -825 -337 -693 -448 -1094 -508 -1830 l-10 -119 -44 -46 c-85 -87 -111
-184 -87 -326 14 -84 54 -158 116 -216 37 -35 45 -49 50 -92 24 -184 94 -492
151 -664 51 -156 178 -425 255 -539 203 -303 563 -701 789 -873 91 -69 274
-186 384 -245 157 -85 428 -182 666 -239 464 -111 910 -156 1545 -156 290 0
354 3 525 25 353 44 642 109 957 216 675 229 1207 512 1683 894 294 236 407
356 628 668 157 222 199 290 298 488 148 295 250 594 313 919 25 127 29 151
90 600 l48 356 36 47 c65 86 71 162 16 216 l-29 29 0 229 c0 243 -12 355 -64
594 -148 686 -340 1146 -683 1637 -131 188 -142 202 -304 397 -115 138 -159
181 -270 262 -194 142 -357 211 -999 421 -375 123 -593 170 -880 192 -126 9
-404 11 -495 3z m556 -163 c239 -24 459 -77 824 -197 758 -250 903 -330 1162
-640 51 -61 93 -114 93 -116 0 -2 -33 -3 -72 0 l-73 3 75 -30 c41 -17 85 -32
98 -32 24 -1 52 -32 52 -58 0 -9 15 -30 33 -46 47 -41 191 -256 280 -414 197
-354 326 -706 431 -1170 63 -277 76 -380 79 -598 1 -110 0 -203 -3 -205 -3 -3
-80 11 -170 32 -147 34 -290 56 -695 106 -279 35 -612 47 -1110 42 -264 -3
-529 -10 -590 -16 -60 -6 -168 -16 -240 -21 -208 -18 -426 -39 -630 -62 -104
-12 -208 -22 -230 -22 l-40 -1 -12 175 c-16 227 -46 511 -83 780 -24 176 -70
634 -70 701 0 15 15 17 113 18 61 1 130 5 152 9 l40 8 -72 13 c-44 9 -104 12
-155 9 l-84 -6 -22 182 c-12 99 -36 267 -52 371 -17 105 -39 262 -50 349 -26
199 -47 295 -116 516 -30 96 -57 189 -60 207 -6 30 -4 32 27 37 54 9 230 33
399 55 85 11 166 22 180 24 57 9 495 6 591 -3z m-2131 -106 c-30 -20 -72 -52
-94 -71 l-39 -36 114 6 c63 3 170 18 239 32 148 30 621 88 631 78 4 -5 14 -39
24 -78 9 -38 32 -121 51 -184 49 -161 80 -313 98 -476 9 -77 18 -155 22 -174
l5 -34 -79 7 c-87 8 -156 0 -146 -16 4 -7 45 -8 114 -3 l107 6 22 -163 c38
-281 60 -493 81 -793 11 -159 27 -342 35 -405 8 -63 21 -169 29 -235 34 -275
75 -809 63 -821 -4 -4 -69 -15 -144 -26 -76 -10 -235 -32 -355 -49 l-216 -31
-154 83 c-84 45 -189 101 -233 124 -218 113 -544 332 -817 550 -144 115 -302
229 -493 357 -97 65 -221 162 -315 244 -85 74 -194 163 -242 196 -48 34 -85
65 -82 70 3 4 51 8 106 8 56 0 99 3 96 6 -4 3 2 14 13 25 25 25 24 71 -1 94
-17 16 -32 17 -137 10 -175 -10 -293 -13 -293 -7 0 2 26 45 57 95 57 90 57 90
141 129 46 21 82 41 79 44 -3 3 -33 -7 -66 -22 -34 -15 -63 -25 -66 -23 -6 6
120 171 275 360 154 188 415 458 575 596 188 162 419 318 602 405 85 41 407
157 438 158 5 0 -15 -16 -45 -36z m-2050 -1849 c0 -32 62 -202 101 -275 54
-102 107 -138 130 -87 8 18 2 48 -30 146 -23 69 -39 127 -36 129 16 16 155
-87 360 -268 149 -131 212 -179 460 -350 72 -50 189 -137 260 -193 225 -179
464 -356 567 -422 172 -110 301 -185 418 -244 150 -76 169 -88 149 -95 -8 -3
-122 -28 -254 -55 -132 -28 -330 -74 -440 -102 -110 -27 -360 -91 -555 -141
-384 -97 -737 -185 -975 -242 -154 -37 -695 -211 -820 -263 -38 -17 -112 -49
-163 -73 -51 -24 -94 -41 -97 -38 -2 2 6 110 20 239 47 452 112 724 278 1149
63 164 338 743 436 920 82 149 171 290 182 290 5 0 9 -11 9 -25z m5965 -1510
c227 -15 473 -42 679 -76 65 -10 131 -19 145 -19 23 0 180 -35 319 -72 l44
-11 -4 -90 -3 -89 -40 -34 c-39 -33 -290 -161 -485 -249 -204 -91 -470 -174
-780 -243 -74 -17 -250 -58 -390 -91 -140 -34 -266 -61 -280 -61 -14 0 -41 -5
-60 -10 -19 -6 -87 -19 -150 -30 -216 -38 -492 -90 -663 -126 -92 -19 -123
-22 -139 -13 -50 27 -240 176 -413 324 -77 66 -152 129 -166 140 -14 11 -29
26 -33 33 -4 7 -16 79 -26 160 -11 81 -26 192 -34 247 -9 55 -16 121 -16 147
0 45 1 47 33 52 29 5 127 16 547 60 157 17 605 54 710 59 209 10 1007 5 1205
-8z m-2619 -235 c7 -52 19 -143 28 -201 24 -161 25 -158 -31 -112 -90 74 -148
111 -328 208 -204 111 -215 118 -215 126 0 7 489 78 520 75 11 -1 18 -25 26
-96z m-641 -86 c72 -42 193 -110 270 -152 165 -88 228 -131 351 -240 l91 -80
12 -164 c7 -89 19 -210 27 -266 9 -57 14 -105 12 -107 -2 -2 -71 -15 -153 -30
-83 -14 -195 -34 -250 -45 -55 -11 -208 -38 -340 -60 -132 -22 -325 -59 -430
-81 -374 -79 -714 -130 -1130 -168 -590 -55 -966 -38 -1634 75 -221 37 -279
50 -386 88 l-70 24 -5 124 c-8 193 -13 179 88 231 245 126 755 302 1107 382
66 15 244 59 395 97 677 171 1287 322 1420 350 347 72 466 96 480 97 9 1 74
-33 145 -75z m4411 -251 c-3 -10 -15 -94 -26 -188 -68 -553 -146 -888 -289
-1238 -90 -220 -329 -621 -489 -822 l-56 -69 -12 79 c-16 102 -29 144 -57 186
-27 40 -69 50 -98 23 -25 -23 -24 -42 8 -135 14 -44 23 -82 20 -85 -4 -4 -24
9 -45 28 -21 19 -68 55 -103 78 -95 64 -187 142 -352 295 -81 75 -181 165
-221 198 -41 34 -127 108 -192 164 -317 272 -546 461 -709 584 -71 54 -143
109 -160 122 l-29 24 69 16 c39 9 99 21 135 27 36 6 121 22 190 35 69 13 193
36 275 50 83 15 186 33 230 41 43 8 169 36 280 63 110 27 220 52 245 56 25 4
86 17 135 30 50 13 142 35 205 50 143 34 465 140 585 193 50 22 169 79 265
126 96 47 181 86 188 86 8 0 11 -7 8 -17z m-3392 -480 c34 -29 103 -85 154
-125 74 -58 89 -74 75 -79 -36 -13 -338 -57 -345 -51 -9 9 -35 192 -44 307
l-7 89 53 -44 c29 -25 80 -69 114 -97z m522 -406 c66 -51 154 -119 198 -151
77 -57 214 -169 351 -286 39 -33 113 -95 165 -137 52 -42 133 -111 180 -153
47 -42 126 -109 175 -150 50 -41 137 -118 194 -172 132 -126 276 -247 368
-309 39 -27 75 -54 79 -60 9 -15 -14 -28 -51 -30 -34 -1 -27 -5 30 -14 35 -6
37 -8 20 -17 -45 -24 -59 -74 -29 -99 9 -7 45 -16 80 -20 36 -4 68 -9 71 -13
3 -3 -2 -15 -12 -26 -16 -18 -20 -19 -27 -5 -12 20 -70 20 -114 -1 -73 -35
-77 -90 -8 -96 l37 -3 -140 -113 c-283 -230 -690 -478 -1040 -633 -543 -241
-1020 -380 -1542 -449 -129 -17 -209 -20 -505 -20 -394 0 -612 10 -861 40
-431 52 -762 129 -1050 245 -171 68 -365 172 -365 195 0 4 28 16 63 26 41 12
55 19 40 22 -13 2 -23 12 -25 25 -6 42 -68 29 -68 -14 0 -16 -8 -19 -43 -19
-45 0 -82 19 -82 42 0 7 -11 15 -25 16 -94 13 -509 441 -759 782 -105 144
-235 396 -295 573 -39 115 -104 376 -130 522 -9 50 -19 102 -22 116 -4 24 1
29 50 53 29 14 65 41 79 59 l25 33 -81 3 c-44 1 -84 4 -89 7 -4 3 -8 18 -8 34
l0 28 98 -33 c106 -36 205 -58 482 -106 593 -103 850 -116 1416 -74 465 35
765 78 1294 185 107 22 314 60 460 84 146 25 330 57 410 71 225 41 245 44 251
37 21 -22 80 -348 99 -542 24 -246 34 -333 56 -480 9 -61 20 -242 26 -435 13
-425 13 -369 4 -685 -5 -189 -4 -291 3 -325 6 -27 16 -77 21 -110 17 -98 49
-183 77 -205 77 -61 143 28 99 134 -7 18 -17 57 -21 87 -4 30 -13 83 -21 119
-14 69 -17 186 -6 258 l7 44 50 4 c28 2 79 14 114 27 l64 24 -44 7 c-62 11
-116 8 -156 -9 l-34 -14 3 162 c4 250 -19 752 -42 902 -11 72 -33 256 -49 410
-31 289 -41 354 -86 539 -14 60 -24 110 -22 113 3 2 76 15 163 28 88 14 182
29 209 33 111 20 112 20 241 -81z m-5319 -19 c-2 -13 -4 -5 -4 17 -1 22 1 32
4 23 2 -10 2 -28 0 -40z"/>
<path d="M14369 12158 c-10 -18 -8 -24 7 -35 22 -16 50 -16 151 -2 115 16 117
20 18 40 -125 25 -161 24 -176 -3z"/>
<path d="M15082 12141 c-18 -11 12 -19 104 -27 48 -5 78 -3 94 6 18 10 20 14
9 21 -18 11 -190 11 -207 0z"/>
<path d="M15393 12128 c4 -14 15 -14 170 -9 122 4 72 18 -71 20 -79 1 -103 -2
-99 -11z"/>
<path d="M13840 12090 l-65 -7 65 0 c36 -1 92 3 125 7 l60 7 -60 0 c-33 0 -89
-3 -125 -7z"/>
<path d="M13250 12040 c0 -6 27 -10 60 -10 33 0 60 4 60 10 0 6 -27 10 -60 10
-33 0 -60 -4 -60 -10z"/>
<path d="M16109 11790 c-24 -23 -30 -37 -27 -62 4 -47 31 -48 62 -1 30 43 35
93 10 93 -8 0 -29 -13 -45 -30z"/>
<path d="M15960 11672 c-49 -4 -89 -21 -101 -45 -11 -19 -9 -20 38 -15 41 4
163 50 163 62 0 4 -37 3 -100 -2z"/>
<path d="M15551 11553 c-11 -10 -22 -29 -23 -43 -3 -20 2 -26 24 -28 19 -2 36
6 62 33 20 20 36 40 36 45 0 17 -77 11 -99 -7z"/>
<path d="M14912 11449 c-46 -9 -112 -44 -112 -60 0 -8 21 -15 60 -20 43 -6
223 16 275 34 33 11 89 25 125 32 l65 12 -115 -1 c-63 -1 -146 2 -185 6 -38 3
-89 2 -113 -3z"/>
<path d="M14484 11393 c-12 -2 -30 -13 -39 -23 -16 -18 -16 -20 -1 -26 9 -3
46 4 83 17 62 22 65 24 37 30 -33 8 -50 8 -80 2z"/>
<path d="M14075 11344 l-50 -14 50 5 c27 3 54 10 59 15 12 12 5 12 -59 -6z"/>
<path d="M13637 11309 c-9 -6 -15 -14 -12 -20 10 -15 67 -10 110 10 l40 19
-60 1 c-33 0 -68 -4 -78 -10z"/>
<path d="M11960 11911 c0 -12 52 -21 121 -21 57 0 77 11 43 24 -24 9 -164 7
-164 -3z"/>
<path d="M11595 11864 c-33 -7 -72 -13 -87 -14 -15 0 -29 -4 -33 -9 -6 -10 16
-8 135 13 35 7 60 14 55 17 -6 3 -37 0 -70 -7z"/>
<path d="M10965 11734 l-40 -14 57 4 c67 5 116 26 58 25 -19 0 -53 -7 -75 -15z"/>
<path d="M10391 11605 c-87 -16 -133 -33 -125 -47 4 -6 26 -8 53 -5 73 9 231
49 231 58 0 13 -72 10 -159 -6z"/>
<path d="M12501 11299 c-24 -4 -47 -11 -50 -15 -9 -10 191 4 201 14 11 11 -99
12 -151 1z"/>
<path d="M11872 11260 c-155 -52 -37 -54 188 -2 l35 8 -40 7 c-65 11 -126 7
-183 -13z"/>
<path d="M11230 11198 c-50 -11 -70 -24 -70 -44 0 -27 46 -25 188 8 l147 33
-55 7 c-78 9 -158 7 -210 -4z"/>
<path d="M10572 11180 c-38 -9 -102 -41 -102 -51 0 -18 54 -16 145 3 55 11
120 24 145 27 l45 6 -72 13 c-80 13 -112 14 -161 2z"/>
<path d="M16504 9381 c3 -5 18 -11 33 -14 88 -18 88 -18 43 2 -48 21 -85 27
-76 12z"/>
<path d="M16133 9268 c26 -7 53 -7 80 0 39 9 37 10 -38 10 -73 0 -76 -1 -42
-10z"/>
<path d="M15686 9221 c-3 -5 8 -11 25 -15 44 -8 55 -8 44 3 -15 13 -63 22 -69
12z"/>
<path d="M15360 9200 c0 -5 19 -10 43 -9 32 0 37 2 22 9 -28 12 -65 12 -65 0z"/>
<path d="M15005 9100 c-4 -6 11 -10 39 -10 25 0 48 5 51 10 4 6 -11 10 -39 10
-25 0 -48 -4 -51 -10z"/>
<path d="M14253 8923 c9 -2 25 -2 35 0 9 3 1 5 -18 5 -19 0 -27 -2 -17 -5z"/>
<path d="M13810 8845 c0 -8 9 -15 20 -15 13 0 18 5 14 15 -4 8 -12 15 -20 15
-8 0 -14 -7 -14 -15z"/>
<path d="M13430 8811 c0 -16 17 -21 50 -15 22 5 28 9 18 15 -18 12 -68 11 -68
0z"/>
<path d="M13060 8774 c-11 -12 -11 -18 2 -30 14 -14 20 -14 64 6 43 19 46 23
29 30 -33 14 -82 11 -95 -6z"/>
<path d="M12625 8660 c-8 -13 55 -13 75 0 11 7 4 10 -27 10 -23 0 -45 -4 -48
-10z"/>
<path d="M12320 8590 c0 -5 18 -10 40 -10 22 0 40 5 40 10 0 6 -18 10 -40 10
-22 0 -40 -4 -40 -10z"/>
<path d="M11916 8534 c-20 -19 -20 -28 -1 -44 17 -14 64 0 98 29 18 15 18 16
0 22 -32 13 -81 9 -97 -7z"/>
<path d="M11483 8473 c-57 -7 -35 -23 31 -23 74 0 105 8 84 21 -13 9 -55 9
-115 2z"/>
<path d="M11000 8376 l-55 -13 56 -7 c56 -8 132 5 144 24 8 14 -76 11 -145 -4z"/>
<path d="M10500 8300 c0 -26 122 -31 156 -5 17 13 11 14 -68 15 -51 0 -88 -4
-88 -10z"/>
<path d="M10022 8280 c-35 -8 -55 -21 -31 -19 8 0 48 6 89 14 71 12 72 13 25
13 -27 0 -65 -4 -83 -8z"/>
<path d="M8920 8215 c-10 -12 -10 -18 0 -30 16 -19 35 -19 66 1 l24 17 -26 13
c-34 18 -49 18 -64 -1z"/>
<path d="M9713 8223 c-7 -2 -13 -11 -13 -19 0 -18 81 -19 113 -2 l22 12 -25 7
c-29 8 -80 10 -97 2z"/>
<path d="M9272 8208 c-18 -18 -15 -36 7 -48 15 -7 32 -5 68 9 l47 18 -31 17
c-38 19 -74 21 -91 4z"/>
<path d="M14940 6701 c-103 -22 -67 -41 75 -40 61 1 121 4 135 8 25 7 25 7 4
19 -27 14 -168 23 -214 13z"/>
<path d="M15347 6677 c-62 -15 -51 -27 25 -27 51 0 59 2 56 17 -4 22 -21 24
-81 10z"/>
<path d="M14515 6658 c-19 -11 -19 -11 0 -19 11 -4 46 -8 78 -8 51 -1 58 1 55
17 -2 13 -15 18 -58 19 -30 2 -64 -2 -75 -9z"/>
<path d="M14053 6636 c-39 -6 -75 -15 -80 -20 -9 -10 173 -1 202 10 18 7 18 8
-1 15 -24 9 -32 9 -121 -5z"/>
<path d="M13630 6590 c0 -5 20 -10 45 -10 25 0 45 5 45 10 0 6 -20 10 -45 10
-25 0 -45 -4 -45 -10z"/>
<path d="M13018 6534 c-31 -16 -36 -35 -14 -53 16 -13 71 -5 106 17 13 8 38
18 55 22 28 6 27 7 -23 18 -68 15 -91 15 -124 -4z"/>
<path d="M12531 6460 c-24 -11 -42 -23 -39 -25 7 -8 174 7 189 16 47 29 -90
37 -150 9z"/>
<path d="M12257 6440 c-32 -10 -57 -28 -57 -41 0 -5 21 -9 48 -9 111 0 158 26
91 49 -36 12 -43 13 -82 1z"/>
<path d="M11852 6330 c-31 -7 -67 -30 -47 -30 32 0 135 24 135 31 0 11 -41 10
-88 -1z"/>
<path d="M15226 6313 c-30 -30 -29 -47 3 -51 39 -6 71 7 83 34 10 20 9 27 -3
35 -25 16 -56 10 -83 -18z"/>
<path d="M11400 6245 l-23 -25 84 7 c46 3 86 7 88 9 2 2 1 10 -2 19 -5 11 -21
15 -65 15 -49 0 -62 -4 -82 -25z"/>
<path d="M14665 6204 c-28 -7 -68 -20 -90 -29 l-40 -16 55 6 c30 3 82 13 115
23 49 15 56 19 35 23 -14 3 -48 0 -75 -7z"/>
<path d="M14119 6101 c-20 -18 -22 -22 -9 -31 32 -21 68 -10 98 31 19 25 -58
25 -89 0z"/>
<path d="M10794 6079 c-58 -7 -128 -28 -120 -36 7 -7 206 20 206 28 0 12 -34
15 -86 8z"/>
<path d="M10363 5981 c-23 -11 -46 -28 -52 -39 -10 -19 -10 -19 26 -1 21 11
52 19 71 19 39 0 75 17 67 31 -10 15 -67 10 -112 -10z"/>
<path d="M13171 5977 c-19 -7 -36 -18 -39 -24 -7 -22 69 -15 123 11 l50 24
-50 1 c-27 0 -65 -5 -84 -12z"/>
<path d="M12650 5897 c-24 -13 -45 -28 -48 -35 -7 -21 69 -14 148 15 70 26 73
28 45 34 -59 13 -102 9 -145 -14z"/>
<path d="M12115 5814 c-52 -19 -84 -49 -68 -65 16 -16 107 7 143 37 15 13 35
24 44 24 9 0 16 5 16 10 0 15 -89 11 -135 -6z"/>
<path d="M11660 5787 c-14 -7 -25 -21 -25 -32 0 -17 6 -20 38 -18 21 2 52 10
68 20 27 16 28 19 12 30 -22 16 -61 16 -93 0z"/>
<path d="M11210 5740 c-59 -20 -98 -56 -81 -73 13 -13 91 4 162 34 l50 22 -28
18 c-34 23 -35 23 -103 -1z"/>
<path d="M10470 5677 c-24 -8 -36 -19 -38 -35 -5 -34 18 -36 113 -6 l88 27
-49 13 c-60 16 -70 16 -114 1z"/>
<path d="M9157 11853 c-22 -22 -6 -53 151 -292 56 -85 102 -157 102 -161 0 -5
-16 -32 -36 -61 -20 -30 -64 -112 -97 -184 -72 -155 -80 -209 -34 -234 49 -28
72 -4 137 146 32 73 81 171 110 218 69 115 68 127 -36 266 -97 130 -230 286
-254 299 -22 12 -34 13 -43 3z"/>
<path d="M8267 11682 c-22 -24 -23 -177 -1 -357 8 -71 18 -200 22 -286 6 -122
11 -162 25 -182 34 -53 107 -44 132 16 10 25 11 64 4 187 -8 151 -48 467 -70
563 -16 70 -74 101 -112 59z"/>
<path d="M8645 11646 c-46 -20 -121 -110 -146 -174 -33 -82 -33 -218 -1 -284
28 -57 94 -134 133 -153 36 -19 112 -19 147 -1 15 8 37 32 50 54 14 25 32 42
48 46 24 6 26 11 21 41 -3 18 1 55 9 81 20 69 18 189 -5 241 -21 46 -85 114
-128 137 -44 22 -95 27 -128 12z m99 -128 c54 -47 76 -88 76 -146 0 -54 -10
-102 -22 -102 -5 0 -28 16 -51 35 -44 38 -79 43 -85 11 -3 -12 16 -38 53 -76
50 -50 56 -60 46 -78 -16 -30 -40 -52 -57 -52 -25 0 -93 71 -120 126 -23 48
-26 63 -21 118 7 69 36 158 63 187 27 30 64 23 118 -23z"/>
<path d="M9116 11548 c-11 -16 -16 -48 -17 -108 -1 -91 -11 -151 -21 -135 -3
6 -16 46 -28 89 -32 113 -59 166 -86 166 -40 0 -43 -41 -13 -174 29 -127 57
-211 77 -229 9 -9 30 -19 45 -22 24 -6 33 -2 66 33 94 98 123 335 48 387 -30
21 -53 19 -71 -7z"/>
<path d="M17899 6748 c-13 -31 14 -103 79 -208 53 -87 333 -378 448 -466 53
-41 71 -60 67 -73 -3 -10 -43 -65 -89 -122 -47 -57 -102 -138 -123 -179 -78
-155 -155 -297 -196 -365 -60 -98 -81 -165 -63 -201 19 -39 64 -56 104 -39 24
10 38 28 57 70 15 31 35 68 46 84 11 15 67 128 126 251 75 159 121 243 158
290 82 101 95 122 118 193 20 62 21 68 5 92 -9 13 -31 32 -49 41 -73 37 -171
122 -332 286 -141 143 -180 189 -226 268 -50 86 -58 95 -87 98 -25 3 -34 -2
-43 -20z"/>
<path d="M17586 6460 c-28 -34 -42 -77 -52 -164 -6 -53 -10 -60 -41 -78 -45
-27 -47 -71 -4 -96 28 -15 30 -22 36 -92 31 -386 47 -464 97 -491 63 -34 179
7 212 75 20 43 20 48 -5 80 -26 33 -46 32 -89 -4 -63 -54 -61 -57 -86 165 -9
83 -19 178 -23 213 -5 40 -3 68 3 77 6 7 69 22 145 35 74 11 142 25 153 31 21
11 25 58 6 77 -16 16 -76 15 -173 -3 -44 -8 -93 -17 -109 -20 l-29 -5 6 61 c3
40 13 72 26 90 26 35 27 55 2 69 -31 16 -48 12 -75 -20z"/>
<path d="M16312 6468 c-18 -18 -15 -57 12 -134 13 -38 26 -105 30 -149 21
-253 42 -446 82 -760 17 -133 56 -297 80 -332 35 -54 134 -16 134 51 0 17 -7
58 -16 91 -31 117 -53 229 -64 319 -6 50 -19 138 -30 196 -10 58 -26 170 -35
250 -26 238 -42 306 -86 388 -48 85 -79 108 -107 80z"/>
<path d="M16770 6341 c-13 -24 -13 -67 0 -145 29 -185 51 -368 59 -496 13
-190 37 -260 104 -300 54 -33 100 -27 152 21 57 53 90 124 104 222 21 153 14
195 -48 276 -48 64 -132 79 -196 36 -20 -15 -39 -25 -40 -23 -2 2 -23 99 -47
216 -36 177 -46 212 -60 212 -10 0 -22 -9 -28 -19z m288 -531 c21 -31 23 -42
17 -100 -13 -130 -44 -210 -80 -210 -32 0 -59 96 -73 258 l-8 93 60 -3 c56 -3
62 -5 84 -38z"/>
<path d="M17267 6162 c-22 -25 -21 -49 2 -62 25 -13 27 -13 45 6 21 20 21 60
0 68 -24 9 -29 8 -47 -12z"/>
<path d="M17289 6003 c-11 -12 -15 -65 -17 -213 -4 -224 1 -245 64 -275 31
-14 43 -15 75 -6 65 20 111 95 77 129 -16 16 -49 15 -72 -3 -42 -32 -45 -23
-45 128 0 144 -12 235 -34 249 -19 12 -33 9 -48 -9z"/>
</g>
</svg>
