<?xml version="1.0" standalone="no"?>
<!DOCTYPE svg PUBLIC "-//W3C//DTD SVG 20010904//EN"
 "http://www.w3.org/TR/2001/REC-SVG-20010904/DTD/svg10.dtd">
<svg version="1.0" xmlns="http://www.w3.org/2000/svg"
 width="5728.000000pt" height="3580.000000pt" viewBox="0 0 5728.000000 3580.000000"
 preserveAspectRatio="xMidYMid meet">

<g transform="translate(0.000000,3580.000000) scale(0.100000,-0.100000)"
fill="#000000" stroke="none">
<path d="M33165 24246 c-53 -23 -86 -80 -115 -193 -25 -97 14 -199 137 -354
161 -204 225 -311 268 -449 36 -112 208 -538 251 -619 50 -95 234 -364 360
-526 47 -60 125 -166 173 -235 48 -69 126 -178 172 -242 46 -65 98 -143 114
-175 63 -120 191 -350 205 -368 4 -5 40 -72 79 -148 39 -76 83 -157 98 -180
15 -23 41 -64 58 -92 18 -27 103 -158 191 -289 164 -248 194 -297 270 -456 26
-52 66 -129 90 -170 23 -41 52 -100 64 -130 12 -30 28 -68 35 -85 31 -67 75
-220 75 -259 -1 -60 -24 -155 -87 -361 -22 -71 -48 -161 -57 -200 -34 -142
-124 -419 -256 -790 -64 -180 -161 -405 -253 -591 -57 -115 -119 -243 -138
-284 -45 -102 -468 -938 -491 -972 -10 -14 -18 -29 -18 -33 0 -4 -8 -19 -18
-33 -17 -25 -48 -81 -140 -252 -111 -207 -119 -220 -229 -376 -78 -111 -178
-275 -304 -499 -40 -72 -61 -140 -57 -188 2 -35 8 -44 31 -55 39 -19 87 -17
132 4 80 38 192 176 290 359 20 39 74 122 118 185 133 189 144 207 240 380 17
30 80 143 140 250 61 107 143 265 184 350 40 85 78 163 84 174 17 30 275 548
295 591 9 22 64 136 121 254 57 118 103 215 103 217 0 2 11 27 24 56 113 248
330 892 427 1267 16 63 36 134 44 159 70 204 94 402 62 508 -25 85 -154 367
-211 464 -18 30 -69 125 -114 211 -44 86 -115 208 -157 270 -42 63 -119 177
-171 254 -115 171 -231 362 -311 515 -34 63 -79 144 -100 180 -22 36 -68 118
-102 184 -35 65 -87 155 -117 200 -59 89 -164 238 -174 246 -3 3 -17 21 -30
40 -13 19 -115 157 -225 305 -352 472 -363 491 -530 914 -136 345 -138 349
-346 623 -99 129 -119 165 -119 208 0 34 30 70 59 70 33 0 71 48 71 90 0 56
-43 90 -113 90 -29 -1 -65 -7 -82 -14z"/>
<path d="M49205 24028 c-127 -46 -248 -162 -580 -553 -70 -82 -187 -213 -260
-290 -73 -77 -156 -167 -184 -200 -29 -33 -60 -64 -70 -68 -12 -6 -41 3 -92
27 -152 71 -282 106 -398 106 -84 0 -99 -3 -174 -37 -137 -62 -209 -119 -271
-215 -46 -73 -72 -97 -176 -167 -136 -91 -222 -156 -269 -205 -32 -34 -47 -43
-56 -36 -7 6 -39 52 -71 103 -32 51 -83 126 -112 167 -126 176 -265 395 -311
492 -71 151 -129 201 -212 183 -37 -8 -98 -67 -122 -116 -48 -103 -72 -301
-56 -474 5 -60 14 -191 19 -290 12 -222 19 -280 80 -680 6 -38 15 -101 20
-140 17 -132 41 -248 57 -283 9 -19 30 -42 46 -51 64 -36 62 -30 35 -117 -50
-157 -62 -207 -83 -353 -19 -132 -11 -202 36 -309 49 -111 116 -175 279 -267
68 -39 271 -110 368 -130 18 -4 36 -14 39 -23 9 -23 -72 -337 -107 -417 -17
-38 -53 -152 -91 -290 -7 -22 -26 -85 -44 -140 -17 -55 -40 -127 -49 -160 -16
-56 -60 -184 -119 -350 -14 -38 -32 -101 -41 -140 -20 -88 -56 -201 -91 -285
-15 -36 -38 -99 -50 -140 -13 -41 -34 -106 -47 -145 -14 -38 -33 -97 -43 -130
-14 -49 -64 -174 -115 -290 -4 -11 -11 -29 -13 -40 -16 -62 -49 -183 -56 -205
-5 -14 -15 -59 -22 -100 -11 -67 -31 -164 -60 -285 -40 -170 -63 -523 -48
-755 9 -145 17 -198 47 -300 62 -209 276 -589 408 -722 26 -26 89 -80 142
-120 52 -40 138 -107 191 -148 82 -64 221 -154 401 -259 84 -50 165 -78 255
-90 97 -14 148 -23 210 -41 80 -22 133 -31 285 -46 85 -8 184 -19 220 -24 84
-13 496 -2 575 15 132 29 265 67 355 102 83 32 144 67 365 208 86 55 99 61
160 84 105 39 294 150 359 212 97 91 159 228 231 509 14 58 31 116 36 129 10
23 23 187 35 436 5 91 2 143 -11 215 -30 166 -30 168 4 242 23 51 33 90 40
167 11 119 -1 365 -24 491 -30 162 -43 256 -55 375 -10 117 -22 218 -37 340
-18 140 -6 484 27 735 5 41 17 131 26 200 23 180 47 266 117 409 44 91 136
215 186 250 40 29 130 53 286 78 75 12 196 -10 280 -51 84 -41 198 -143 256
-227 50 -75 100 -182 134 -291 27 -85 27 -89 17 -235 -11 -181 -18 -203 -67
-203 -41 0 -98 -22 -123 -46 -24 -24 -23 -129 1 -166 24 -36 80 -61 148 -66
100 -7 177 31 232 115 44 67 63 148 78 341 14 172 10 207 -43 371 -42 130 -70
190 -133 286 -106 160 -238 282 -390 358 -103 51 -160 62 -325 61 -121 0 -164
-4 -260 -27 -63 -15 -143 -41 -177 -57 -188 -93 -388 -410 -452 -720 -14 -68
-49 -349 -61 -490 -5 -58 -14 -143 -20 -190 -13 -108 -13 -314 0 -416 5 -43
24 -196 41 -339 16 -143 34 -282 39 -310 5 -27 9 -63 9 -80 l1 -30 -20 30
c-10 17 -39 82 -64 145 -24 63 -69 167 -99 230 -114 242 -118 253 -207 570
-37 134 -73 223 -148 373 -95 190 -149 279 -215 353 -83 93 -322 451 -370 554
-22 50 -66 203 -77 275 -6 33 -15 83 -20 110 -30 155 -31 287 -3 571 6 63 -13
105 -62 137 -19 12 -35 28 -35 34 0 7 39 57 86 110 125 142 124 140 190 233
166 233 194 280 238 409 65 185 90 295 106 466 12 122 2 235 -31 381 l-12 50
77 195 c110 274 105 262 172 394 67 134 135 287 157 355 65 200 83 270 97 373
28 218 -7 364 -100 412 -33 17 -121 19 -165 3z m47 -318 c-4 -92 -15 -142 -64
-295 -53 -162 -74 -209 -183 -430 -51 -104 -115 -244 -141 -310 -26 -66 -53
-126 -60 -134 -11 -12 -22 -8 -71 27 -77 55 -239 150 -335 195 -42 20 -80 41
-83 48 -5 7 56 74 152 169 87 86 241 253 342 371 219 256 402 442 428 437 16
-3 18 -13 15 -78z m-3147 -906 c28 -41 57 -86 65 -99 8 -13 72 -108 141 -212
130 -193 199 -309 199 -334 0 -8 -25 -52 -56 -98 -63 -93 -200 -328 -254 -434
l-35 -67 -12 27 c-7 16 -12 39 -12 53 -1 21 -35 275 -72 520 -10 70 -24 295
-35 558 -8 193 -3 199 71 86z m1694 -71 c52 -20 156 -66 231 -104 75 -38 139
-69 143 -69 4 0 36 -13 71 -30 36 -16 80 -36 98 -43 53 -22 188 -106 240 -149
74 -62 89 -92 81 -171 -5 -57 -3 -71 17 -104 12 -20 31 -43 41 -51 39 -27 18
-238 -46 -452 -9 -30 -20 -68 -24 -85 -23 -90 -165 -318 -296 -475 -123 -147
-301 -326 -395 -396 -83 -62 -241 -146 -365 -194 -271 -105 -492 -128 -775
-79 -145 25 -333 85 -418 133 -129 73 -163 101 -195 161 -18 34 -21 57 -22
155 0 123 6 161 65 400 55 220 84 307 149 439 31 64 83 175 115 248 32 72 64
134 71 136 7 3 26 -14 43 -39 36 -50 85 -84 122 -84 61 0 130 80 115 133 -4
12 -36 81 -73 154 l-65 132 26 38 c47 68 298 315 351 345 8 5 10 -13 8 -67
l-4 -73 28 5 c65 9 113 29 177 72 262 176 296 184 486 114z m365 -2344 c-1
-19 -5 -98 -9 -176 -5 -92 -4 -167 3 -215 6 -40 16 -109 22 -153 6 -44 15 -96
20 -115 5 -19 19 -75 31 -125 25 -104 59 -193 106 -284 52 -98 275 -430 352
-523 87 -107 123 -163 203 -323 66 -132 101 -216 117 -283 40 -163 115 -401
151 -477 16 -33 54 -114 85 -180 31 -66 70 -156 87 -200 16 -44 43 -109 60
-145 45 -97 66 -152 108 -285 134 -418 178 -617 166 -739 -4 -34 -11 -125 -16
-204 -6 -79 -19 -177 -30 -220 -85 -319 -117 -402 -177 -451 -33 -27 -182
-105 -307 -161 -26 -11 -67 -33 -90 -47 -22 -15 -66 -40 -96 -56 -30 -17 -89
-54 -131 -82 -84 -57 -154 -86 -329 -135 -25 -7 -56 -16 -70 -21 -73 -24 -442
-44 -565 -29 -49 6 -151 15 -225 20 -74 5 -157 16 -185 25 -63 20 -135 33
-251 44 -105 11 -130 21 -334 140 -117 67 -336 215 -360 241 -3 3 -37 29 -77
58 -139 102 -211 198 -343 455 -147 287 -166 380 -157 761 6 250 13 310 55
486 27 110 39 173 47 234 12 88 83 322 128 418 24 51 51 122 61 158 9 36 29
99 42 140 14 41 35 104 46 140 11 36 32 97 46 135 56 159 80 234 97 310 18 78
44 164 83 275 11 30 32 100 47 155 28 103 34 126 61 210 16 52 29 97 64 230
11 44 41 143 65 220 25 77 58 199 74 270 45 198 48 203 141 185 99 -19 272
-10 400 22 293 71 547 177 710 297 30 22 60 39 65 37 6 -2 9 -18 9 -37z"/>
<path d="M47733 21773 c-56 -11 -84 -107 -43 -150 59 -65 170 -24 170 63 0 59
-60 100 -127 87z"/>
<path d="M46855 21677 c-56 -56 -56 -115 2 -169 38 -36 112 -33 152 6 27 26
31 37 31 80 -1 73 -42 116 -113 116 -31 0 -46 -7 -72 -33z"/>
<path d="M47734 21135 c-12 -8 -43 -53 -70 -102 -62 -111 -142 -194 -208 -216
-81 -28 -314 -18 -324 12 -9 26 -55 71 -72 71 -32 0 -60 -47 -60 -100 0 -84
63 -133 193 -150 300 -39 459 40 615 305 58 99 62 126 24 165 -33 33 -66 38
-98 15z"/>
<path d="M51394 24011 c-47 -29 -59 -69 -59 -206 0 -102 4 -129 23 -180 49
-126 247 -456 372 -620 168 -220 577 -829 636 -947 24 -48 44 -90 44 -93 0 -3
15 -38 34 -78 60 -126 186 -408 186 -414 0 -4 29 -81 64 -172 35 -91 69 -184
75 -206 7 -22 26 -76 43 -120 27 -71 37 -96 69 -170 5 -11 29 -85 54 -165 26
-80 50 -154 55 -165 20 -42 196 -594 220 -685 5 -19 13 -55 19 -80 6 -25 17
-74 25 -110 8 -36 25 -110 36 -165 11 -55 26 -122 32 -150 15 -67 112 -319
165 -428 24 -49 65 -121 92 -161 68 -101 341 -653 341 -689 0 -19 -71 -104
-360 -427 -52 -58 -129 -144 -170 -190 -67 -76 -199 -218 -240 -260 -113 -112
-501 -602 -665 -840 -33 -47 -102 -143 -155 -215 -89 -121 -115 -158 -179
-254 -13 -20 -27 -38 -30 -41 -10 -8 -180 -272 -251 -390 -35 -58 -88 -145
-118 -195 -54 -88 -62 -102 -114 -195 -14 -25 -35 -63 -48 -85 -12 -22 -48
-83 -79 -135 -31 -52 -59 -102 -63 -110 -3 -8 -40 -64 -82 -125 -126 -184
-140 -206 -197 -315 -71 -136 -129 -279 -129 -321 0 -44 43 -114 82 -133 39
-20 100 -20 138 -1 41 21 70 66 119 182 48 113 119 238 214 376 35 51 94 146
132 212 37 66 103 179 145 250 43 72 110 186 151 255 175 297 343 558 479 741
54 74 154 213 221 309 194 278 505 668 696 871 216 231 690 766 738 834 95
134 98 228 13 408 -132 278 -289 576 -357 675 -53 79 -88 152 -147 312 -51
141 -67 196 -84 290 -10 58 -45 213 -70 310 -12 49 -47 170 -76 265 -13 44
-29 98 -36 120 -11 42 -68 210 -112 330 -13 39 -45 131 -71 205 -25 74 -50
144 -55 155 -19 44 -100 264 -116 315 -24 77 -92 259 -128 342 -9 20 -16 39
-16 42 0 6 -36 85 -100 220 -22 48 -50 111 -61 139 -61 155 -142 311 -221 424
-37 54 -89 132 -115 173 -87 137 -405 577 -458 634 -71 77 -326 450 -369 540
-16 33 -32 95 -41 151 -16 108 -36 150 -78 165 -17 5 -30 10 -31 10 -1 0 -15
-9 -32 -19z"/>
<path d="M25563 23973 c-27 -40 -24 -221 6 -383 25 -136 35 -254 50 -605 10
-226 19 -352 41 -550 25 -237 32 -296 41 -400 5 -60 14 -231 19 -380 9 -247
19 -461 34 -700 20 -313 27 -659 31 -1410 4 -834 16 -1442 35 -1740 12 -201
20 -588 25 -1300 2 -324 9 -617 14 -650 5 -33 14 -199 21 -370 8 -233 17 -347
35 -460 13 -82 30 -186 36 -230 7 -44 21 -99 32 -123 50 -109 181 -117 224
-14 20 48 20 115 -1 227 -9 50 -21 117 -27 150 -6 33 -14 78 -19 100 -5 22
-14 175 -20 340 -6 165 -16 343 -22 395 -6 52 -15 421 -20 820 -9 716 -15 944
-37 1415 -15 332 -31 1013 -37 1620 -6 623 -21 985 -68 1670 -3 44 -10 161
-16 260 -10 172 -18 269 -41 470 -14 122 -21 187 -58 480 -6 44 -15 130 -20
190 -51 544 -60 610 -102 780 -22 88 -45 213 -51 279 -7 74 -17 123 -26 132
-22 23 -60 17 -79 -13z"/>
<path d="M27485 23821 c-77 -47 -105 -116 -112 -270 -9 -185 34 -411 107 -568
11 -24 20 -45 20 -47 0 -3 13 -33 29 -68 59 -128 78 -175 104 -243 53 -143
111 -383 98 -403 -3 -5 -22 -17 -42 -26 -47 -22 -59 -51 -59 -141 0 -91 51
-259 106 -348 40 -65 41 -86 9 -197 -57 -193 -57 -433 -1 -555 47 -102 201
-266 321 -342 49 -30 53 -44 29 -91 -8 -17 -30 -89 -48 -159 -19 -70 -43 -159
-55 -198 -12 -38 -35 -137 -52 -220 -17 -82 -32 -152 -34 -155 -8 -13 -44
-159 -54 -225 -30 -179 -174 -530 -312 -761 -27 -44 -63 -112 -80 -150 -17
-38 -49 -106 -70 -152 -21 -45 -39 -85 -39 -87 0 -3 -18 -44 -40 -91 -22 -47
-40 -88 -40 -90 0 -2 -12 -29 -26 -61 -61 -137 -87 -205 -118 -318 -15 -55
-48 -165 -72 -245 -56 -181 -58 -189 -88 -335 -34 -170 -43 -224 -61 -360 -8
-66 -18 -133 -21 -150 -5 -27 -10 -86 -30 -423 -8 -132 8 -322 37 -432 11 -41
44 -124 73 -185 29 -60 74 -155 101 -210 39 -82 60 -113 119 -170 44 -43 94
-81 131 -99 33 -16 110 -62 170 -101 139 -90 163 -101 282 -127 87 -18 114
-20 248 -12 173 9 214 9 865 2 387 -4 511 -9 615 -23 170 -23 269 -17 400 25
55 18 125 39 155 47 200 54 239 70 417 175 85 51 130 86 227 183 121 120 257
290 335 419 22 37 41 69 41 71 0 1 20 45 44 96 40 87 54 123 116 294 36 100
68 252 84 405 23 206 33 261 72 380 18 58 50 168 69 245 61 242 123 377 282
618 153 231 243 317 383 367 36 13 94 37 130 54 156 76 314 88 505 39 109 -28
140 -66 201 -248 36 -108 37 -112 37 -270 0 -153 -23 -440 -43 -535 -18 -83
-60 -265 -69 -300 -6 -19 -22 -82 -36 -140 -15 -58 -35 -136 -44 -175 -61
-237 -62 -275 -10 -319 23 -20 42 -26 76 -26 40 0 51 5 83 38 25 27 43 61 58
108 22 71 97 372 126 504 9 41 21 93 26 115 39 173 86 615 75 715 -2 19 -6 73
-9 120 -12 180 -100 411 -194 512 -96 102 -203 140 -438 154 -94 5 -138 3
-205 -10 -82 -17 -194 -51 -214 -66 -5 -4 -48 -22 -95 -40 -134 -51 -164 -66
-247 -129 -95 -72 -151 -139 -295 -352 -98 -146 -228 -383 -228 -416 0 -7 -6
-13 -14 -13 -16 0 -18 13 -36 240 -20 235 -49 324 -146 451 -66 86 -111 178
-148 304 -79 266 -118 342 -257 501 -136 157 -171 225 -266 519 -35 110 -80
245 -100 300 -56 160 -79 251 -97 390 -33 252 -72 418 -122 516 -22 45 -69 89
-93 89 -27 0 -1 33 132 169 181 184 268 306 324 451 29 75 40 128 59 271 13
100 14 134 4 188 -15 82 -33 138 -65 201 -14 27 -25 58 -25 69 0 40 133 255
270 436 44 58 92 127 107 153 68 120 86 157 114 234 17 46 45 108 63 138 19
30 57 102 86 160 42 83 54 118 58 168 6 75 -15 130 -58 155 -35 21 -110 22
-181 2 -220 -63 -461 -231 -784 -545 -82 -80 -215 -201 -295 -267 -80 -67
-161 -136 -180 -153 -52 -47 -70 -51 -147 -35 -37 8 -91 15 -119 15 -103 0
-237 -60 -280 -125 -9 -14 -19 -45 -21 -70 -5 -39 -2 -47 25 -75 27 -26 37
-30 87 -30 31 0 66 5 77 11 12 7 56 12 98 12 77 1 91 -3 470 -124 87 -28 215
-86 268 -122 58 -39 127 -134 148 -205 29 -102 3 -297 -60 -433 -43 -96 -142
-217 -315 -389 -186 -186 -227 -219 -432 -353 -173 -113 -170 -111 -273 -149
-172 -63 -171 -63 -336 -62 -241 1 -397 39 -605 147 -86 44 -202 150 -263 239
-46 68 -58 160 -38 310 19 139 28 172 64 223 33 46 48 85 55 137 8 57 52 135
144 259 46 63 96 134 111 159 44 76 183 263 222 300 21 19 50 60 65 90 70 139
237 345 374 461 108 92 152 119 193 119 40 0 68 27 68 65 0 74 -97 98 -205 50
-49 -21 -231 -153 -289 -209 -29 -28 -164 -183 -199 -230 -15 -20 -33 -36 -40
-36 -7 0 -60 68 -117 151 -57 84 -143 198 -190 254 -89 108 -130 166 -251 357
-122 194 -224 299 -329 339 -63 24 -97 24 -135 0z m3458 -298 c-8 -21 -78
-141 -116 -198 -14 -22 -40 -80 -57 -130 -33 -94 -146 -275 -250 -400 -65 -79
-180 -239 -210 -292 -13 -24 -28 -43 -33 -43 -5 0 -35 15 -66 34 -92 55 -287
136 -330 136 -9 0 -26 7 -37 15 -22 17 -31 6 132 145 139 117 170 145 314 284
226 219 405 361 535 426 88 44 129 52 118 23z m-3257 -91 c23 -31 54 -79 70
-107 79 -138 131 -212 254 -360 119 -142 320 -443 320 -477 0 -7 -25 -47 -56
-88 -31 -41 -76 -106 -101 -145 -65 -100 -134 -185 -149 -185 -14 0 -16 4 -34
110 -51 299 -104 490 -185 671 -25 54 -45 104 -45 109 0 6 -4 18 -9 28 -29 55
-89 226 -109 312 -14 57 -23 176 -15 184 12 11 18 6 59 -52z m2179 -2689 c3
-32 10 -74 14 -93 5 -19 14 -73 21 -120 49 -362 65 -447 116 -593 19 -56 49
-145 65 -197 84 -258 145 -432 176 -498 41 -87 135 -228 198 -297 104 -114
165 -222 199 -355 42 -165 109 -311 196 -428 91 -123 90 -119 120 -442 31
-326 31 -328 63 -435 24 -79 27 -230 8 -365 -6 -41 -18 -136 -27 -210 -22
-186 -68 -355 -144 -525 -17 -38 -40 -90 -52 -115 -50 -111 -200 -313 -333
-446 -114 -114 -318 -232 -455 -263 -72 -16 -118 -29 -210 -58 -106 -35 -158
-38 -305 -17 -128 17 -186 18 -1220 26 -55 1 -181 -2 -280 -7 -217 -9 -248 -2
-381 82 -49 31 -120 72 -159 91 -114 55 -127 70 -195 204 -34 68 -78 156 -99
196 -57 109 -87 284 -78 455 4 61 11 197 17 300 5 104 12 192 15 198 4 5 10
48 15 97 9 80 37 241 60 337 5 22 17 72 26 110 9 39 33 122 54 185 21 63 41
131 45 150 23 114 103 317 240 615 126 275 140 304 181 370 119 196 275 572
303 735 24 136 33 178 56 275 13 55 29 138 35 185 7 47 21 126 32 175 11 50
24 108 29 130 5 22 18 96 30 165 11 69 24 129 28 133 4 4 48 -6 97 -22 118
-40 200 -57 373 -77 123 -15 158 -15 240 -5 161 21 335 79 466 155 106 62 292
182 339 218 27 21 54 38 62 38 8 0 15 -20 19 -57z"/>
<path d="M10668 23698 c-127 -90 -261 -188 -333 -243 -44 -34 -145 -106 -225
-160 -129 -88 -284 -202 -322 -237 -7 -7 -52 -48 -100 -91 l-86 -77 -119 -4
c-65 -2 -131 -8 -148 -14 -16 -5 -55 -15 -85 -22 -212 -47 -423 -159 -469
-249 l-20 -38 39 -13 c51 -17 173 -1 311 40 152 45 262 62 387 61 145 -1 234
-21 351 -79 197 -98 324 -280 355 -512 14 -104 -45 -303 -159 -545 -69 -145
-239 -341 -390 -450 -152 -109 -393 -236 -545 -287 -168 -56 -268 -73 -435
-73 -187 1 -270 22 -485 128 l-145 71 -135 135 c-102 103 -146 155 -178 211
-44 79 -82 206 -82 272 0 37 3 56 32 183 18 80 57 161 142 295 107 170 176
258 317 408 159 168 202 208 312 291 50 39 106 82 122 97 50 44 169 122 242
157 129 63 308 110 399 105 59 -3 64 -1 64 17 -1 24 -16 45 -50 68 -62 43
-303 3 -477 -79 -63 -30 -187 -110 -265 -171 -36 -28 -61 -42 -69 -37 -7 4
-51 48 -98 97 -47 49 -129 122 -181 162 -103 79 -285 260 -370 369 -74 94
-145 121 -203 76 -44 -34 -51 -76 -38 -219 7 -69 16 -151 21 -181 5 -30 14
-93 19 -140 12 -93 21 -145 51 -325 12 -66 29 -212 40 -325 10 -113 23 -220
28 -237 10 -30 6 -39 -40 -110 -117 -179 -170 -336 -172 -513 -2 -167 39 -292
143 -443 63 -91 288 -313 356 -352 28 -16 64 -41 82 -56 17 -15 41 -30 52 -34
27 -8 26 -17 -2 -63 -13 -20 -34 -59 -47 -86 -27 -58 -96 -151 -182 -247 -61
-68 -144 -179 -311 -419 -89 -128 -127 -199 -292 -545 -32 -66 -89 -185 -127
-264 -73 -153 -92 -203 -132 -351 -14 -52 -43 -147 -65 -211 -22 -65 -49 -155
-61 -200 -12 -46 -37 -131 -55 -189 -61 -193 -68 -221 -106 -440 -55 -323
-104 -731 -96 -801 3 -19 18 -66 34 -105 17 -38 36 -103 43 -144 18 -109 46
-195 89 -270 21 -36 50 -92 66 -125 34 -71 167 -214 265 -283 36 -25 88 -66
115 -91 132 -117 303 -191 650 -281 39 -10 102 -23 140 -30 39 -6 90 -16 115
-22 25 -5 126 -14 225 -18 99 -5 219 -14 267 -20 102 -13 537 -8 613 8 28 6
91 15 140 22 50 6 158 27 240 47 163 38 256 78 445 189 58 34 125 73 151 87
55 31 211 163 260 220 113 132 260 347 356 522 68 124 68 126 98 215 17 52 27
68 50 79 67 31 72 39 120 221 67 250 115 427 140 505 46 152 68 247 96 430 22
149 29 183 54 285 14 58 29 125 34 150 16 81 61 294 70 330 5 19 16 58 24 85
8 28 26 95 41 150 38 141 191 593 228 673 16 37 40 90 53 117 26 60 105 184
131 207 10 9 38 21 62 28 41 11 47 9 115 -26 40 -20 106 -67 147 -105 72 -65
77 -71 117 -176 62 -161 65 -176 50 -279 -14 -95 -20 -108 -76 -194 -52 -78
-61 -103 -61 -168 0 -60 15 -90 57 -111 58 -30 113 -1 154 82 17 34 46 87 65
117 46 76 61 128 73 252 13 132 1 208 -49 323 -10 22 -30 73 -46 113 -15 40
-43 91 -63 113 -59 70 -174 161 -267 214 l-89 50 -90 -1 c-103 -1 -180 -25
-232 -73 -44 -40 -156 -214 -199 -308 -20 -43 -42 -93 -51 -111 -18 -41 -53
-141 -98 -282 -18 -58 -47 -145 -65 -195 -17 -49 -49 -157 -71 -240 -22 -82
-45 -166 -50 -185 -6 -19 -30 -132 -55 -250 -24 -118 -51 -244 -59 -280 -18
-78 -38 -195 -60 -350 -18 -128 -34 -208 -79 -405 -19 -82 -34 -163 -45 -256
-15 -121 -39 -115 -40 10 0 42 -9 112 -20 156 -12 44 -21 105 -21 135 0 31 -9
89 -21 130 -11 41 -27 125 -35 185 -8 62 -28 147 -44 194 -17 46 -30 100 -30
120 0 20 -9 71 -20 114 -11 42 -26 119 -35 170 -20 120 -34 174 -58 216 -10
19 -39 95 -63 168 -45 135 -54 154 -114 251 -18 29 -56 109 -86 178 -29 69
-70 153 -92 187 -21 34 -45 78 -54 97 -37 82 -47 106 -54 130 -7 24 -40 95
-83 175 -30 56 -91 194 -91 204 0 5 -19 56 -43 113 -65 155 -95 278 -122 488
-9 69 -21 153 -27 188 l-10 62 71 66 c67 62 195 206 254 286 61 82 137 252
212 473 32 96 38 125 42 230 5 106 2 132 -21 224 -26 105 -25 120 7 153 70 71
224 390 313 650 34 98 68 239 99 408 10 52 22 103 27 113 5 10 10 45 10 79 1
57 -1 64 -31 90 -46 41 -110 40 -173 -4z m-28 -284 c0 -68 -83 -356 -136 -472
-13 -29 -24 -55 -24 -58 0 -9 -115 -235 -146 -288 -48 -80 -49 -80 -150 21
-92 94 -199 162 -316 203 -29 10 -54 25 -56 33 -3 15 129 116 363 276 83 56
217 151 300 211 82 60 153 106 157 104 4 -3 8 -16 8 -30z m-2793 -295 c54 -53
135 -123 179 -157 85 -64 224 -209 224 -234 0 -7 -82 -99 -182 -204 -101 -104
-200 -210 -222 -234 -30 -35 -40 -41 -46 -29 -5 8 -4 35 2 60 11 49 5 271 -11
389 -21 156 -30 218 -45 305 -18 102 -21 208 -6 203 5 -1 53 -46 107 -99z
m1833 -2357 c0 -16 4 -53 9 -83 5 -30 15 -90 21 -134 6 -44 15 -96 20 -115 5
-19 14 -57 21 -85 14 -63 57 -191 77 -229 8 -16 25 -57 37 -90 64 -170 84
-215 131 -296 17 -30 42 -84 54 -120 29 -82 80 -186 120 -245 17 -25 55 -103
84 -173 29 -70 74 -159 99 -198 28 -44 61 -114 83 -180 20 -60 52 -143 71
-184 24 -53 38 -104 48 -175 8 -55 21 -122 29 -150 8 -27 20 -84 27 -125 6
-41 27 -121 45 -176 19 -56 34 -119 34 -140 0 -43 19 -147 44 -237 9 -32 16
-79 16 -105 0 -26 9 -81 20 -122 13 -47 24 -142 32 -254 12 -185 8 -232 -29
-364 -18 -65 -127 -278 -192 -376 -40 -60 -197 -274 -236 -320 -35 -41 -192
-166 -241 -191 -33 -16 -89 -49 -126 -72 -92 -59 -263 -141 -318 -152 -25 -5
-70 -16 -100 -24 -227 -61 -695 -86 -980 -52 -69 8 -172 15 -230 15 -95 0
-179 10 -340 41 -47 9 -151 37 -335 91 -125 37 -274 126 -399 240 -11 10 -23
18 -28 18 -4 0 -53 41 -108 92 -84 76 -106 103 -135 162 -19 39 -47 94 -62
121 -65 116 -93 273 -68 380 8 36 15 92 15 123 0 72 17 241 35 352 8 47 19
121 25 165 6 44 20 130 31 190 11 61 24 133 29 160 11 61 48 203 59 224 5 9
21 66 36 126 15 61 35 135 45 165 39 119 82 258 96 310 30 114 66 213 107 297
24 49 50 106 59 128 17 43 171 365 241 504 23 46 74 132 112 190 108 161 277
405 285 411 21 14 148 216 192 304 27 56 57 110 68 120 18 19 21 19 97 1 128
-29 212 -37 338 -32 212 9 336 37 555 123 89 35 130 56 285 141 76 41 95 42
95 5z"/>
<path d="M43799 23567 c-50 -34 -61 -61 -55 -137 6 -62 29 -137 74 -241 76
-173 95 -462 71 -1079 -14 -372 0 -710 41 -970 56 -358 72 -472 100 -717 6
-46 14 -120 20 -165 5 -46 14 -132 20 -193 6 -60 16 -148 22 -195 8 -57 12
-437 14 -1165 1 -645 6 -1151 13 -1255 18 -292 41 -741 51 -1010 6 -140 14
-318 20 -395 20 -293 22 -374 24 -890 1 -470 3 -533 18 -560 21 -40 45 -60 90
-76 77 -27 171 37 182 123 20 165 9 1138 -18 1503 -9 116 -20 327 -26 470 -5
143 -14 321 -20 395 -41 572 -50 856 -55 1745 -5 767 -14 1090 -35 1220 -6 33
-28 204 -50 380 -22 176 -49 374 -60 440 -24 138 -35 206 -49 290 -5 33 -16
101 -25 150 -41 232 -48 354 -57 930 -4 314 -13 606 -18 650 -27 239 -50 337
-112 493 -36 88 -40 107 -30 128 14 32 14 95 -2 115 -33 44 -97 51 -148 16z"/>
<path d="M12556 23305 c-31 -29 -33 -57 -8 -123 34 -90 172 -284 233 -328 111
-80 187 -167 298 -344 30 -47 86 -128 126 -180 40 -52 119 -165 176 -250 57
-85 149 -213 204 -285 56 -71 136 -177 178 -235 248 -338 460 -603 587 -735
52 -55 140 -156 195 -225 55 -69 102 -127 105 -130 16 -14 169 -200 190 -230
13 -19 27 -37 30 -40 21 -19 154 -174 184 -215 87 -116 316 -367 480 -524 48
-47 118 -122 154 -166 36 -44 109 -124 162 -179 111 -115 104 -107 155 -171
21 -28 42 -52 45 -55 14 -12 50 -63 50 -71 0 -9 -61 -60 -295 -246 -88 -70
-203 -164 -256 -210 -157 -134 -521 -501 -644 -648 -27 -33 -52 -62 -55 -65
-4 -3 -13 -15 -22 -28 -8 -12 -44 -55 -79 -94 -35 -39 -96 -117 -135 -172 -40
-56 -95 -128 -124 -161 -135 -156 -170 -196 -245 -278 -44 -49 -104 -116 -134
-150 -29 -34 -81 -91 -115 -127 -34 -36 -98 -108 -143 -160 -44 -52 -109 -122
-144 -155 -35 -33 -107 -107 -159 -165 -52 -58 -126 -139 -166 -180 -76 -81
-251 -272 -323 -354 -25 -28 -86 -94 -135 -146 -50 -52 -109 -115 -130 -140
-22 -25 -74 -81 -115 -125 -85 -90 -123 -133 -196 -220 -28 -33 -63 -74 -79
-93 -17 -18 -77 -95 -135 -171 -123 -161 -275 -350 -349 -435 -29 -33 -64 -83
-78 -113 -25 -49 -26 -58 -15 -95 16 -51 48 -83 99 -99 36 -10 45 -9 84 10 27
13 55 39 75 69 18 26 47 63 66 82 18 19 66 78 107 130 41 52 82 104 93 115 10
11 50 63 90 115 63 83 152 195 167 210 3 3 43 50 90 105 46 55 120 138 165
185 44 47 98 105 119 130 21 25 84 95 140 155 56 61 120 130 142 155 21 25 66
74 100 110 34 36 81 88 104 115 23 28 81 91 129 140 47 50 106 113 130 140 24
28 105 113 180 190 75 77 152 158 171 180 18 22 68 78 110 125 289 318 577
658 659 779 22 32 61 82 88 112 27 30 80 92 118 139 186 230 647 680 871 850
237 180 433 360 454 415 29 75 6 155 -68 236 -32 35 -82 93 -111 129 -29 36
-99 112 -155 170 -56 58 -120 128 -141 155 -22 28 -132 145 -245 260 -113 116
-230 239 -260 274 -30 35 -60 69 -65 75 -6 6 -28 33 -50 61 -43 54 -49 60
-153 182 -39 45 -92 110 -118 145 -27 35 -89 113 -139 173 -50 61 -113 139
-140 173 -26 35 -84 103 -129 150 -136 145 -179 193 -267 300 -108 133 -112
138 -200 257 -41 55 -82 109 -92 120 -10 11 -60 76 -110 145 -50 69 -119 159
-153 200 -34 41 -113 152 -177 245 -64 94 -142 203 -173 244 -31 41 -104 143
-160 226 -122 178 -191 257 -288 329 -91 68 -93 70 -211 204 -54 62 -107 118
-116 123 -32 16 -75 10 -103 -16z"/>
<path d="M3764 23239 c-28 -29 -29 -34 -32 -142 -3 -113 7 -218 28 -292 53
-184 76 -520 85 -1215 3 -229 21 -884 31 -1140 4 -88 1 -231 -6 -330 -6 -96
-15 -263 -20 -370 -5 -107 -14 -253 -20 -325 -9 -101 -9 -154 1 -240 8 -77 13
-367 14 -975 2 -592 7 -889 14 -940 17 -106 21 -588 9 -970 -13 -404 -14 -328
2 -770 12 -314 12 -395 0 -492 -13 -116 -6 -256 20 -373 5 -22 14 -69 20 -105
20 -112 34 -153 65 -186 96 -102 265 -32 265 110 0 41 -17 143 -45 271 -18 82
-19 208 -4 341 7 70 7 178 -3 407 -7 172 -11 413 -8 537 9 446 5 1126 -8 1315
-7 116 -14 503 -17 990 -3 577 -8 824 -17 887 -8 56 -10 120 -6 175 6 83 12
189 39 729 7 122 8 264 5 315 -4 52 -12 247 -17 434 -23 791 -28 931 -38 1140
-15 321 -32 527 -51 625 -5 25 -14 74 -21 110 -7 36 -25 96 -40 133 -16 37
-36 112 -45 165 -26 156 -62 212 -134 212 -27 0 -44 -8 -66 -31z"/>
<path d="M8578 22060 c-37 -38 -72 -70 -77 -70 -5 0 -29 11 -52 25 -61 35
-120 34 -148 -2 -44 -55 -34 -99 40 -180 22 -24 39 -48 39 -54 0 -6 -10 -25
-22 -41 -12 -17 -23 -52 -26 -79 -4 -45 -2 -51 31 -84 27 -27 43 -35 71 -35
42 0 82 18 110 49 25 27 32 27 72 -9 76 -66 169 -46 203 43 19 49 -12 128 -73
186 -41 40 -43 52 -17 89 35 50 61 111 61 142 0 49 -47 90 -102 90 -40 0 -47
-5 -110 -70z"/>
<path d="M28739 22060 c-20 -10 -56 -44 -80 -74 -24 -30 -52 -55 -61 -56 -10
0 -38 16 -63 35 -129 98 -235 92 -235 -12 0 -38 16 -65 91 -151 66 -74 65 -91
-12 -161 -124 -113 -146 -176 -85 -237 27 -27 42 -34 73 -34 47 0 89 28 178
119 33 33 67 61 75 61 9 0 47 -32 85 -70 80 -83 95 -92 146 -92 75 1 126 76
99 144 -21 52 -63 108 -129 173 -34 33 -61 64 -61 70 0 5 21 41 45 79 75 116
83 181 25 211 -37 19 -47 18 -91 -5z"/>
<path d="M9345 22046 c-41 -18 -83 -69 -90 -109 -9 -46 18 -109 56 -131 55
-32 165 -3 193 52 34 67 26 133 -22 176 -27 24 -98 30 -137 12z"/>
<path d="M29584 21981 c-17 -11 -55 -42 -84 -70 -29 -28 -55 -51 -58 -51 -3 0
-28 25 -57 55 -41 44 -57 55 -82 55 -78 0 -97 -94 -43 -208 17 -35 30 -71 30
-79 0 -9 -16 -33 -36 -55 -73 -81 -83 -151 -30 -204 50 -50 97 -44 181 21 53
41 66 45 96 29 35 -20 83 -17 113 7 21 16 26 29 26 63 0 23 -7 51 -15 62 -24
32 -18 71 18 111 49 56 82 104 96 141 11 26 11 38 0 65 -30 73 -92 97 -155 58z"/>
<path d="M9175 21371 c-188 -113 -156 -104 -368 -107 -233 -3 -258 -7 -302
-48 -44 -42 -52 -75 -28 -123 35 -71 58 -78 313 -81 143 -2 238 0 261 7 85 26
312 168 339 214 37 59 21 124 -39 164 -51 34 -85 29 -176 -26z"/>
<path d="M28980 21065 c-161 -17 -342 -45 -362 -56 -39 -21 -47 -82 -15 -113
37 -36 78 -41 331 -39 152 2 262 7 283 14 38 12 73 59 73 97 0 36 -27 80 -60
97 -34 17 -87 17 -250 0z"/>
<path d="M39840 20613 c-26 -25 -32 -38 -40 -108 -13 -100 -14 -352 -2 -402 6
-21 15 -85 21 -143 7 -58 16 -136 22 -175 5 -38 13 -151 16 -250 5 -150 4
-182 -8 -192 -31 -26 -364 -62 -652 -72 l-189 -6 -24 -28 c-50 -59 -18 -151
62 -177 28 -10 43 -9 81 4 26 9 68 16 94 16 26 0 159 12 296 26 136 14 266 26
288 27 l40 2 0 -70 c-1 -38 -6 -152 -13 -253 -20 -288 4 -495 76 -663 28 -64
72 -99 127 -99 24 0 46 3 48 8 5 8 -3 73 -31 242 -27 169 -33 350 -19 623 9
172 16 230 26 236 7 5 64 14 125 20 104 11 164 19 295 42 30 5 68 9 86 9 33 0
264 49 355 75 85 25 466 151 545 180 39 15 126 53 193 86 68 32 126 59 128 59
2 0 23 9 47 19 23 11 49 21 57 24 8 3 3 6 -12 6 -15 1 -29 -3 -32 -8 -3 -5
-18 -11 -33 -14 -16 -3 -48 -11 -73 -16 -25 -6 -106 -20 -180 -31 -119 -18
-175 -29 -370 -71 -25 -5 -110 -25 -190 -43 -248 -58 -418 -89 -550 -101 -36
-3 -92 -10 -125 -15 -33 -5 -105 -12 -159 -16 -124 -9 -126 -7 -127 120 0 115
-32 363 -79 632 -31 174 -21 321 25 376 34 40 33 82 -4 119 -40 40 -98 41
-141 2z"/>
<path d="M21715 19803 c-33 -2 -136 -10 -230 -18 -208 -18 -485 -33 -880 -46
-335 -11 -607 -24 -675 -34 -25 -3 -148 -9 -273 -13 l-229 -7 -29 -33 c-56
-62 -31 -153 51 -186 48 -19 235 -21 480 -6 223 15 537 29 750 35 326 9 673
26 736 36 33 5 116 9 184 9 166 0 243 15 286 56 30 28 34 37 34 82 0 40 -6 57
-26 81 -23 27 -82 54 -109 49 -5 -1 -37 -3 -70 -5z"/>
<path d="M21740 18125 c-47 -7 -134 -19 -195 -25 -242 -24 -428 -48 -675 -86
-58 -8 -161 -24 -230 -35 -138 -20 -174 -27 -365 -65 -126 -26 -160 -32 -275
-53 -30 -6 -91 -17 -135 -25 -122 -23 -349 -58 -500 -76 -159 -19 -251 -45
-271 -76 -22 -32 -1 -71 45 -85 65 -20 430 -23 581 -5 252 30 308 39 670 106
63 12 144 26 180 31 36 6 90 14 120 19 470 73 678 97 1020 114 135 7 254 17
265 23 11 6 31 23 45 38 21 22 25 36 25 86 -1 53 -4 63 -33 92 -30 30 -37 32
-110 34 -42 1 -115 -4 -162 -12z"/>
</g>
</svg>
