<?xml version="1.0" standalone="no"?>
<!DOCTYPE svg PUBLIC "-//W3C//DTD SVG 20010904//EN"
 "http://www.w3.org/TR/2001/REC-SVG-20010904/DTD/svg10.dtd">
<svg version="1.0" xmlns="http://www.w3.org/2000/svg"
 width="2000.000000pt" height="1026.000000pt" viewBox="0 0 2000.000000 1026.000000"
 preserveAspectRatio="xMidYMid meet">
<metadata>
Created by potrace 1.16, written by Peter Selinger 2001-2019
</metadata>
<g transform="translate(0.000000,1026.000000) scale(0.100000,-0.100000)"
fill="#000000" stroke="none">
<path d="M632 10120 c-6 -11 -30 -32 -52 -46 -31 -21 -40 -33 -40 -55 0 -34
13 -36 58 -9 l32 20 0 -135 0 -135 30 0 30 0 0 190 0 190 -23 0 c-12 0 -28 -9
-35 -20z"/>
<path d="M1160 9626 c-58 -13 -115 -26 -127 -30 -38 -12 -40 -59 -3 -71 10 -3
67 5 128 18 l111 24 5 -26 c3 -14 12 -118 21 -231 15 -202 41 -507 110 -1335
19 -231 37 -454 40 -495 3 -41 8 -100 11 -131 l6 -55 -53 -11 c-30 -7 -72 -14
-94 -18 -83 -13 -105 -24 -105 -55 0 -31 25 -46 58 -36 26 8 194 37 197 34 2
-2 10 -88 19 -193 54 -648 89 -1065 116 -1390 17 -203 34 -417 39 -475 5 -58
8 -106 7 -107 -1 -1 -51 -12 -111 -24 -61 -12 -116 -26 -122 -31 -7 -6 -13
-21 -13 -34 0 -34 31 -38 125 -18 44 10 91 18 105 18 l25 1 17 -205 c63 -765
93 -1117 119 -1415 16 -187 29 -365 29 -395 l0 -55 -62 -12 c-156 -30 -205
-60 -164 -101 14 -15 24 -14 108 6 51 12 101 22 110 22 22 0 23 -4 53 -370 14
-168 39 -467 55 -665 17 -198 39 -470 50 -605 11 -135 23 -266 26 -291 l5 -46
-108 -28 c-59 -15 -114 -34 -122 -41 -19 -17 -6 -64 18 -64 35 0 266 62 279
74 11 11 10 55 -7 257 -27 313 -83 992 -122 1459 -16 201 -45 550 -64 775 -46
557 -91 1100 -110 1335 -9 107 -18 215 -22 240 l-6 45 68 -100 c38 -55 72
-101 77 -103 4 -2 8 -9 8 -15 0 -6 8 -20 19 -31 10 -12 44 -59 75 -105 l57
-85 -101 -22 c-55 -13 -105 -26 -110 -29 -16 -10 -11 -55 7 -62 9 -4 66 3 127
15 61 12 116 22 122 22 6 0 33 -32 60 -72 27 -39 56 -81 64 -93 13 -20 98
-142 140 -201 75 -108 120 -174 120 -178 0 -7 -62 -23 -137 -37 -32 -6 -64
-15 -70 -21 -18 -14 -16 -57 2 -64 12 -5 166 22 240 42 18 4 40 -22 145 -173
68 -98 127 -180 130 -183 3 -3 10 -12 15 -21 6 -9 38 -57 72 -105 l62 -89 -62
-14 c-135 -29 -166 -41 -172 -62 -5 -13 -1 -27 8 -37 14 -13 26 -13 119 8 174
38 155 43 218 -51 71 -107 110 -162 210 -305 78 -111 141 -206 138 -208 -2 -2
-46 -13 -98 -26 -122 -29 -132 -35 -128 -68 4 -36 33 -39 134 -14 44 11 95 23
116 26 l36 7 114 -162 c62 -89 120 -171 128 -184 43 -65 138 -201 163 -232 15
-20 27 -39 27 -43 0 -5 -19 -11 -42 -15 -61 -10 -160 -36 -180 -46 -22 -12
-23 -58 -2 -66 15 -6 125 15 226 42 l48 13 37 -52 c21 -28 42 -59 48 -68 5 -9
41 -61 79 -115 39 -54 100 -141 136 -193 36 -52 87 -124 112 -160 l46 -66
-114 -29 c-63 -15 -119 -34 -125 -41 -17 -21 -7 -59 17 -62 12 -2 61 8 110 21
166 46 154 48 212 -33 54 -73 60 -77 93 -60 28 16 24 38 -20 100 l-40 56 77
18 c42 10 127 31 187 47 197 50 599 151 655 164 64 14 339 84 358 90 7 3 33
-23 58 -58 48 -65 72 -84 98 -74 27 11 18 59 -19 106 -19 24 -33 46 -30 49 3
3 286 76 630 162 l624 156 56 -68 c59 -71 69 -77 99 -55 23 17 16 41 -29 98
-19 24 -33 45 -31 46 2 2 271 70 599 152 327 82 604 152 614 155 15 5 31 -9
72 -59 42 -52 59 -65 81 -65 25 0 40 15 40 40 0 5 -18 30 -41 56 -30 35 -37
49 -27 55 7 4 279 73 605 155 l592 147 28 -33 c15 -18 39 -50 54 -69 73 -102
173 -182 262 -211 63 -21 73 -45 23 -54 -41 -8 -86 -56 -86 -92 0 -35 52 -35
68 1 20 44 95 45 111 2 13 -36 1 -55 -80 -129 -74 -67 -109 -116 -109 -152 0
-15 16 -16 133 -14 l132 3 3 28 3 27 -93 0 -93 0 40 32 c22 18 57 50 78 71 21
22 39 38 40 36 41 -72 171 -251 217 -297 76 -76 126 -106 205 -123 33 -7 64
-16 70 -21 17 -15 55 -8 67 12 7 12 34 34 60 51 121 78 237 244 394 565 87
177 83 172 167 212 4 2 7 -57 7 -132 l0 -136 30 0 30 0 0 190 c0 189 0 190
-22 190 -12 0 -40 -17 -61 -37 l-39 -38 20 40 c11 22 36 83 57 135 23 59 51
109 72 131 29 30 34 42 32 77 -2 27 8 68 31 124 l34 85 96 23 c52 12 154 38
225 56 72 18 175 45 230 59 l100 25 58 -59 c65 -68 88 -79 111 -56 22 23 21
27 -24 81 -21 26 -37 50 -35 54 4 6 86 28 340 91 66 17 172 43 235 59 63 16
171 43 240 61 69 17 143 35 165 40 22 5 65 15 95 24 l55 15 55 -59 c57 -61 79
-75 105 -65 29 11 17 56 -27 101 -29 30 -37 44 -27 47 8 2 68 18 134 34 284
72 366 93 465 118 58 15 130 33 160 40 30 6 119 29 198 49 134 34 145 36 168
21 13 -9 24 -20 24 -24 0 -4 20 -25 46 -46 35 -29 51 -36 70 -32 41 11 32 53
-22 101 l-47 41 552 138 552 138 65 -61 c65 -61 89 -72 112 -49 21 21 13 41
-33 88 l-46 46 529 132 c291 73 534 132 540 132 6 0 39 -25 74 -55 62 -55 93
-66 116 -43 21 21 14 37 -35 83 -35 32 -44 45 -33 49 8 2 245 62 527 132 l511
128 49 -40 c26 -21 56 -47 66 -57 27 -27 71 -19 75 14 2 20 -8 35 -42 67 -25
23 -44 42 -43 42 2 0 192 48 423 106 230 58 462 116 514 129 l94 24 44 -37
c85 -72 108 -85 131 -72 24 12 27 39 9 62 -27 33 -156 128 -174 128 -11 0 -47
24 -80 53 -33 28 -78 66 -99 82 -22 17 -66 53 -99 80 -123 103 -254 211 -290
240 -77 62 -97 81 -109 105 -7 13 -25 27 -40 31 -15 4 -92 61 -170 126 -78 66
-180 150 -227 188 -185 150 -250 208 -250 222 0 8 -17 21 -37 30 -21 8 -79 50
-129 92 -50 42 -103 85 -118 97 -59 46 -283 232 -330 273 -28 25 -53 54 -56
65 -4 13 -17 23 -33 26 -29 5 -59 28 -302 230 -83 69 -184 152 -224 185 -40
33 -78 71 -84 85 -7 14 -24 27 -38 30 -13 3 -65 39 -114 80 -127 106 -277 229
-295 243 -104 81 -169 142 -174 163 -5 17 -13 24 -31 24 -15 0 -50 21 -92 58
-38 31 -117 98 -178 147 -60 49 -117 94 -125 102 -8 7 -51 43 -95 80 -44 36
-88 73 -97 81 -15 12 -26 12 -85 -1 -37 -9 -133 -30 -213 -47 -325 -72 -461
-102 -589 -131 -84 -20 -146 -29 -168 -26 -26 5 -42 1 -62 -13 -14 -11 -46
-22 -71 -26 -42 -5 -49 -2 -103 38 -31 24 -82 56 -111 71 -51 26 -59 27 -177
24 -147 -4 -217 -24 -323 -94 -52 -34 -236 -197 -286 -253 -5 -6 -67 -20 -450
-105 -563 -125 -562 -125 -582 -114 -19 10 -58 -4 -58 -21 0 -5 -26 -14 -57
-20 -32 -7 -116 -25 -188 -41 -71 -15 -172 -37 -223 -49 -52 -11 -97 -20 -102
-20 -14 0 -56 117 -186 515 -292 891 -368 1106 -482 1350 -202 437 -398 563
-601 388 -88 -76 -199 -263 -301 -508 -49 -116 -250 -702 -250 -727 0 -10 -4
-18 -10 -18 -5 0 -10 -10 -10 -23 0 -13 -9 -50 -19 -83 -23 -71 -66 -215 -115
-384 -20 -69 -52 -177 -71 -240 -19 -63 -48 -162 -65 -220 -59 -202 -82 -275
-91 -285 -13 -13 -11 -28 2 -19 6 3 4 -7 -4 -22 -8 -16 -27 -69 -42 -119 -16
-49 -32 -95 -36 -101 -5 -6 -46 -19 -91 -28 -46 -10 -141 -31 -212 -47 -79
-19 -140 -27 -158 -24 -19 5 -35 2 -46 -8 -20 -17 -95 -35 -702 -168 -80 -17
-201 -44 -270 -60 -80 -18 -128 -25 -134 -19 -15 15 -32 12 -51 -7 -16 -15
-236 -72 -281 -73 -12 0 -32 9 -46 19 -35 28 -114 69 -178 94 -45 17 -78 21
-190 21 l-135 1 -88 -42 c-49 -24 -100 -43 -113 -43 -32 0 -96 -59 -133 -123
-16 -29 -52 -75 -78 -102 -46 -48 -54 -52 -133 -69 -177 -38 -632 -138 -800
-176 -72 -16 -139 -26 -158 -23 -22 4 -37 1 -45 -9 -7 -8 -68 -27 -137 -42
-69 -15 -185 -40 -258 -56 -72 -16 -192 -43 -265 -59 -72 -16 -206 -46 -296
-66 -91 -21 -177 -35 -195 -32 -19 3 -42 -2 -61 -13 -16 -10 -64 -25 -105 -34
-205 -45 -408 -89 -525 -115 -71 -16 -204 -46 -295 -66 -91 -20 -181 -40 -200
-44 -21 -4 -45 -4 -58 2 -18 8 -27 6 -45 -11 -14 -13 -52 -26 -102 -36 -44 -9
-140 -30 -212 -46 -73 -17 -193 -43 -265 -59 -73 -16 -205 -45 -293 -65 -240
-53 -303 -66 -313 -66 -6 0 -13 51 -16 113 -4 61 -20 267 -36 457 -37 435 -91
1087 -130 1560 -38 456 -80 963 -125 1500 -19 228 -44 532 -55 675 -12 143
-25 270 -30 283 -12 28 -39 28 -180 -2z m9470 -125 c0 -5 8 -7 18 -4 27 7 110
-63 170 -144 106 -140 212 -376 372 -821 16 -45 27 -61 37 -58 18 7 27 -18 14
-41 -8 -15 12 -86 91 -324 227 -690 236 -714 252 -711 22 4 31 -24 18 -52 -8
-19 2 -54 60 -207 103 -272 105 -279 117 -375 7 -49 18 -192 26 -317 12 -200
16 -230 32 -243 17 -13 17 -15 1 -27 -16 -13 -16 -31 -3 -283 8 -148 15 -307
15 -354 0 -85 0 -86 31 -104 l30 -18 -6 84 c-3 45 -17 283 -31 528 -14 245
-31 502 -38 573 -6 70 -11 127 -9 127 2 0 28 -51 59 -112 31 -62 77 -143 101
-180 40 -59 49 -67 69 -62 22 6 24 3 24 -29 0 -30 8 -43 55 -85 84 -77 133
-97 235 -97 79 0 90 3 150 36 83 46 159 101 222 162 56 54 97 78 148 87 l35 6
-32 17 c-34 18 -63 44 -63 56 0 4 10 13 23 20 48 25 157 -50 157 -109 0 -8 19
-64 41 -125 96 -256 90 -234 72 -269 -9 -17 -26 -44 -39 -59 -13 -16 -22 -33
-19 -38 4 -5 -7 -28 -23 -51 -27 -40 -96 -186 -110 -233 -6 -20 -32 -69 -211
-390 -88 -156 -99 -181 -84 -190 9 -5 28 -20 42 -33 l26 -23 -54 6 c-72 8
-232 60 -264 85 -14 11 -32 20 -40 20 -16 0 -207 114 -278 166 -26 19 -50 34
-55 34 -11 0 145 -114 236 -171 41 -27 85 -55 97 -64 31 -21 54 -103 114 -394
28 -135 55 -267 60 -292 9 -40 13 -46 31 -41 16 4 19 1 15 -14 -15 -54 -14
-74 7 -127 23 -61 79 -127 130 -154 75 -39 227 -61 185 -26 -8 6 -47 22 -88
36 -110 39 -150 86 -199 237 -21 64 -86 334 -117 487 -9 43 -27 116 -41 162
-13 47 -22 86 -20 88 1 2 23 -6 48 -17 177 -78 418 -76 633 7 94 35 269 125
343 174 24 16 46 29 50 29 4 0 18 -26 31 -58 167 -391 247 -523 484 -795 43
-49 75 -93 70 -97 -9 -9 -518 -142 -882 -231 -198 -48 -258 -60 -272 -51 -14
9 -20 7 -31 -7 -9 -13 -54 -28 -148 -50 -237 -54 -740 -171 -889 -207 -79 -19
-146 -32 -149 -29 -2 2 -12 0 -22 -5 -9 -5 -158 -45 -331 -90 -173 -44 -435
-112 -584 -150 -160 -42 -280 -68 -294 -65 -14 4 -27 0 -35 -9 -12 -16 -246
-75 -786 -199 -85 -20 -215 -50 -288 -67 -73 -17 -137 -28 -142 -25 -18 11
-166 221 -228 324 -35 58 -84 149 -109 201 -39 82 -203 472 -203 484 0 2 17 0
38 -4 79 -18 279 -32 351 -26 227 19 477 126 719 308 57 43 105 78 107 78 11
0 48 -127 80 -275 20 -93 42 -190 50 -215 7 -25 23 -82 36 -127 18 -67 26 -83
42 -83 16 0 18 -5 13 -37 -5 -31 0 -52 28 -110 45 -93 92 -144 163 -176 79
-34 96 -38 113 -27 19 13 7 22 -70 51 -143 54 -177 127 -285 614 -54 242 -95
395 -114 424 -7 11 13 38 82 111 155 162 508 575 506 594 0 6 -4 20 -8 30 -6
16 -27 -3 -131 -120 -462 -522 -569 -631 -745 -762 -60 -45 -113 -82 -117 -82
-3 0 -9 29 -13 63 -7 61 -8 64 -32 59 -24 -5 -25 -6 -21 -81 l3 -76 -45 -22
c-86 -43 -151 -63 -268 -84 -135 -25 -271 -23 -413 6 l-87 17 -28 67 c-15 36
-60 143 -99 236 -89 211 -128 315 -217 575 -38 113 -90 256 -114 318 -25 62
-43 116 -40 121 3 5 -42 58 -101 117 l-106 109 114 27 c63 16 138 30 168 33
30 3 59 9 65 14 6 5 63 21 126 35 304 71 377 89 408 96 17 5 32 6 32 2 0 -15
-106 -112 -123 -112 -33 0 -57 -20 -82 -69 -22 -44 -46 -68 -167 -166 -39 -32
-9 -13 85 55 48 34 90 60 93 57 16 -15 -220 -184 -332 -238 -68 -32 -78 -31
-132 15 l-22 20 11 -33 c14 -39 68 -81 167 -129 123 -59 252 -55 362 11 68 42
176 140 228 209 50 67 52 71 36 89 -10 11 -15 21 -13 23 10 9 55 30 64 31 6 0
38 52 72 115 82 154 105 190 115 184 5 -3 6 -14 3 -25 -4 -10 -2 -19 3 -19 15
0 30 46 42 127 20 148 25 150 43 23 9 -63 22 -185 29 -270 l13 -155 28 -13
c16 -8 31 -11 34 -8 12 12 -35 516 -59 623 -9 45 -8 58 9 105 11 29 25 71 31
93 5 22 37 121 71 219 34 98 61 180 61 180 0 1 -16 10 -35 20 -19 11 -35 22
-35 26 0 4 19 13 43 20 56 18 61 21 47 30 -10 6 -7 20 12 57 26 49 64 178 228
768 51 181 94 333 96 336 2 3 -8 11 -21 17 -33 15 -31 27 5 44 34 15 33 12
154 384 131 403 261 708 330 774 69 67 82 79 120 104 21 14 42 24 46 21 9 -6
19 -88 25 -220 18 -363 25 -528 31 -742 7 -243 7 -243 31 -259 14 -8 26 -14
27 -12 3 5 -12 493 -24 768 -11 253 -26 449 -36 483 -4 12 0 17 15 17 12 0 21
-4 21 -9z m5023 -1578 c84 -71 211 -175 280 -232 70 -58 124 -108 120 -111 -5
-4 -33 -12 -63 -18 -30 -6 -145 -32 -255 -57 -110 -25 -240 -55 -290 -65 -49
-11 -159 -35 -243 -54 l-153 -35 -262 223 c-144 123 -268 230 -275 238 -10 13
-3 17 46 27 354 76 928 204 939 210 1 1 71 -56 156 -126z m-1571 -35 c46 -14
73 -45 121 -143 87 -176 165 -456 327 -1175 17 -74 40 -154 51 -177 11 -24 18
-51 14 -62 -3 -10 13 -94 35 -186 22 -92 39 -169 37 -171 -2 -2 -41 -8 -87
-13 -101 -12 -240 -56 -348 -110 -92 -46 -295 -181 -442 -295 -199 -152 -245
-186 -257 -186 -6 0 -26 35 -43 78 -18 42 -63 140 -100 217 -76 157 -100 215
-163 395 -117 330 -126 349 -163 350 -6 0 -15 16 -21 35 -10 33 -10 35 11 35
12 0 56 -11 96 -25 40 -14 76 -25 80 -25 4 0 19 37 34 83 15 45 46 128 68 184
39 98 42 103 74 109 32 6 34 9 34 48 0 58 18 114 41 129 10 6 19 17 19 24 0 9
17 13 51 13 62 0 63 20 0 35 l-42 10 40 79 c22 44 39 81 37 83 -2 2 -54 -1
-116 -7 -61 -7 -114 -9 -117 -7 -8 8 34 27 95 43 66 17 76 27 93 97 6 29 17
55 23 59 6 4 12 27 12 51 2 52 30 145 53 171 9 10 15 21 14 25 -4 12 86 126
119 151 48 37 106 69 141 79 46 13 134 13 179 -1z m269 -195 c104 -111 193
-229 369 -493 141 -212 128 -195 135 -188 3 3 -26 54 -64 114 l-71 109 43 11
c23 6 94 21 158 34 l116 24 158 -135 c87 -74 215 -181 284 -239 l126 -104 -55
-13 c-88 -19 -402 -63 -451 -63 -39 1 -47 5 -69 35 -28 38 -41 45 -33 16 6
-24 145 -195 237 -291 102 -107 203 -248 318 -445 19 -33 78 -133 131 -223 54
-89 97 -165 97 -167 0 -14 -229 55 -430 130 -293 109 -423 146 -550 159 -35 3
-68 10 -72 14 -9 9 -90 333 -153 612 -131 581 -246 986 -325 1149 l-40 83 47
-40 c27 -22 69 -62 94 -89z m151 69 c29 -27 143 -124 253 -218 263 -222 241
-201 218 -208 -10 -3 -76 -19 -148 -35 -100 -22 -132 -26 -137 -17 -7 13 -28
43 -143 210 -38 55 -104 140 -147 190 -43 50 -78 94 -78 97 0 5 78 25 112 28
9 0 40 -21 70 -47z m-1172 -196 c0 -3 -19 -26 -42 -53 -23 -26 -128 -164 -235
-307 -205 -274 -223 -307 -239 -438 -3 -29 -13 -58 -20 -64 -12 -10 -12 -13 1
-24 8 -7 15 -20 15 -29 0 -9 6 -28 14 -42 9 -17 10 -32 4 -43 -14 -25 -28 -19
-45 22 -12 29 -14 59 -10 137 3 55 10 112 16 128 6 15 7 27 2 27 -25 0 -349
-76 -649 -151 -128 -33 -237 -59 -241 -59 -14 0 -140 284 -200 448 -21 58 -26
84 -18 87 7 2 86 20 177 40 91 19 215 47 275 61 145 32 154 31 196 -12 105
-110 456 -407 471 -398 20 13 3 42 -45 79 -65 50 -225 190 -337 293 l-84 79
134 31 c74 17 209 47 300 67 202 44 359 79 465 104 94 22 95 22 95 17z m2916
-134 c367 -300 445 -367 437 -369 -4 -1 -89 -20 -188 -43 -99 -23 -227 -52
-285 -65 -237 -54 -468 -104 -510 -110 -45 -6 -45 -6 -150 82 -168 140 -412
346 -437 369 l-24 22 73 16 c40 9 260 59 488 111 228 51 426 94 440 94 18 1
64 -31 156 -107z m659 -543 c94 -77 228 -188 298 -246 71 -58 126 -107 124
-109 -10 -10 -776 -181 -934 -209 l-101 -18 -104 89 c-57 49 -188 158 -291
243 -103 85 -187 158 -187 163 0 4 8 8 18 8 22 0 563 120 882 195 52 12 102
23 110 23 8 1 92 -62 185 -139z m-4155 -64 c0 -4 -244 -187 -400 -300 -84 -61
-210 -101 -285 -89 -40 6 -45 10 -90 84 -26 43 -48 87 -49 96 -1 18 124 53
594 164 208 49 230 54 230 45z m2964 -88 c34 -29 124 -104 201 -167 210 -171
315 -262 310 -270 -3 -4 -61 -13 -130 -20 -290 -30 -536 27 -733 167 -70 50
-262 234 -262 251 0 5 26 13 58 16 112 13 338 47 397 60 91 20 93 20 159 -37z
m-6338 -109 c-41 -131 -69 -202 -94 -236 -14 -18 -26 -48 -27 -66 -2 -36 3
-31 -268 -331 -156 -174 -197 -214 -197 -195 0 8 42 57 93 109 91 95 367 419
367 432 0 4 -8 5 -19 2 -10 -3 -22 0 -26 7 -5 8 -10 8 -21 -1 -11 -9 -11 -15
-3 -25 6 -7 9 -20 7 -28 -2 -7 -57 -77 -123 -155 -134 -158 -107 -142 -325
-192 -69 -16 -199 -46 -289 -68 l-165 -38 -127 131 c-112 116 -128 129 -143
117 -15 -12 -4 -26 100 -134 85 -87 113 -122 103 -127 -8 -4 -68 -20 -134 -35
-66 -15 -125 -30 -132 -32 -6 -2 -59 51 -118 119 -123 141 -247 271 -323 342
-29 26 -52 49 -50 51 2 1 68 17 148 34 l145 31 40 -42 c22 -24 70 -76 106
-116 55 -61 71 -73 93 -70 24 3 19 10 -78 118 -57 63 -102 118 -100 121 2 4
21 10 41 14 38 6 449 96 829 180 110 25 207 45 216 45 9 0 66 -53 127 -117 97
-102 113 -115 131 -107 19 9 13 18 -87 124 l-107 114 44 12 c85 22 355 82 372
83 15 1 14 -6 -6 -71z m8121 -226 c65 -54 199 -165 298 -247 99 -81 186 -154
193 -160 11 -10 -16 -20 -140 -49 -239 -58 -829 -194 -869 -201 -35 -7 -40 -3
-204 142 -92 81 -227 199 -299 262 -72 63 -132 117 -134 120 -1 4 33 13 75 20
108 18 471 97 848 186 55 13 103 24 107 24 4 1 60 -43 125 -97z m-10296 -28
c160 -48 309 -172 590 -494 75 -86 175 -198 224 -250 71 -76 97 -113 132 -187
26 -54 50 -93 59 -93 10 0 14 -12 14 -43 0 -82 169 -549 374 -1036 15 -35 25
-66 22 -68 -6 -7 -64 7 -201 46 -275 80 -439 111 -576 111 -115 0 -291 -30
-381 -64 l-67 -25 -10 32 c-11 33 -90 362 -160 667 -174 751 -268 1084 -351
1237 -22 41 -37 79 -34 84 11 19 83 58 141 78 71 25 151 26 224 5z m8289 -39
c140 -70 258 -95 455 -95 88 0 192 4 230 10 39 5 79 9 90 10 22 0 101 -66 419
-349 l209 -186 -34 -7 c-89 -20 -395 -68 -488 -78 -197 -19 -478 -7 -526 25
-11 7 -83 118 -159 246 -77 129 -174 287 -217 352 -43 64 -75 117 -73 117 2 0
45 -20 94 -45z m-8673 -172 c83 -157 178 -490 337 -1183 69 -299 63 -278 84
-276 12 1 18 -8 20 -31 2 -20 -1 -33 -8 -33 -16 0 -10 -31 41 -234 22 -87 38
-160 37 -161 -2 -1 -48 -28 -103 -60 -129 -74 -276 -177 -444 -312 -347 -280
-663 -515 -675 -502 -2 2 -38 76 -79 164 -41 88 -120 253 -176 366 -55 114
-101 214 -101 222 0 9 19 26 41 38 67 34 111 70 180 146 35 39 77 81 93 94 15
12 34 34 40 48 17 38 86 147 127 200 59 76 57 86 -14 123 -134 67 -270 179
-252 208 9 14 42 12 52 -2 13 -22 69 -57 161 -102 137 -68 124 -72 167 41 21
54 48 123 60 153 12 30 28 83 35 118 13 65 30 92 56 92 9 0 14 11 14 33 0 42
28 120 46 130 16 9 19 37 4 37 -5 0 -10 4 -10 8 0 5 25 14 56 21 59 14 69 34
18 39 -16 2 -35 8 -41 14 -16 13 -17 57 -3 94 l10 26 -56 -7 c-32 -4 -63 -9
-71 -12 -7 -3 -13 0 -13 6 0 12 42 35 81 44 46 11 76 43 83 89 14 87 38 173
53 185 11 8 14 22 10 40 -3 18 2 45 13 71 19 43 78 122 90 122 4 0 21 -26 37
-57z m2346 -114 c-61 -143 -168 -348 -225 -431 -33 -48 -63 -88 -67 -88 -3 0
-15 42 -26 93 l-20 92 137 150 c75 83 156 173 179 202 24 28 45 50 47 49 1 -2
-10 -32 -25 -67z m-2742 -26 c-198 -258 -484 -684 -501 -746 -17 -62 -8 -151
19 -206 21 -40 21 -81 1 -81 -20 0 -62 111 -68 181 l-7 71 -35 -47 c-19 -26
-54 -61 -77 -78 -23 -18 -149 -114 -280 -214 -315 -242 -367 -277 -395 -269
-49 12 -158 95 -257 196 -121 123 -149 158 -129 164 85 28 1149 286 1165 283
17 -3 24 2 32 24 8 22 7 29 -3 29 -33 0 -458 483 -439 500 4 4 44 15 88 23 83
17 784 171 845 186 59 15 63 13 41 -16z m11790 -211 c91 -75 236 -195 323
-267 151 -125 156 -130 129 -137 -25 -7 -552 -136 -910 -223 l-133 -32 -228
196 c-298 256 -400 345 -401 351 -1 3 68 20 152 39 83 19 262 61 397 93 135
33 274 66 310 74 36 8 90 20 120 28 30 8 60 14 65 15 6 0 85 -61 176 -137z
m-3511 56 c35 -136 110 -374 162 -513 96 -254 212 -469 359 -663 27 -36 46
-69 42 -72 -5 -4 -127 -37 -273 -74 -146 -36 -389 -100 -542 -141 -152 -41
-285 -75 -295 -75 -20 0 -179 187 -268 315 -80 115 -325 610 -325 657 0 7 12
19 28 26 15 7 97 67 182 133 412 320 634 431 897 448 18 1 24 -7 33 -41z m258
17 c42 -9 163 -46 267 -82 105 -36 235 -81 290 -99 55 -19 129 -41 165 -50
144 -33 134 -27 195 -121 127 -194 263 -361 444 -545 106 -108 113 -117 90
-122 -27 -6 -151 -33 -489 -106 -129 -28 -316 -69 -415 -91 -147 -32 -182 -37
-190 -26 -5 7 -31 40 -56 72 -162 211 -292 470 -400 800 -52 157 -118 383
-113 387 8 9 145 -3 212 -17z m-1575 -363 c48 -100 87 -188 87 -196 0 -15
-139 -108 -260 -173 -89 -49 -227 -99 -296 -108 l-49 -6 30 22 c181 135 298
392 309 679 2 52 4 104 6 115 2 21 21 -17 173 -333z m-7868 141 c72 -86 170
-198 219 -249 57 -61 83 -95 75 -98 -73 -25 -1152 -287 -1163 -283 -13 5 -123
140 -374 459 -29 36 -49 68 -45 71 5 2 44 12 88 21 98 21 587 129 860 190 110
24 202 45 205 45 3 0 64 -70 135 -156z m11486 -31 c37 -31 178 -153 314 -271
136 -117 243 -217 238 -221 -4 -4 -75 -23 -158 -43 -195 -47 -557 -132 -665
-157 -47 -11 -121 -29 -165 -39 l-80 -20 -145 147 c-80 81 -188 201 -241 267
-97 121 -225 303 -218 309 2 2 69 -1 149 -6 80 -5 195 -7 255 -3 112 6 456 55
555 79 85 21 91 20 161 -42z m-8206 -77 l17 -100 -39 -34 c-65 -58 -148 -91
-225 -91 -66 0 -152 24 -193 54 -17 12 -11 17 66 54 96 47 245 143 304 195 22
19 43 32 47 29 3 -4 14 -52 23 -107z m-4560 -86 c33 -42 127 -161 209 -263 81
-103 146 -189 143 -192 -3 -3 -61 -19 -129 -35 -158 -38 -559 -132 -708 -166
-63 -14 -168 -38 -232 -53 -108 -25 -119 -26 -132 -11 -56 63 -396 535 -389
541 4 3 42 14 83 23 41 9 230 50 420 92 190 41 413 91 495 109 83 19 157 33
165 32 8 0 42 -35 75 -77z m14695 -250 c107 -88 252 -208 322 -266 70 -58 132
-110 137 -117 8 -9 -120 -45 -530 -148 l-539 -136 -322 277 c-177 152 -322
280 -321 286 1 5 71 27 155 48 84 20 315 77 513 126 198 49 367 90 375 90 9 1
103 -71 210 -160z m-15791 -213 c111 -148 201 -273 201 -277 0 -7 -101 -33
-350 -88 -74 -16 -247 -55 -385 -86 -404 -91 -468 -105 -476 -105 -8 0 -403
560 -397 564 2 1 143 33 313 70 303 67 820 180 860 189 11 3 23 4 27 3 4 0 97
-122 207 -270z m14626 -32 c88 -75 187 -159 220 -188 33 -29 110 -96 172 -148
l112 -96 -62 -16 c-268 -69 -1021 -256 -1033 -256 -9 0 -37 19 -63 43 -135
119 -502 450 -540 486 -27 25 -41 45 -35 50 5 5 43 16 84 25 41 9 161 36 265
61 105 25 258 61 340 80 83 20 200 48 260 64 61 15 112 29 115 29 3 1 77 -59
165 -134z m-13047 -99 c87 -99 274 -265 298 -265 65 0 -148 -130 -373 -226
-59 -25 -157 -64 -218 -86 -132 -47 -553 -170 -571 -166 -10 3 -119 144 -358
466 -38 51 -66 95 -63 99 4 3 82 23 174 44 401 90 655 149 853 198 85 22 157
39 160 40 3 0 47 -46 98 -104z m11934 -205 c404 -363 458 -413 454 -417 -2 -3
-253 -67 -557 -143 l-553 -138 -31 25 c-16 14 -124 114 -239 222 -211 198
-377 372 -360 378 9 3 295 66 559 123 77 17 228 50 335 74 107 24 198 43 202
42 4 0 89 -75 190 -166z m-13062 -268 c116 -156 210 -285 208 -286 -7 -6 -626
-153 -1103 -262 -60 -14 -115 -27 -122 -29 -12 -4 -417 566 -414 582 1 4 37
16 79 25 42 9 289 65 547 123 511 116 589 133 591 131 1 0 97 -129 214 -284z
m11772 121 c78 -85 284 -287 440 -431 91 -84 133 -129 125 -134 -20 -10 -1094
-278 -1118 -278 -14 0 -98 75 -250 221 -265 257 -387 387 -367 393 136 43
1067 283 1105 285 6 1 36 -25 65 -56z m-10239 11 c13 -5 13 -11 0 -52 -20 -66
-12 -184 17 -238 37 -68 91 -121 138 -133 28 -8 39 -16 36 -25 -3 -8 -49 -54
-102 -103 -206 -189 -445 -324 -779 -439 -61 -22 -113 -37 -116 -34 -5 5 -219
288 -355 468 -47 62 -83 114 -81 115 2 2 60 18 129 36 293 78 602 189 815 292
61 30 117 54 125 55 8 1 42 15 75 32 63 33 74 36 98 26z m3087 -275 c41 -10
102 -26 135 -34 143 -36 287 -75 295 -80 5 -3 14 -22 21 -43 23 -71 149 -372
198 -474 66 -136 133 -247 237 -392 46 -65 83 -121 80 -123 -4 -5 -160 -41
-376 -88 -177 -38 -487 -109 -676 -156 -89 -21 -166 -39 -171 -39 -15 0 -127
194 -202 350 -38 80 -94 213 -124 295 -99 270 -228 719 -211 734 5 4 43 19 84
34 101 35 268 61 350 54 36 -2 73 -2 83 2 22 8 173 -14 277 -40z m6343 -406
l197 -192 -37 -10 c-21 -6 -283 -71 -582 -146 l-544 -137 -151 151 c-83 83
-154 151 -158 151 -3 0 -9 -8 -12 -17 -5 -13 29 -52 131 -155 75 -75 135 -139
133 -141 -3 -2 -268 -70 -590 -151 l-585 -146 -153 155 c-136 139 -180 172
-170 130 2 -7 63 -77 136 -154 85 -90 129 -143 120 -146 -40 -15 -1183 -295
-1193 -293 -6 2 -72 69 -145 151 -74 81 -138 147 -142 147 -5 0 -11 -7 -14
-15 -6 -14 38 -65 220 -262 16 -18 28 -35 25 -37 -2 -2 -69 -21 -149 -41 -80
-20 -162 -41 -184 -46 -34 -9 -36 -12 -20 -23 10 -8 15 -20 11 -30 -9 -22 10
-21 117 9 49 14 91 23 93 21 2 -2 0 -66 -5 -142 -8 -120 -7 -141 7 -151 33
-28 38 -11 46 142 9 177 7 171 65 185 l50 12 64 -68 c55 -59 67 -67 83 -58 30
19 26 39 -22 92 l-45 50 52 15 c29 9 139 36 243 62 105 25 195 48 202 50 12 4
3 -24 -42 -131 -10 -23 -13 -50 -9 -75 6 -35 3 -42 -28 -71 -25 -23 -49 -67
-83 -148 -26 -63 -58 -138 -71 -167 -13 -28 -24 -54 -24 -57 0 -13 -142 -300
-194 -390 -99 -173 -213 -313 -287 -352 l-32 -16 6 38 c14 87 69 844 62 852
-1 2 -14 0 -28 -3 -24 -6 -25 -10 -32 -108 -3 -56 -15 -216 -26 -356 -10 -139
-19 -258 -19 -262 0 -5 -4 -9 -10 -9 -5 0 -10 5 -10 12 0 18 -33 88 -42 88 -4
0 -5 -37 -2 -82 12 -190 13 -178 -12 -178 -30 0 -133 78 -169 129 -16 24 -41
56 -53 72 -24 29 -179 331 -219 424 -12 28 -25 66 -28 86 -4 19 -10 40 -13 46
-7 11 -172 29 -172 18 0 -3 9 -23 20 -45 11 -22 20 -44 20 -50 0 -17 -55 19
-99 65 -34 35 -161 209 -161 220 0 7 103 35 108 30 3 -3 24 -40 47 -82 41 -76
44 -78 86 -84 56 -8 100 11 92 41 -3 13 -14 20 -28 20 -26 0 -35 16 -28 52 3
14 0 41 -5 62 -6 20 -8 36 -6 36 17 0 509 131 515 137 10 11 -8 53 -23 53 -7
0 -193 -45 -412 -100 -220 -55 -405 -100 -412 -100 -16 0 -466 520 -542 627
l-21 30 102 22 c266 59 602 138 1050 248 l69 17 26 -31 c196 -230 246 -283
269 -283 31 0 30 1 -76 124 -117 135 -171 200 -168 202 3 3 488 130 860 225
289 74 321 80 344 68 14 -8 62 -61 107 -118 119 -154 153 -190 175 -184 16 4
4 24 -76 126 -52 67 -112 140 -133 163 l-38 41 156 36 c87 20 294 68 462 107
168 38 351 81 407 95 56 14 113 25 127 25 18 0 56 -34 158 -142 106 -114 139
-144 163 -146 l30 -3 -41 43 c-22 24 -86 93 -142 154 l-101 111 387 96 c213
54 468 119 567 146 l180 48 115 -116 c63 -64 204 -202 313 -308z m-7184 245
c124 -466 284 -868 462 -1163 39 -64 69 -118 67 -120 -2 -2 -64 -19 -138 -38
-74 -20 -229 -61 -345 -92 -115 -31 -248 -67 -295 -80 -47 -13 -173 -46 -280
-75 l-194 -52 -24 29 c-105 128 -417 641 -476 785 l-16 36 48 28 c26 15 72 46
102 68 30 23 80 58 110 79 30 20 76 54 102 74 26 21 90 70 143 108 53 39 156
117 228 173 73 57 167 129 211 159 72 52 253 162 267 163 3 0 16 -37 28 -82z
m-1678 -30 c42 -68 365 -735 358 -742 -13 -13 -220 -125 -319 -173 -130 -62
-338 -145 -480 -191 -149 -48 -409 -122 -429 -122 -11 0 -66 67 -157 192 -76
106 -177 244 -223 307 -46 64 -85 120 -87 126 -2 5 42 25 99 44 236 78 442
178 624 305 57 39 111 76 121 81 23 13 115 87 167 136 42 38 62 44 208 54 26
1 51 6 54 9 16 15 45 3 64 -26z m-1639 -278 c119 -157 217 -288 217 -291 1
-12 -124 -46 -534 -148 -486 -120 -724 -176 -728 -170 -25 32 -417 598 -417
601 0 7 10 10 265 69 533 122 797 185 885 210 36 10 72 17 80 16 8 -1 113
-130 232 -287z m330 -442 c41 -57 143 -197 227 -312 98 -134 149 -211 141
-216 -13 -8 -418 -109 -1000 -249 -197 -47 -271 -63 -275 -59 -28 27 -433 624
-427 629 6 6 165 45 527 129 138 33 559 140 655 168 36 11 68 18 71 16 4 -2
40 -50 81 -106z m1739 -150 c23 -45 60 -112 84 -148 158 -244 260 -397 318
-477 37 -51 67 -97 67 -102 0 -11 40 0 -679 -181 -327 -83 -598 -147 -602
-143 -3 5 -42 58 -86 118 -44 61 -121 166 -172 235 -188 255 -213 291 -207
297 3 4 75 26 158 50 351 100 601 195 858 325 96 49 179 94 185 99 21 20 37 5
76 -73z m3180 -230 c75 -93 128 -156 391 -462 43 -49 77 -91 75 -92 -2 -3
-1243 -314 -1251 -314 -16 0 -536 665 -536 685 0 10 364 100 750 185 102 23
241 54 310 70 69 16 137 29 151 29 21 1 41 -18 110 -101z m-4460 -250 c79
-109 201 -275 322 -438 92 -124 105 -146 90 -152 -10 -4 -128 -34 -263 -67
-135 -33 -420 -103 -634 -155 -214 -53 -390 -96 -391 -96 -1 0 -20 26 -42 58
-22 31 -124 177 -226 324 -103 147 -187 271 -187 275 0 4 159 46 353 92 277
67 915 225 924 230 1 1 25 -32 54 -71z m3170 -50 c73 -101 201 -265 250 -322
134 -158 205 -252 195 -258 -13 -7 -1250 -318 -1263 -318 -5 1 -39 42 -78 92
-38 50 -121 157 -184 237 -186 239 -251 327 -251 338 0 6 46 22 103 37 56 15
257 70 447 122 338 91 678 182 692 183 3 1 43 -50 89 -111z m-1314 -330 c38
-51 154 -201 257 -332 103 -132 183 -243 179 -247 -4 -4 -296 -80 -648 -168
-600 -150 -641 -159 -656 -143 -9 9 -119 157 -244 327 -125 171 -232 315 -237
321 -6 8 137 48 479 133 269 67 553 139 633 161 80 21 150 39 156 39 6 1 43
-41 81 -91z m-1134 -598 c144 -194 230 -317 223 -321 -12 -7 -1297 -329 -1312
-329 -5 0 -30 31 -56 68 -312 448 -428 616 -425 618 2 2 152 40 333 84 181 44
442 108 579 141 138 34 282 69 320 79 69 17 70 17 87 -4 9 -12 123 -163 251
-336z"/>
<path d="M10614 8216 c-3 -8 0 -267 6 -577 l11 -564 22 -17 c21 -16 22 -16 28
5 3 12 2 150 -2 307 -4 157 -10 414 -14 573 -7 273 -9 287 -27 287 -10 0 -21
-6 -24 -14z"/>
<path d="M10637 7023 c-3 -5 1 -257 7 -562 l12 -553 24 -20 c16 -13 26 -16 28
-8 2 6 -1 239 -7 518 -6 279 -11 535 -11 570 0 59 -1 62 -24 62 -14 0 -27 -3
-29 -7z"/>
<path d="M10665 5849 c-4 -6 -5 -107 -4 -224 l4 -214 -33 -34 c-17 -18 -32
-38 -32 -44 0 -34 30 -14 127 85 61 61 142 132 186 160 43 29 72 52 64 52 -15
0 -197 -118 -233 -151 l-21 -20 -6 68 c-4 37 -7 128 -7 201 0 124 -1 132 -19
132 -11 0 -23 -5 -26 -11z"/>
<path d="M11122 5708 c-18 -18 -15 -31 7 -25 22 5 31 -28 56 -208 15 -104 20
-123 42 -143 25 -23 25 -23 4 -29 -20 -5 -21 -10 -16 -67 38 -426 69 -759 86
-931 19 -192 23 -212 45 -236 29 -31 30 -39 4 -39 -16 0 -19 -5 -16 -22 3 -13
12 -68 20 -123 9 -55 23 -124 31 -153 14 -44 19 -52 40 -52 30 0 30 -2 6 96
-40 161 -96 664 -156 1394 -3 36 -10 97 -15 135 -5 39 -14 113 -21 165 -13
109 -31 197 -48 228 -13 24 -50 29 -69 10z"/>
<path d="M9403 5623 c-13 -3 -23 -11 -22 -21 0 -9 21 -268 47 -574 40 -469 50
-561 65 -575 40 -40 41 -52 -28 922 -8 116 -15 220 -15 233 0 22 -4 23 -47 15z"/>
<path d="M424 9576 c-3 -8 -4 -23 -2 -33 3 -17 20 -18 211 -21 l207 -2 0 35 0
35 -205 0 c-170 0 -207 -3 -211 -14z"/>
<path d="M490 9185 c0 -21 5 -25 30 -25 30 0 30 -1 24 -42 -3 -24 -20 -72 -37
-108 -18 -36 -33 -68 -35 -72 -2 -5 12 -8 32 -8 32 0 38 5 56 41 12 23 30 73
40 112 l18 72 45 3 46 3 -10 -33 c-12 -44 -12 -154 1 -179 8 -13 21 -19 45
-19 38 0 42 5 20 34 -17 23 -20 104 -4 159 9 34 13 37 44 37 31 0 35 3 35 25
l0 25 -175 0 -175 0 0 -25z"/>
<path d="M1770 8852 c0 -4 9 -39 20 -77 11 -39 27 -99 36 -135 8 -35 22 -89
30 -118 16 -52 16 -53 51 -50 l36 3 40 137 c23 76 44 135 48 130 4 -4 23 -65
42 -137 l34 -130 36 -3 c35 -3 35 -2 50 50 23 81 77 308 77 324 0 9 -11 14
-33 14 l-33 0 -27 -117 c-15 -65 -27 -127 -27 -137 0 -35 -11 -9 -35 81 -50
191 -41 173 -85 173 -36 0 -40 -3 -48 -32 -5 -18 -24 -84 -42 -146 l-34 -114
-26 119 c-42 188 -36 173 -75 173 -19 0 -35 -3 -35 -8z"/>
<path d="M646 7765 c-9 -13 -34 -35 -56 -47 -31 -18 -40 -29 -40 -50 0 -34 21
-37 68 -8 l32 20 0 -140 0 -140 30 0 30 0 0 195 0 195 -24 0 c-14 0 -30 -10
-40 -25z"/>
<path d="M250 7200 l0 -30 398 2 397 3 3 28 3 27 -400 0 -401 0 0 -30z"/>
<path d="M318 6945 c-27 -15 -55 -76 -43 -95 13 -21 55 -11 65 15 17 45 72 52
106 14 27 -30 10 -62 -72 -135 -77 -69 -104 -107 -104 -144 0 -19 6 -20 130
-20 l130 0 0 30 0 29 -85 3 -86 3 58 48 c83 70 103 101 103 160 0 40 -5 53
-29 78 -26 26 -36 29 -88 29 -32 -1 -70 -7 -85 -15z"/>
<path d="M696 6844 c-11 -28 -7 -34 24 -34 19 0 30 -5 30 -14 0 -41 -27 -126
-52 -164 -15 -24 -28 -45 -28 -48 0 -2 17 -4 38 -4 35 0 40 3 61 44 12 25 27
71 33 103 6 32 12 64 14 71 2 7 21 12 50 12 43 0 46 -1 40 -22 -15 -54 -18
-148 -6 -178 10 -25 18 -30 47 -30 30 0 34 3 28 18 -26 64 -27 76 -15 143 12
69 12 69 45 69 30 0 45 13 45 41 0 5 -75 9 -174 9 -149 0 -175 -2 -180 -16z"/>
<path d="M1111 5127 c-13 -6 -34 -25 -45 -40 -19 -25 -21 -42 -21 -147 0 -105
2 -122 21 -147 l22 -29 -24 -27 c-13 -16 -24 -39 -24 -53 0 -20 5 -24 28 -24
20 0 33 7 42 24 25 48 90 38 90 -13 0 -32 -22 -51 -59 -51 -16 0 -21 -6 -21
-29 0 -27 3 -29 35 -28 42 1 68 -21 68 -59 0 -32 -34 -64 -68 -64 -23 0 -55
28 -55 48 0 7 -15 12 -35 12 -40 0 -44 -13 -20 -59 30 -59 126 -78 186 -38 62
42 76 109 35 169 -21 31 -22 37 -9 54 18 24 11 88 -12 114 -12 13 -13 20 -5
25 49 31 68 219 30 303 -28 62 -101 89 -159 59z m109 -100 c26 -75 4 -209 -37
-219 -53 -14 -83 33 -83 132 0 71 16 119 44 129 30 12 63 -7 76 -42z"/>
<path d="M19690 4412 c-54 -27 -80 -87 -80 -187 0 -101 22 -154 73 -178 96
-46 187 12 187 118 0 60 -23 103 -65 121 -44 18 -69 18 -105 -1 -34 -18 -35
-16 -15 30 18 45 58 62 91 40 13 -8 24 -22 24 -30 0 -10 11 -15 35 -15 40 0
44 13 19 61 -16 31 -66 59 -106 59 -13 0 -39 -8 -58 -18z m103 -204 c38 -44 6
-111 -53 -111 -22 0 -38 7 -51 24 -58 75 42 159 104 87z"/>
<path d="M1505 4156 c-41 -18 -57 -39 -58 -78 -2 -29 1 -33 25 -36 22 -3 29 2
34 22 11 46 101 55 118 11 13 -34 4 -48 -89 -138 -81 -79 -95 -98 -95 -125 l0
-32 130 0 130 0 0 30 0 30 -87 0 -88 0 72 68 c39 37 76 77 82 89 16 32 13 95
-5 122 -32 46 -110 63 -169 37z"/>
<path d="M18496 4036 c-10 -52 -15 -100 -11 -105 10 -16 46 -13 67 6 27 24 77
21 100 -6 33 -41 22 -93 -24 -117 -27 -14 -32 -14 -55 1 -14 10 -28 26 -30 36
-4 13 -14 19 -34 19 -26 0 -29 -4 -29 -31 0 -22 9 -40 31 -60 26 -25 39 -29
85 -29 91 0 134 45 134 141 0 45 -4 55 -35 86 -32 32 -39 35 -85 31 -41 -2
-50 0 -50 14 0 42 10 48 81 48 l69 0 0 30 0 30 -98 0 -98 0 -18 -94z"/>
<path d="M17386 3727 c-66 -87 -86 -121 -86 -145 l0 -32 80 0 80 0 0 -45 c0
-45 0 -45 35 -45 35 0 35 0 35 45 0 38 3 45 20 45 16 0 20 7 20 30 0 23 -4 30
-20 30 -19 0 -20 7 -20 115 l0 115 -29 0 c-25 0 -40 -15 -115 -113z"/>
<path d="M16181 3523 c-17 -16 -33 -40 -37 -55 -6 -26 -4 -28 28 -28 25 0 36
6 43 23 18 41 95 31 95 -13 0 -23 -31 -50 -58 -50 -18 0 -22 -6 -22 -31 0 -28
3 -31 24 -25 30 7 76 -27 76 -58 0 -30 -35 -66 -65 -66 -23 0 -65 34 -65 52 0
4 -13 8 -30 8 -25 0 -30 -4 -30 -23 0 -49 60 -97 120 -97 44 0 93 23 113 53
24 37 23 115 -3 142 -19 20 -19 23 -4 54 14 28 15 40 5 72 -14 47 -51 69 -115
69 -36 0 -52 -6 -75 -27z"/>
<path d="M1992 3520 c-6 -11 -30 -32 -52 -46 -31 -21 -40 -33 -40 -55 0 -34
11 -36 56 -8 l34 21 0 -136 0 -136 30 0 30 0 0 190 0 190 -23 0 c-12 0 -28 -9
-35 -20z"/>
<path d="M1024 3349 c-16 -17 -41 -37 -56 -45 -21 -11 -28 -22 -28 -44 0 -35
13 -37 58 -10 l32 20 0 -140 0 -140 30 0 30 0 0 195 c0 182 -1 195 -18 195
-10 0 -31 -14 -48 -31z"/>
<path d="M14993 3236 c-31 -14 -63 -60 -63 -90 0 -19 52 -35 58 -18 9 29 46
62 68 62 24 0 64 -31 64 -51 0 -24 -27 -58 -107 -134 -71 -68 -83 -85 -83
-112 l0 -33 130 0 130 0 0 30 0 30 -87 0 -88 0 68 61 c78 70 97 102 97 158 0
61 -41 102 -106 107 -29 3 -62 -1 -81 -10z"/>
<path d="M13842 2920 c-6 -11 -30 -32 -52 -46 -31 -21 -40 -33 -40 -55 0 -34
13 -36 58 -9 l32 20 0 -140 0 -140 30 0 30 0 0 195 0 195 -23 0 c-12 0 -28 -9
-35 -20z"/>
<path d="M2381 2877 c-51 -26 -66 -61 -69 -164 -4 -105 13 -171 51 -198 12 -9
43 -15 73 -15 94 0 124 47 124 197 0 106 -20 160 -66 179 -41 17 -81 18 -113
1z m95 -68 c16 -18 19 -37 19 -114 0 -77 -3 -96 -19 -114 -24 -27 -58 -27 -82
0 -27 30 -28 182 -1 222 21 33 56 35 83 6z"/>
<path d="M630 2790 l0 -30 400 0 400 0 0 30 0 30 -400 0 -400 0 0 -30z"/>
<path d="M12529 2607 c-9 -7 -24 -28 -35 -47 -27 -50 -27 -209 0 -263 32 -65
109 -86 173 -47 75 45 86 270 17 345 -20 21 -32 25 -81 25 -32 0 -65 -6 -74
-13z m101 -55 c28 -23 42 -102 31 -174 -8 -48 -36 -88 -61 -88 -4 0 -18 8 -30
18 -28 23 -42 102 -31 174 8 48 36 88 61 88 4 0 18 -8 30 -18z"/>
<path d="M723 2545 c-63 -27 -86 -107 -32 -113 21 -2 28 2 33 23 8 31 46 48
80 35 31 -11 46 -39 36 -65 -8 -21 -88 -103 -128 -130 -24 -17 -62 -84 -62
-110 0 -13 20 -15 130 -15 l130 0 0 30 0 30 -85 0 -86 0 69 59 c71 61 102 109
102 156 0 87 -97 140 -187 100z"/>
<path d="M1080 2425 c0 -21 5 -25 30 -25 34 0 34 3 16 -70 -15 -62 -37 -110
-60 -129 -26 -22 -19 -31 23 -31 38 0 41 2 66 54 15 30 32 82 38 115 l12 61
47 0 47 0 -10 -32 c-12 -44 -12 -155 1 -179 8 -13 21 -19 45 -19 38 0 42 5 20
34 -17 23 -20 104 -4 159 9 34 13 37 44 37 31 0 35 3 35 25 l0 25 -175 0 -175
0 0 -25z"/>
<path d="M3046 2195 c-9 -13 -34 -35 -56 -47 -34 -19 -40 -28 -40 -55 0 -39 3
-40 58 -8 l42 24 0 -140 0 -139 30 0 30 0 0 195 0 195 -24 0 c-14 0 -30 -10
-40 -25z"/>
<path d="M2166 2043 c-3 -4 -24 -6 -46 -5 l-40 3 0 -191 0 -190 30 0 c30 0 30
1 30 53 l0 52 49 -3 c27 -2 59 1 71 8 84 45 80 238 -6 270 -29 12 -78 13 -88
3z m73 -79 c58 -74 -12 -192 -75 -129 -45 45 -19 155 36 155 10 0 28 -12 39
-26z"/>
<path d="M12424 1879 c-27 -28 -29 -36 -29 -109 0 -73 2 -81 29 -109 33 -35
86 -49 122 -32 24 11 24 10 24 -49 l0 -60 35 0 35 0 0 194 0 194 -94 1 c-91 0
-94 0 -122 -30z m130 -51 c23 -33 21 -103 -4 -128 -27 -27 -55 -25 -79 6 -43
54 -18 144 39 144 18 0 34 -8 44 -22z"/>
<path d="M9780 1730 l0 -30 130 0 130 0 0 30 0 30 -130 0 -130 0 0 -30z"/>
<path d="M8828 1634 c-28 -15 -58 -61 -58 -89 0 -27 58 -19 71 9 14 31 47 40
76 20 41 -26 26 -65 -30 -79 -15 -4 -27 -11 -27 -15 0 -5 -3 -15 -6 -24 -5
-13 1 -16 30 -16 36 0 76 -30 76 -58 0 -69 -109 -93 -126 -27 -5 21 -12 25
-33 23 -34 -4 -40 -44 -11 -81 47 -60 152 -58 204 4 36 43 36 112 1 149 -23
24 -24 28 -10 40 20 16 20 84 -1 115 -28 43 -105 57 -156 29z"/>
<path d="M3442 1494 c-24 -17 -52 -64 -52 -89 0 -10 10 -15 30 -15 23 0 33 6
40 25 17 46 104 46 116 0 8 -33 -17 -71 -84 -128 -68 -58 -102 -104 -102 -139
l0 -28 130 0 130 0 0 35 0 35 -81 0 -82 0 77 73 76 74 0 57 c0 50 -4 61 -29
87 -26 25 -37 29 -88 29 -37 0 -67 -6 -81 -16z"/>
<path d="M8470 1400 l0 -30 130 0 130 0 0 30 0 30 -130 0 -130 0 0 -30z"/>
<path d="M1403 1295 c-3 -9 -25 -29 -49 -46 -35 -24 -44 -36 -44 -59 0 -36 0
-36 50 -10 l40 20 0 -135 0 -135 30 0 30 0 0 190 0 190 -25 0 c-14 0 -28 -7
-32 -15z"/>
<path d="M7542 1243 c-27 -38 -66 -88 -86 -113 -27 -34 -36 -55 -36 -82 l0
-38 80 0 80 0 0 -40 c0 -38 2 -40 30 -40 28 0 30 2 30 40 0 36 3 40 25 40 21
0 25 5 25 30 0 25 -4 30 -25 30 l-25 0 0 120 c0 119 0 120 -24 120 -17 0 -36
-17 -74 -67z"/>
<path d="M6096 866 c-10 -52 -15 -100 -11 -105 10 -16 46 -13 67 6 21 19 71
22 91 4 22 -18 30 -60 17 -92 -22 -53 -103 -55 -116 -2 -5 17 -13 23 -35 23
-37 0 -45 -19 -25 -58 23 -45 54 -62 111 -62 89 0 134 46 135 139 0 47 -4 57
-34 87 -30 30 -40 34 -85 34 -52 0 -59 7 -45 44 5 12 21 16 75 16 l69 0 0 30
0 30 -98 0 -98 0 -18 -94z"/>
<path d="M3942 764 c-22 -15 -52 -63 -52 -84 0 -5 15 -10 33 -10 23 0 35 6 42
22 14 30 48 40 74 22 42 -30 18 -84 -38 -84 -17 0 -21 -6 -21 -31 0 -27 3 -31
22 -26 22 6 57 -8 70 -27 16 -23 8 -65 -14 -80 -35 -24 -65 -20 -90 14 -28 38
-78 43 -78 7 0 -74 112 -122 191 -82 36 19 69 70 69 108 0 32 -24 83 -42 89
-8 3 -7 11 5 28 31 45 14 110 -34 136 -37 19 -109 18 -137 -2z"/>
<path d="M1190 720 l0 -30 211 0 210 0 -3 28 -3 27 -207 3 -208 2 0 -30z"/>
<path d="M5780 720 l0 -30 130 0 130 0 0 30 0 30 -130 0 -130 0 0 -30z"/>
<path d="M830 680 l0 -30 130 0 130 0 0 30 0 30 -130 0 -130 0 0 -30z"/>
<path d="M4764 604 c-17 -8 -42 -34 -55 -57 -20 -36 -24 -55 -24 -132 0 -131
34 -182 128 -192 124 -12 186 153 89 240 -28 26 -84 32 -121 14 -29 -15 -31
-14 -31 3 0 23 39 68 60 71 36 4 51 -3 62 -26 14 -32 68 -36 68 -5 0 78 -96
124 -176 84z m87 -184 c6 0 16 -14 23 -32 39 -92 -79 -145 -122 -55 -12 24
-11 31 3 53 18 27 52 45 73 38 8 -2 18 -4 23 -4z"/>
<path d="M4400 370 l0 -30 130 0 130 0 0 30 0 30 -130 0 -130 0 0 -30z"/>
<path d="M1256 364 c-11 -28 -7 -34 24 -34 26 0 30 -4 30 -26 0 -43 -22 -106
-52 -151 -15 -23 -28 -44 -28 -47 0 -3 17 -6 38 -6 35 0 40 4 60 43 12 24 29
76 38 115 l16 72 45 0 c42 0 45 -2 39 -22 -15 -54 -18 -137 -6 -172 10 -32 15
-36 47 -36 30 0 34 3 27 18 -12 26 -17 118 -9 168 6 42 8 44 40 44 31 0 45 13
45 41 0 5 -75 9 -174 9 -149 0 -175 -2 -180 -16z"/>
</g>
</svg>
