<?xml version="1.0" standalone="no"?>
<!DOCTYPE svg PUBLIC "-//W3C//DTD SVG 20010904//EN"
 "http://www.w3.org/TR/2001/REC-SVG-20010904/DTD/svg10.dtd">
<svg version="1.0" xmlns="http://www.w3.org/2000/svg"
 width="486.000000pt" height="500.000000pt" viewBox="0 0 486.000000 500.000000"
 preserveAspectRatio="xMidYMid meet">

<g transform="translate(0.000000,500.000000) scale(0.100000,-0.100000)"
fill="#000000" stroke="none">
<path d="M0 2500 l0 -2500 2430 0 2430 0 0 2500 0 2500 -2430 0 -2430 0 0
-2500z m2134 2396 c125 -34 220 -57 291 -71 33 -7 101 -23 150 -35 222 -56
394 -97 640 -155 61 -14 144 -34 185 -45 41 -11 91 -22 110 -26 19 -3 67 -14
105 -24 39 -10 118 -30 178 -44 59 -14 153 -37 210 -50 56 -14 161 -39 232
-56 72 -17 164 -39 205 -49 41 -10 139 -34 217 -52 l143 -34 0 -1622 0 -1622
-80 -40 c-44 -22 -80 -37 -80 -34 0 4 -10 -3 -23 -15 -13 -12 -27 -19 -30 -15
-4 3 -7 2 -7 -4 0 -10 -52 -27 -78 -26 -7 1 -11 -1 -8 -4 9 -9 -77 -51 -93
-45 -8 3 -12 1 -8 -4 7 -13 -201 -117 -215 -108 -6 4 -8 3 -5 -3 7 -11 -60
-46 -73 -38 -5 3 -12 0 -16 -6 -5 -8 -3 -9 6 -4 9 5 11 4 6 -3 -4 -7 -12 -12
-18 -12 -5 0 -46 -18 -90 -40 -43 -22 -84 -37 -90 -34 -6 4 -8 3 -5 -3 3 -5
-44 -34 -106 -63 -62 -30 -125 -63 -141 -74 -16 -11 -36 -20 -45 -21 -9 -1
-53 -20 -99 -44 -46 -23 -88 -39 -95 -35 -7 4 -8 3 -4 -1 4 -5 -58 -42 -138
-82 -108 -54 -150 -71 -163 -64 -9 5 -26 5 -37 0 l-20 -8 20 -1 c11 -2 27 -1
35 0 28 3 -4 -17 -80 -51 -41 -18 -93 -44 -115 -57 l-39 -25 -71 17 c-38 9
-115 28 -170 41 -55 13 -147 35 -205 49 -224 53 -368 88 -440 106 -41 11 -91
22 -110 26 -19 3 -66 14 -105 24 -38 10 -119 30 -180 45 -60 14 -166 39 -235
56 -161 39 -298 72 -435 104 -101 23 -179 42 -370 90 -38 10 -90 22 -115 27
-25 6 -88 20 -140 33 -52 13 -122 30 -155 37 l-60 14 0 1624 0 1624 105 52
c58 29 310 154 560 277 250 124 635 315 855 425 220 110 411 201 424 201 14 1
66 -10 115 -23z"/>
<path d="M1705 4510 c-3 -5 -1 -10 4 -10 6 0 11 5 11 10 0 6 -2 10 -4 10 -3 0
-8 -4 -11 -10z"/>
<path d="M1607 4459 c7 -7 15 -10 18 -7 3 3 -2 9 -12 12 -14 6 -15 5 -6 -5z"/>
<path d="M1280 4305 c-14 -8 -20 -14 -15 -14 6 0 21 6 35 14 14 8 21 14 15 14
-5 0 -21 -6 -35 -14z"/>
<path d="M1360 4310 c0 -5 7 -7 15 -4 8 4 15 8 15 10 0 2 -7 4 -15 4 -8 0 -15
-4 -15 -10z"/>
<path d="M2338 3938 c2 -224 -1 -345 -8 -352 -13 -13 -13 -26 1 -26 5 0 8 4 4
9 -3 5 -1 12 4 16 10 5 51 -3 241 -50 165 -40 184 -41 254 -7 225 110 436 212
591 287 258 124 285 138 282 142 -2 1 -28 7 -58 13 -30 5 -88 19 -129 29 -41
11 -124 32 -185 46 -454 108 -687 163 -835 200 -52 13 -111 26 -130 29 l-35 6
3 -342z"/>
<path d="M1130 4230 c-9 -6 -10 -10 -3 -10 6 0 15 5 18 10 8 12 4 12 -15 0z"/>
<path d="M1775 4230 c-3 -5 -1 -10 4 -10 6 0 11 5 11 10 0 6 -2 10 -4 10 -3 0
-8 -4 -11 -10z"/>
<path d="M1680 4181 c0 -5 8 -15 18 -22 15 -12 16 -12 5 2 -7 9 -10 19 -6 22
3 4 1 7 -5 7 -7 0 -12 -4 -12 -9z"/>
<path d="M1717 4169 c10 -13 4 -19 -43 -42 -30 -15 -61 -24 -67 -21 -7 4 -9 4
-5 -1 10 -11 -60 -47 -74 -39 -7 4 -8 3 -4 -4 8 -14 -40 -36 -56 -26 -6 4 -8
2 -5 -3 10 -16 -23 -25 -39 -12 -11 9 -18 8 -29 -1 -16 -13 -10 -35 6 -24 5 3
6 10 3 16 -4 6 -1 9 5 7 23 -8 16 -22 -16 -36 -29 -12 -32 -11 -27 5 4 12 2
12 -7 -3 -18 -30 -19 -31 -29 -15 -8 13 -10 12 -10 -2 0 -10 -20 -26 -55 -42
-31 -14 -57 -24 -59 -23 -1 1 -11 -4 -20 -12 -15 -13 -19 -13 -27 0 -5 8 -9 9
-9 3 0 -15 21 -31 40 -31 8 0 60 -12 115 -26 55 -14 152 -37 215 -52 122 -29
224 -53 253 -61 16 -5 17 10 17 225 0 127 -3 231 -6 231 -3 0 -14 -5 -25 -11
-15 -8 -25 -7 -37 3 -15 11 -15 11 -5 -3z"/>
<path d="M972 4151 c-11 -7 -11 -9 0 -14 9 -3 15 1 15 9 0 8 -1 14 -1 14 -1 0
-7 -4 -14 -9z"/>
<path d="M1640 4145 c-11 -13 -10 -14 4 -9 9 3 16 10 16 15 0 13 -6 11 -20 -6z"/>
<path d="M860 4100 c-9 -6 -10 -10 -3 -10 6 0 15 5 18 10 8 12 4 12 -15 0z"/>
<path d="M1535 4100 c3 -5 8 -10 11 -10 2 0 4 5 4 10 0 6 -5 10 -11 10 -5 0
-7 -4 -4 -10z"/>
<path d="M1205 3949 c7 -11 35 -12 35 -1 0 4 -9 8 -20 9 -11 1 -18 -2 -15 -8z"/>
<path d="M958 3933 c7 -3 16 -2 19 1 4 3 -2 6 -13 5 -11 0 -14 -3 -6 -6z"/>
<path d="M3835 3760 c3 -5 8 -10 11 -10 2 0 4 5 4 10 0 6 -5 10 -11 10 -5 0
-7 -4 -4 -10z"/>
<path d="M4226 3628 c3 -5 10 -6 15 -3 13 9 11 12 -6 12 -8 0 -12 -4 -9 -9z"/>
<path d="M4167 3609 c7 -7 15 -10 18 -7 3 3 -2 9 -12 12 -14 6 -15 5 -6 -5z"/>
<path d="M4182 3558 c-45 -26 -55 -28 -70 -16 -15 11 -15 11 -5 -2 10 -13 -4
-23 -90 -66 -109 -54 -179 -87 -187 -89 -3 0 -42 -20 -88 -43 -46 -23 -88 -39
-94 -36 -6 4 -9 3 -5 -2 3 -5 -26 -26 -64 -45 -38 -20 -69 -32 -69 -26 0 6 -8
3 -18 -6 -10 -10 -26 -17 -36 -17 -9 0 -14 -4 -11 -10 6 -9 -10 -14 -42 -13
-7 1 -11 -3 -8 -7 6 -10 -44 -32 -57 -24 -6 4 -8 3 -5 -3 3 -5 -42 -34 -101
-63 -59 -29 -111 -58 -115 -64 -6 -8 -10 -7 -14 2 -2 6 -12 12 -21 11 -9 0
-12 -2 -7 -5 7 -3 9 -209 8 -597 -1 -325 2 -602 7 -613 6 -15 21 -24 47 -28
21 -3 83 -17 138 -31 99 -24 200 -48 425 -100 63 -15 149 -36 190 -46 162 -40
332 -79 346 -79 12 0 14 145 14 1025 0 564 -3 1024 -7 1024 -5 -1 -32 -15 -61
-31z"/>
<path d="M4070 3550 c-9 -6 -10 -10 -3 -10 6 0 15 5 18 10 8 12 4 12 -15 0z"/>
<path d="M4005 3539 c-11 -16 -1 -19 13 -3 7 8 8 14 3 14 -5 0 -13 -5 -16 -11z"/>
<path d="M3358 3533 c7 -3 16 -2 19 1 4 3 -2 6 -13 5 -11 0 -14 -3 -6 -6z"/>
<path d="M4055 3521 c-11 -5 -24 -6 -29 -3 -5 3 -6 0 -2 -6 9 -16 18 -15 42 3
21 16 19 17 -11 6z"/>
<path d="M3920 3465 c0 -9 6 -12 15 -9 8 4 15 7 15 9 0 2 -7 5 -15 9 -9 3 -15
0 -15 -9z"/>
<path d="M3861 3444 c0 -11 3 -14 6 -6 3 7 2 16 -1 19 -3 4 -6 -2 -5 -13z"/>
<path d="M620 2411 c0 -734 3 -1021 11 -1021 6 0 102 45 212 99 111 55 370
182 575 282 l372 183 0 601 0 600 -112 29 c-62 15 -160 39 -218 53 -58 13
-150 35 -205 48 -55 13 -152 36 -215 51 -63 14 -151 35 -195 47 -44 11 -100
23 -125 27 -25 5 -57 11 -72 15 l-28 7 0 -1021z"/>
<path d="M2886 3305 c-11 -8 -17 -17 -14 -20 2 -3 15 4 28 15 26 23 15 27 -14
5z"/>
<path d="M2920 3290 c-9 -6 -10 -10 -3 -10 6 0 15 5 18 10 8 12 4 12 -15 0z"/>
<path d="M3365 3220 c-5 -8 52 -6 60 2 3 2 -9 5 -25 5 -17 0 -33 -3 -35 -7z"/>
<path d="M3204 3138 c-4 -6 -3 -8 4 -5 5 4 17 4 26 1 14 -5 14 -9 4 -22 -12
-14 -11 -14 9 -1 l23 14 -23 12 c-28 16 -34 16 -43 1z"/>
<path d="M3040 3069 c0 -5 9 -9 20 -9 11 0 20 2 20 4 0 2 -9 6 -20 9 -11 3
-20 1 -20 -4z"/>
<path d="M3120 3075 c0 -7 30 -13 34 -7 3 4 -4 9 -15 9 -10 1 -19 0 -19 -2z"/>
<path d="M2340 2517 c0 -380 -3 -516 -12 -519 -6 -2 27 -14 73 -26 46 -12 94
-24 107 -28 l22 -6 0 526 c0 289 -3 526 -7 526 -14 0 -150 30 -167 36 -15 6
-16 -41 -16 -509z"/>
<path d="M3065 2480 c0 -289 1 -407 2 -262 2 144 2 380 0 525 -1 144 -2 26 -2
-263z"/>
<path d="M594 2720 c0 -69 1 -97 3 -62 2 34 2 90 0 125 -2 34 -3 6 -3 -63z"/>
<path d="M2135 1900 c-3 -5 -2 -10 4 -10 5 0 13 5 16 10 3 6 2 10 -4 10 -5 0
-13 -4 -16 -10z"/>
<path d="M3028 1863 c7 -3 16 -2 19 1 4 3 -2 6 -13 5 -11 0 -14 -3 -6 -6z"/>
<path d="M3055 1850 c-3 -5 -1 -10 4 -10 6 0 11 5 11 10 0 6 -2 10 -4 10 -3 0
-8 -4 -11 -10z"/>
<path d="M1980 1790 c-9 -6 -10 -10 -3 -10 6 0 15 5 18 10 8 12 4 12 -15 0z"/>
<path d="M1790 1660 c8 -5 20 -10 25 -10 6 0 3 5 -5 10 -8 5 -19 10 -25 10 -5
0 -3 -5 5 -10z"/>
<path d="M1598 1593 c7 -3 16 -2 19 1 4 3 -2 6 -13 5 -11 0 -14 -3 -6 -6z"/>
<path d="M2066 1464 c-27 -14 -55 -23 -63 -20 -8 3 -12 2 -9 -3 8 -12 -532
-283 -547 -275 -7 4 -9 4 -5 -1 10 -11 -61 -48 -79 -41 -8 3 -11 1 -8 -4 3 -5
-12 -18 -35 -30 -22 -11 -40 -17 -40 -13 0 5 -4 3 -8 -4 -4 -6 -32 -23 -62
-37 l-54 -25 28 -11 c15 -5 35 -10 44 -10 15 0 119 -24 347 -81 44 -11 94 -22
110 -25 17 -3 71 -16 120 -28 50 -13 108 -27 130 -31 22 -3 72 -15 110 -25 39
-10 124 -31 190 -46 66 -15 159 -38 208 -50 l87 -22 -2 356 c-2 278 -6 356
-15 355 -7 -2 -50 8 -96 21 -45 13 -99 27 -120 30 -20 3 -69 15 -109 26 -40
11 -73 20 -73 20 0 0 -22 -12 -49 -26z"/>
<path d="M1925 1470 c-3 -6 1 -7 9 -4 18 7 21 14 7 14 -6 0 -13 -4 -16 -10z"/>
<path d="M1854 1388 c-4 -5 -3 -12 0 -15 3 -4 6 -1 6 6 0 7 4 10 9 6 5 -3 12
-2 15 3 3 5 -2 9 -10 9 -8 0 -17 -4 -20 -9z"/>
<path d="M3077 1195 c2 -33 4 -135 5 -227 3 -147 1 -165 -12 -155 -13 10 -13
10 -2 -4 10 -13 10 -18 -1 -28 -8 -6 -17 -8 -20 -4 -4 3 -7 1 -7 -5 0 -17 7
-15 43 11 18 13 88 51 157 85 69 34 199 98 290 142 91 45 166 85 168 89 1 4
-26 15 -60 23 -35 8 -103 26 -153 38 -49 12 -110 26 -135 30 -25 5 -79 17
-120 28 -41 11 -93 24 -115 29 l-40 9 2 -61z"/>
<path d="M3055 1040 c0 -114 3 -206 8 -203 4 2 7 94 7 203 0 109 -3 201 -7
203 -5 3 -8 -89 -8 -203z"/>
<path d="M4495 1220 c-3 -5 -1 -10 4 -10 6 0 11 5 11 10 0 6 -2 10 -4 10 -3 0
-8 -4 -11 -10z"/>
<path d="M1313 1146 c0 -8 6 -12 14 -9 7 3 10 9 7 14 -8 14 -21 11 -21 -5z"/>
<path d="M1385 1150 c-16 -7 -17 -9 -3 -9 9 -1 20 4 23 9 7 11 7 11 -20 0z"/>
<path d="M1215 1071 c3 -2 0 -10 -6 -17 -8 -10 -2 -9 20 2 37 19 38 20 6 20
-13 0 -22 -2 -20 -5z"/>
<path d="M450 1060 c-8 -5 -10 -10 -5 -10 6 0 17 5 25 10 8 5 11 10 5 10 -5 0
-17 -5 -25 -10z"/>
<path d="M4100 1020 c-8 -5 -10 -10 -5 -10 6 0 17 5 25 10 8 5 11 10 5 10 -5
0 -17 -5 -25 -10z"/>
<path d="M4641 986 c2 -2 15 -9 29 -15 24 -11 24 -11 6 3 -16 13 -49 24 -35
12z"/>
<path d="M3970 956 c0 -2 7 -7 16 -10 8 -3 12 -2 9 4 -6 10 -25 14 -25 6z"/>
<path d="M4600 950 c0 -5 5 -10 10 -10 6 0 10 5 10 10 0 6 -4 10 -10 10 -5 0
-10 -4 -10 -10z"/>
<path d="M3927 939 c7 -7 15 -10 18 -7 3 3 -2 9 -12 12 -14 6 -15 5 -6 -5z"/>
<path d="M4550 915 c-7 -9 -8 -15 -2 -15 5 0 12 7 16 15 3 8 4 15 2 15 -2 0
-9 -7 -16 -15z"/>
<path d="M4479 907 c5 -5 17 -5 28 2 16 9 15 10 -9 9 -16 -2 -24 -6 -19 -11z"/>
<path d="M3703 833 c-15 -5 -17 -23 -4 -23 5 0 11 7 15 15 3 8 4 15 3 14 -1 0
-8 -3 -14 -6z"/>
<path d="M4360 829 c0 -7 -10 -9 -24 -5 -20 5 -24 2 -23 -12 1 -17 4 -17 26
-6 13 7 28 11 33 8 4 -3 5 2 2 10 -7 19 -14 21 -14 5z"/>
<path d="M4270 769 c0 -5 5 -7 10 -4 6 3 10 8 10 11 0 2 -4 4 -10 4 -5 0 -10
-5 -10 -11z"/>
<path d="M4160 746 c0 -2 7 -7 16 -10 8 -3 12 -2 9 4 -6 10 -25 14 -25 6z"/>
<path d="M3520 730 c0 -5 5 -10 10 -10 6 0 10 5 10 10 0 6 -4 10 -10 10 -5 0
-10 -4 -10 -10z"/>
<path d="M3570 730 c0 -5 5 -10 10 -10 6 0 10 5 10 10 0 6 -4 10 -10 10 -5 0
-10 -4 -10 -10z"/>
<path d="M3435 700 c-3 -6 1 -7 9 -4 18 7 21 14 7 14 -6 0 -13 -4 -16 -10z"/>
<path d="M3990 639 c0 -5 5 -7 10 -4 6 3 10 8 10 11 0 2 -4 4 -10 4 -5 0 -10
-5 -10 -11z"/>
<path d="M3295 630 c-3 -6 1 -7 9 -4 18 7 21 14 7 14 -6 0 -13 -4 -16 -10z"/>
<path d="M3360 629 c0 -5 5 -7 10 -4 6 3 10 8 10 11 0 2 -4 4 -10 4 -5 0 -10
-5 -10 -11z"/>
<path d="M3839 563 c-13 -16 -12 -17 3 -5 9 8 22 11 28 7 5 -3 10 -1 10 4 0
17 -26 13 -41 -6z"/>
<path d="M3670 510 c-12 -8 -10 -10 8 -10 13 0 20 4 17 10 -7 12 -6 12 -25 0z"/>
<path d="M3545 432 c-13 -9 -17 -32 -6 -32 9 0 24 30 18 36 -1 2 -7 0 -12 -4z"/>
<path d="M3588 433 c7 -3 16 -2 19 1 4 3 -2 6 -13 5 -11 0 -14 -3 -6 -6z"/>
<path d="M3367 345 c3 -8 9 -12 14 -9 12 7 11 11 -5 17 -10 4 -13 1 -9 -8z"/>
<path d="M2906 112 c-3 -5 1 -9 9 -9 8 0 15 4 15 9 0 4 -4 8 -9 8 -6 0 -12 -4
-15 -8z"/>
</g>
</svg>
