<svg version="1.1" id="Layer_1" xmlns="http://www.w3.org/2000/svg" xmlns:xlink="http://www.w3.org/1999/xlink" x="0px" y="0px"
	 width="100%" viewBox="0 0 486 500" enable-background="new 0 0 486 500" xml:space="preserve">
<path fill="#010103" opacity="1.000000" stroke="none" 
	d="
M487.000000,401.000000 
	C487.000000,434.318573 487.000000,467.637177 487.000000,500.977875 
	C325.086456,500.977875 163.172913,500.977875 1.000000,500.977875 
	C1.000000,368.645355 1.000000,236.290527 1.370915,103.473373 
	C3.804989,103.551521 5.868147,104.091995 7.878404,104.977814 
	C7.742855,105.540909 7.660210,105.758644 7.241099,106.042419 
	C5.975892,107.202209 5.047151,108.295944 4.118411,109.389687 
	C5.269245,109.937363 6.420076,110.485039 7.669548,111.489639 
	C7.773751,212.129257 7.780026,312.311951 7.776090,412.494629 
	C7.776044,413.653229 7.643715,414.811798 7.276892,416.027405 
	C4.191824,417.848206 4.878538,419.089996 7.666123,420.447144 
	C7.702369,422.565826 7.645710,424.267609 7.267480,425.976318 
	C5.927827,426.363831 4.909745,426.744446 4.027598,427.074219 
	C7.973590,434.007416 14.399038,433.044434 20.941708,432.717407 
	C22.180201,432.878418 23.070751,433.114685 23.957237,433.692413 
	C24.638464,435.358185 25.323755,436.682495 25.886282,438.056519 
	C25.840033,438.067780 25.916548,438.029358 26.394022,437.990662 
	C29.043224,436.766693 32.787136,440.892822 34.411064,435.971130 
	C68.878525,444.055695 102.937614,452.144440 137.132599,460.419800 
	C137.504700,460.833984 137.786545,460.938782 138.069046,460.949158 
	C138.024094,460.977417 138.078613,460.886292 138.055038,461.255798 
	C138.293686,462.497467 138.587387,464.136200 138.813416,464.126892 
	C142.201050,463.987823 145.579742,463.631439 149.300354,463.362823 
	C150.076035,463.506622 150.511917,463.613800 150.970459,463.896515 
	C151.322189,464.075775 151.651245,464.079529 152.322906,464.092682 
	C153.113159,464.185455 153.560791,464.268799 154.171051,464.535156 
	C154.333649,464.718170 154.786102,464.905060 154.786102,464.905060 
	C154.786102,464.905060 155.274338,464.869354 155.665268,464.912170 
	C163.030594,466.718384 170.004990,468.481750 177.053436,470.618835 
	C180.642471,471.573822 184.157455,472.155029 187.902435,472.692657 
	C188.450134,472.683990 188.739609,472.793518 189.073456,473.142822 
	C189.429581,473.245300 189.713074,473.182617 190.366974,473.120239 
	C192.147781,473.548645 193.558212,473.976807 194.965637,474.753571 
	C195.209122,477.000031 195.455566,478.897919 195.861053,482.020355 
	C199.099106,480.030426 201.629578,478.475311 204.377289,476.916931 
	C204.594528,476.913605 205.001709,477.065369 205.150269,477.369354 
	C207.423920,481.609406 210.098846,481.355713 213.503586,478.649750 
	C227.253998,481.850952 240.575836,485.159393 253.931244,488.326202 
	C264.880463,490.922485 275.869659,493.350159 287.215363,495.914215 
	C313.479218,483.323730 339.371643,470.677307 365.256897,458.016266 
	C373.517426,453.975891 381.758881,449.896606 390.057312,446.186096 
	C391.945618,447.274872 393.785706,448.012695 396.874969,449.251434 
	C396.096222,445.933472 395.768005,444.535065 395.588196,443.002197 
	C395.975403,442.722656 396.233063,442.669983 396.843628,442.870728 
	C399.708527,444.410370 400.027039,442.907379 400.180542,440.639709 
	C401.445984,439.863892 402.486298,439.343628 403.529541,438.829285 
	C424.074738,428.698761 444.612671,418.553467 465.170990,408.449646 
	C470.383636,405.887756 475.661255,403.458099 481.344116,400.976440 
	C483.519440,400.990143 485.259735,400.995087 487.000000,401.000000 
M129.105194,463.237518 
	C129.178146,463.283081 129.251099,463.328644 129.324051,463.374207 
	C129.213562,463.251343 129.103058,463.128479 128.893906,462.761230 
	C128.821411,462.715393 128.748901,462.669556 128.676392,462.623749 
	C128.786087,462.746735 128.895798,462.869720 129.105194,463.237518 
M133.491302,461.569183 
	C133.491302,461.569183 133.442505,461.480591 133.491302,461.569183 
z"/>
<path fill="#010103" opacity="1.000000" stroke="none" 
	d="
M1.000000,98.000000 
	C1.000000,65.687973 1.000000,33.375946 1.000003,1.060831 
	C163.000015,1.057740 325.000000,1.057740 487.000000,1.057740 
	C487.000000,27.764547 487.000000,54.413616 486.637543,81.486710 
	C484.611481,81.607819 482.947906,81.304893 481.208801,80.592926 
	C481.024109,79.083748 480.914917,77.983612 480.833984,76.504120 
	C480.220001,75.780624 479.615479,75.280190 478.930115,75.114876 
	C450.553223,68.270271 422.170410,61.449959 393.785461,54.638844 
	C357.414917,45.911564 321.037720,37.211956 284.671326,28.467510 
	C258.865295,22.262348 233.085312,15.947755 207.253021,9.854458 
	C204.734802,9.260464 201.504562,9.007930 199.322662,10.070664 
	C170.906357,23.911411 142.626190,38.031475 114.298767,52.054974 
	C86.605881,65.764343 58.899212,79.445877 31.195532,93.133423 
	C27.522940,94.947937 23.832291,96.725899 19.927547,98.170967 
	C17.494528,97.817039 15.283698,97.789078 13.073464,97.814026 
	C9.048790,97.859451 5.024469,97.936279 1.000000,98.000000 
M481.486267,73.569069 
	C481.486267,73.569069 481.438995,73.481812 481.486267,73.569069 
z"/>
<path fill="#010000" opacity="1.000000" stroke="none" 
	d="
M481.284302,81.001968 
	C482.947906,81.304893 484.611481,81.607819 486.637543,81.955368 
	C487.000000,188.020889 487.000000,294.041779 487.000000,400.531372 
	C485.259735,400.995087 483.519440,400.990143 481.409180,400.513824 
	C481.053162,298.517609 481.064362,196.992767 481.089600,95.467926 
	C481.090820,90.645927 481.216553,85.823952 481.284302,81.001968 
z"/>
<path fill="#090B12" opacity="1.000000" stroke="none" 
	d="
M1.000000,98.416664 
	C5.024469,97.936279 9.048790,97.859451 13.073464,97.814026 
	C15.283698,97.789078 17.494528,97.817039 19.675774,98.382492 
	C16.446346,100.647972 13.246238,102.352097 9.763006,104.027977 
	C8.963691,104.210640 8.447499,104.421555 7.931307,104.632462 
	C5.868147,104.091995 3.804989,103.551521 1.370915,103.005524 
	C1.000000,101.611107 1.000000,100.222221 1.000000,98.416664 
z"/>
<path fill="#BED9FC" opacity="1.000000" stroke="none" 
	d="
M194.968628,474.404968 
	C193.558212,473.976807 192.147781,473.548645 190.135437,472.962891 
	C189.355942,472.862793 189.178391,472.920258 189.000839,472.977692 
	C188.739609,472.793518 188.450134,472.683990 187.600586,472.403564 
	C183.705643,471.520386 180.342514,470.882751 176.979385,470.245117 
	C170.004990,468.481750 163.030594,466.718384 155.525803,464.684937 
	C154.666412,464.393951 154.337433,464.373047 154.008438,464.352173 
	C153.560791,464.268799 153.113159,464.185455 152.210922,463.888794 
	C151.469650,463.386383 151.200134,463.401550 150.947784,463.721008 
	C150.511917,463.613800 150.076035,463.506622 149.001343,463.107422 
	C144.934540,462.172394 141.506577,461.529358 138.078613,460.886292 
	C138.078613,460.886292 138.024094,460.977417 137.990143,460.690369 
	C137.636353,460.346588 137.316528,460.289886 136.996704,460.233154 
	C102.937614,452.144440 68.878525,444.055695 34.176544,435.677673 
	C30.342873,434.709229 27.152086,434.030090 23.961302,433.350952 
	C23.070751,433.114685 22.180201,432.878418 20.670380,432.407471 
	C16.354540,431.141449 12.657973,430.110077 8.972437,428.605225 
	C8.989520,323.500519 9.000344,218.869247 8.960498,114.238007 
	C8.959836,112.501144 8.342628,110.764519 7.916083,108.695068 
	C7.887736,107.911507 7.956434,107.460670 8.436007,107.013199 
	C13.465840,108.056732 18.109949,108.997620 22.697956,110.159950 
	C29.848127,111.971390 36.934551,114.041367 44.109371,115.742950 
	C45.604424,116.097519 47.366726,115.325203 49.373543,115.065590 
	C50.475681,115.095367 51.210140,115.131752 52.037727,115.495682 
	C56.078892,118.267899 59.789242,121.678764 65.395912,118.994583 
	C66.844650,119.052063 67.897789,119.104118 69.045128,119.490494 
	C77.091354,124.318115 86.106628,125.012840 94.774261,126.927528 
	C95.415359,127.069153 96.238525,126.386597 97.354401,126.121361 
	C99.475159,126.474045 101.218582,126.792564 103.009033,127.384499 
	C103.704269,127.771675 104.352470,127.885437 105.368958,128.006256 
	C106.471840,128.063736 107.206436,128.114166 107.996582,128.431625 
	C108.700684,128.801849 109.349228,128.905060 110.348701,129.006790 
	C111.790611,129.364792 112.881584,129.724258 114.067352,130.436432 
	C117.105110,131.209412 120.048073,131.629700 123.319260,132.055206 
	C124.083412,132.098419 124.519356,132.136429 125.056488,132.508179 
	C126.459167,133.212723 127.760658,133.583511 129.289993,133.979752 
	C129.517838,134.005219 129.971909,134.068985 130.074173,134.432831 
	C135.133347,135.842255 140.090240,136.887833 145.032440,137.943756 
	C145.017731,137.954102 145.042343,137.950455 145.273682,138.236847 
	C149.332352,139.033005 153.159683,139.542786 157.320770,140.048553 
	C158.449783,140.339676 159.245071,140.634842 160.195953,141.261017 
	C164.933945,142.693817 169.516342,143.795593 174.507034,144.899323 
	C176.276245,144.927643 177.637131,144.954025 179.212173,144.891724 
	C179.697067,144.632019 179.889511,144.396896 180.028320,144.079147 
	C180.052994,144.060623 180.105621,144.028381 180.482498,143.909393 
	C181.239761,142.273636 181.980988,140.745804 181.934860,139.242096 
	C181.778275,134.138199 181.052017,129.041748 181.070862,123.944412 
	C181.122177,110.073524 181.443665,96.203629 181.851822,82.078842 
	C185.863052,79.642265 189.680557,77.460190 193.652496,75.305603 
	C193.806931,75.333076 194.073975,75.168381 194.422394,75.068504 
	C200.285797,72.558647 205.800797,70.148666 212.134811,67.380783 
	C212.134811,70.828140 212.134888,73.133949 212.134796,75.439758 
	C212.133820,100.740303 212.124008,126.040855 212.134659,151.341400 
	C212.143127,171.481995 212.158081,191.622620 212.207214,211.763153 
	C212.230225,221.194763 212.340683,230.626175 212.093628,240.219208 
	C211.530853,240.963928 211.075745,241.545929 211.072479,242.130478 
	C211.020065,251.490906 210.983109,260.852142 211.083542,270.211670 
	C211.093430,271.133850 212.025604,272.046082 212.636978,273.409515 
	C212.689758,276.914856 212.635254,279.973602 212.239227,283.176910 
	C211.722366,291.609528 211.535599,299.897491 211.423248,308.186432 
	C211.419647,308.452881 212.177979,308.729675 212.718079,309.251343 
	C212.944534,309.668457 213.034012,309.835938 213.020996,310.256134 
	C212.848129,310.676544 212.777786,310.844208 212.387970,311.061218 
	C210.714005,311.733307 209.359497,312.356079 207.635345,312.983093 
	C206.527969,312.943146 205.790268,312.898956 204.981873,312.505890 
	C202.840012,308.301300 199.248260,309.006958 195.493591,309.133972 
	C194.428482,309.108826 193.718552,309.085632 192.836273,308.734070 
	C191.019608,307.735168 189.429062,306.732910 187.720947,306.456024 
	C182.479828,305.606323 180.795609,303.052094 180.843765,297.491547 
	C181.152023,261.892853 181.017166,226.290161 180.951965,190.688919 
	C180.948532,188.814728 180.252457,186.941818 179.633377,185.005646 
	C178.590454,184.955688 177.793015,184.968414 176.775726,184.892197 
	C176.251617,184.675217 175.940735,184.656403 175.369461,184.439087 
	C173.082840,183.739883 171.050018,183.348404 168.807861,182.639603 
	C166.059967,181.905197 163.521439,181.488098 160.747925,180.782715 
	C158.006226,180.020355 155.499527,179.546280 152.723648,178.985260 
	C152.079926,178.877563 151.705368,178.856842 151.161163,178.533356 
	C150.323166,178.198166 149.654831,178.165741 148.771027,178.064178 
	C148.555557,177.995056 148.104691,177.955704 147.934692,177.647247 
	C146.847565,177.286652 145.930435,177.234482 144.649124,177.041351 
	C117.536491,170.599350 90.788017,164.298309 63.740372,157.787018 
	C60.601940,156.853226 57.762688,156.129700 54.557396,155.262070 
	C52.129578,154.735672 50.067795,154.353363 47.735958,153.723419 
	C45.573448,153.035843 43.680988,152.595901 41.264870,152.034225 
	C41.156643,154.411209 41.004219,156.196594 41.004303,157.981979 
	C41.007832,232.405518 41.024345,306.829041 41.042137,381.252594 
	C41.043213,385.747772 40.946304,390.249084 41.170738,394.733704 
	C41.224201,395.802002 42.388500,396.814728 43.033916,397.961304 
	C43.025967,398.069641 42.989273,398.283722 43.090923,398.615417 
	C44.825882,399.628296 46.403427,400.534119 48.101208,400.955627 
	C63.160080,404.694489 78.218552,408.439636 93.320641,411.998352 
	C106.690254,415.148834 120.136444,417.973724 133.510757,421.104980 
	C150.355301,425.048645 167.176910,429.093353 183.979172,433.213623 
	C200.368668,437.232697 216.705353,441.467499 233.098007,445.473358 
	C239.792755,447.109375 246.573761,448.392395 254.039398,449.990997 
	C254.039398,443.563385 254.039398,437.950439 254.055939,431.845520 
	C254.056656,409.741180 254.043839,388.128845 254.021133,366.516479 
	C254.018326,363.842346 254.527740,360.665741 249.790176,361.885742 
	C249.580368,361.780426 249.119507,361.690765 248.930862,361.375854 
	C246.159134,360.447601 243.576050,359.834229 240.664673,359.151489 
	C239.889496,359.059631 239.442627,359.037201 238.778580,358.690186 
	C230.068649,356.400513 221.575882,354.435425 213.065765,352.034912 
	C213.077026,340.387848 213.105637,329.176147 213.478363,317.928589 
	C218.213623,317.937866 222.604767,317.983032 227.366699,318.024292 
	C228.477829,318.058197 229.218185,318.096008 230.052460,318.472900 
	C232.462570,319.508728 234.778748,320.205475 237.505844,320.910461 
	C257.247711,325.428711 276.580688,329.930115 295.909088,334.451050 
	C316.079590,339.168945 336.251251,343.882294 356.412018,348.641632 
	C372.844940,352.520935 389.272400,356.424500 405.681580,360.402710 
	C411.387329,361.785980 417.031067,363.425018 423.316589,365.111908 
	C421.834045,366.819031 420.901611,367.892731 419.637085,368.964478 
	C418.863434,368.997742 418.421906,369.033020 417.761719,369.152954 
	C417.272491,369.424164 417.097168,369.676819 416.979126,370.197144 
	C416.941132,370.398651 416.942352,370.808777 416.555359,370.849548 
	C412.086090,372.562805 407.891449,374.008118 403.947052,375.959320 
	C397.541809,379.127930 391.300476,382.627869 384.994110,385.993347 
	C384.998291,385.998779 384.988220,385.986206 384.621094,386.034363 
	C380.057281,387.712036 375.860596,389.341553 371.415405,390.714478 
	C366.790802,389.559265 362.414642,388.660645 357.872803,387.694397 
	C357.707092,387.626740 357.403839,387.817017 357.263184,387.546997 
	C356.748352,387.186798 356.374207,387.096588 355.627136,386.882996 
	C349.323547,385.452393 343.392944,384.145111 337.309448,382.569550 
	C336.773712,382.216797 336.390808,382.132385 335.762939,381.925659 
	C335.345306,381.862762 335.172699,381.922211 334.640839,381.860077 
	C332.345398,381.207611 330.409210,380.676727 328.170654,380.072998 
	C327.246429,379.995605 326.624573,379.991028 325.810547,379.708618 
	C324.745056,379.325958 323.871674,379.221069 322.844666,378.977753 
	C322.691010,378.839325 322.278320,378.866516 322.013550,378.591797 
	C319.499817,377.880768 317.250885,377.444397 314.654358,376.872498 
	C313.561554,376.750336 312.816315,376.763794 311.913788,376.511108 
	C311.161316,376.143677 310.566193,376.042389 309.726837,375.666412 
	C302.223572,373.541016 294.964508,371.690369 287.007935,369.661896 
	C287.007935,376.753906 287.015503,382.707520 287.006653,388.661163 
	C286.953552,424.391632 286.896729,460.122131 286.841125,495.852600 
	C275.869659,493.350159 264.880463,490.922485 253.931244,488.326202 
	C240.575836,485.159393 227.253998,481.850952 213.178528,478.491028 
	C209.960175,477.940643 207.480942,477.502991 205.001709,477.065369 
	C205.001709,477.065369 204.594528,476.913605 204.176132,476.592163 
	C200.828033,475.648804 197.898331,475.026886 194.968628,474.404968 
z"/>
<path fill="#9B8085" opacity="1.000000" stroke="none" 
	d="
M287.215363,495.914215 
	C286.896729,460.122131 286.953552,424.391632 287.006653,388.661163 
	C287.015503,382.707520 287.007935,376.753906 287.007935,369.661896 
	C294.964508,371.690369 302.223572,373.541016 309.718872,376.138184 
	C309.955139,389.977081 309.915131,403.069733 310.004822,416.161530 
	C310.016235,417.829468 310.704742,419.492767 310.899597,421.533508 
	C310.719635,429.892303 310.719635,437.875854 310.719635,446.364349 
	C312.349243,445.650024 313.839355,445.066742 315.268524,444.360229 
	C361.729309,421.393280 408.186859,398.419739 454.624786,375.406616 
	C455.753845,374.847046 456.654480,373.826538 457.834534,372.712463 
	C458.009338,370.935455 458.011292,369.466980 458.061432,367.531921 
	C458.073822,344.044342 458.037994,321.023376 458.040344,297.751038 
	C458.044647,297.333527 458.010834,297.167389 458.022858,296.534363 
	C458.079742,260.662628 458.114777,225.257797 458.091827,189.852997 
	C458.079956,171.571701 457.965027,153.290451 457.973145,134.573944 
	C458.049591,131.842621 458.049591,129.546555 458.049591,126.141792 
	C455.619171,127.525925 454.311005,128.270935 452.678467,129.056656 
	C451.218231,129.689850 450.082367,130.282303 448.590637,130.936890 
	C443.725494,133.286713 439.216187,135.574417 434.444824,137.882614 
	C433.746033,138.173447 433.309326,138.443802 432.509979,138.773514 
	C430.075867,140.248322 428.004425,141.663757 425.576050,143.089355 
	C386.836090,161.887177 348.453064,180.674881 309.924469,199.533844 
	C309.924469,239.833649 309.924469,279.936493 309.483215,320.011047 
	C305.499878,319.595764 301.840912,319.637268 298.445953,318.711029 
	C294.380280,317.601837 290.540039,315.666382 286.737579,313.627350 
	C286.924561,288.885284 287.019562,264.604675 287.015137,240.324036 
	C287.010925,217.210022 286.902832,194.096024 287.148926,170.800964 
	C299.705261,164.638275 311.952026,158.654434 324.201111,152.675369 
	C365.725220,132.406525 407.233337,112.104874 448.786346,91.895439 
	C459.385956,86.740280 470.128754,81.879501 480.805756,76.883469 
	C480.914917,77.983612 481.024109,79.083748 481.208801,80.592926 
	C481.216553,85.823952 481.090820,90.645927 481.089600,95.467926 
	C481.064362,196.992767 481.053162,298.517609 480.974121,400.505066 
	C475.661255,403.458099 470.383636,405.887756 465.170990,408.449646 
	C444.612671,418.553467 424.074738,428.698761 403.529541,438.829285 
	C402.486298,439.343628 401.445984,439.863892 399.852478,440.683044 
	C398.370300,441.559692 397.439972,442.134705 396.509613,442.709747 
	C396.233063,442.669983 395.975403,442.722656 395.258240,443.062744 
	C393.189575,444.116852 391.599335,444.975983 390.009064,445.835144 
	C381.758881,449.896606 373.517426,453.975891 365.256897,458.016266 
	C339.371643,470.677307 313.479218,483.323730 287.215363,495.914215 
z"/>
<path fill="#D2E0ED" opacity="1.000000" stroke="none" 
	d="
M8.013130,109.027779 
	C8.342628,110.764519 8.959836,112.501144 8.960498,114.238007 
	C9.000344,218.869247 8.989520,323.500519 8.608427,428.496521 
	C8.018608,427.897308 7.803829,426.933380 7.589051,425.969421 
	C7.645710,424.267609 7.702369,422.565826 7.772472,420.049438 
	C7.714990,418.146698 7.644063,417.058533 7.573136,415.970398 
	C7.643715,414.811798 7.776044,413.653229 7.776090,412.494629 
	C7.780026,312.311951 7.773751,212.129257 7.772000,111.160889 
	C7.854918,109.926071 7.934023,109.476921 8.013130,109.027779 
z"/>
<path fill="#D2E0ED" opacity="1.000000" stroke="none" 
	d="
M49.005867,115.072205 
	C47.366726,115.325203 45.604424,116.097519 44.109371,115.742950 
	C36.934551,114.041367 29.848127,111.971390 22.697956,110.159950 
	C18.109949,108.997620 13.465840,108.056732 8.332088,106.751328 
	C7.737387,106.316162 7.657476,106.146263 7.577566,105.976372 
	C7.660210,105.758644 7.742855,105.540909 7.878404,104.977814 
	C8.447499,104.421555 8.963691,104.210640 9.992878,104.299744 
	C14.290829,105.731552 18.050989,106.956024 21.865698,107.976608 
	C30.898645,110.393303 39.957489,112.713188 49.005867,115.072205 
z"/>
<path fill="#0D0F15" opacity="1.000000" stroke="none" 
	d="
M194.965637,474.753571 
	C197.898331,475.026886 200.828033,475.648804 203.958893,476.595490 
	C201.629578,478.475311 199.099106,480.030426 195.861053,482.020355 
	C195.455566,478.897919 195.209122,477.000031 194.965637,474.753571 
z"/>
<path fill="#090B12" opacity="1.000000" stroke="none" 
	d="
M7.267481,425.976318 
	C7.803829,426.933380 8.018608,427.897308 8.597396,428.969971 
	C12.657973,430.110077 16.354540,431.141449 20.322437,432.482727 
	C14.399038,433.044434 7.973590,434.007416 4.027598,427.074219 
	C4.909745,426.744446 5.927827,426.363831 7.267481,425.976318 
z"/>
<path fill="#0D141E" opacity="1.000000" stroke="none" 
	d="
M23.957237,433.692444 
	C27.152086,434.030090 30.342873,434.709229 33.768177,435.681854 
	C32.787136,440.892822 29.043224,436.766693 26.397491,437.995178 
	C26.000000,438.000000 26.009047,438.006775 26.009047,438.006775 
	C25.323755,436.682495 24.638464,435.358185 23.957237,433.692444 
z"/>
<path fill="#11151B" opacity="1.000000" stroke="none" 
	d="
M138.055038,461.255798 
	C141.506577,461.529358 144.934540,462.172394 148.661530,463.070862 
	C145.579742,463.631439 142.201050,463.987823 138.813416,464.126892 
	C138.587387,464.136200 138.293686,462.497467 138.055038,461.255798 
z"/>
<path fill="#12090D" opacity="1.000000" stroke="none" 
	d="
M390.057312,446.186096 
	C391.599335,444.975983 393.189575,444.116852 395.109802,443.197205 
	C395.768005,444.535065 396.096222,445.933472 396.874969,449.251434 
	C393.785706,448.012695 391.945618,447.274872 390.057312,446.186096 
z"/>
<path fill="#0D0F15" opacity="1.000000" stroke="none" 
	d="
M205.150269,477.369354 
	C207.480942,477.502991 209.960175,477.940643 212.764465,478.536987 
	C210.098846,481.355713 207.423920,481.609406 205.150269,477.369354 
z"/>
<path fill="#090B12" opacity="1.000000" stroke="none" 
	d="
M7.241099,106.042419 
	C7.657476,106.146263 7.737387,106.316162 7.921215,106.747948 
	C7.956434,107.460670 7.887736,107.911507 7.916083,108.695068 
	C7.934023,109.476921 7.854918,109.926071 7.673359,110.703964 
	C6.420076,110.485039 5.269245,109.937363 4.118411,109.389687 
	C5.047151,108.295944 5.975892,107.202209 7.241099,106.042419 
z"/>
<path fill="#0D0F15" opacity="1.000000" stroke="none" 
	d="
M177.053436,470.618835 
	C180.342514,470.882751 183.705643,471.520386 187.370605,472.447144 
	C184.157455,472.155029 180.642471,471.573822 177.053436,470.618835 
z"/>
<path fill="#090B12" opacity="1.000000" stroke="none" 
	d="
M7.276893,416.027405 
	C7.644063,417.058533 7.714990,418.146698 7.679567,419.632568 
	C4.878538,419.089996 4.191824,417.848206 7.276893,416.027405 
z"/>
<path fill="#12090D" opacity="1.000000" stroke="none" 
	d="
M396.843628,442.870728 
	C397.439972,442.134705 398.370300,441.559692 399.628723,440.941345 
	C400.027039,442.907379 399.708527,444.410370 396.843628,442.870728 
z"/>
<path fill="#11151B" opacity="1.000000" stroke="none" 
	d="
M150.970459,463.896515 
	C151.200134,463.401550 151.469650,463.386383 151.868317,463.879395 
	C151.651245,464.079529 151.322189,464.075775 150.970459,463.896515 
z"/>
<path fill="#11151B" opacity="1.000000" stroke="none" 
	d="
M154.171051,464.535156 
	C154.337433,464.373047 154.666412,464.393951 155.134872,464.642090 
	C155.274338,464.869354 154.786102,464.905060 154.786102,464.905060 
	C154.786102,464.905060 154.333649,464.718170 154.171051,464.535156 
z"/>
<path fill="#0D141E" opacity="1.000000" stroke="none" 
	d="
M25.996532,437.995483 
	C25.916548,438.029358 25.840033,438.067780 25.886282,438.056519 
	C26.009047,438.006775 26.000000,438.000000 25.996532,437.995483 
z"/>
<path fill="#0D0F15" opacity="1.000000" stroke="none" 
	d="
M189.073456,473.142822 
	C189.178391,472.920258 189.355942,472.862793 189.765045,472.962646 
	C189.713074,473.182617 189.429581,473.245300 189.073456,473.142822 
z"/>
<path fill="#11151B" opacity="1.000000" stroke="none" 
	d="
M137.132599,460.419830 
	C137.316528,460.289886 137.636353,460.346588 138.035095,460.662109 
	C137.786545,460.938782 137.504700,460.833984 137.132599,460.419830 
z"/>
<path fill="#11151B" opacity="1.000000" stroke="none" 
	d="
M133.466904,461.524902 
	C133.442505,461.480591 133.491302,461.569183 133.466904,461.524902 
z"/>
<path fill="#11151B" opacity="1.000000" stroke="none" 
	d="
M129.005508,462.992706 
	C128.895798,462.869720 128.786087,462.746735 128.676392,462.623749 
	C128.748901,462.669556 128.821411,462.715393 128.946960,462.880615 
	C129.000000,463.000000 129.005508,462.992706 129.005508,462.992706 
z"/>
<path fill="#11151B" opacity="1.000000" stroke="none" 
	d="
M128.996277,463.002808 
	C129.103058,463.128479 129.213562,463.251343 129.324066,463.374207 
	C129.251099,463.328644 129.178146,463.283081 129.055359,463.115112 
	C129.005508,462.992706 129.000000,463.000000 128.996277,463.002808 
z"/>
<path fill="#FAFACA" opacity="1.000000" stroke="none" 
	d="
M49.373543,115.065590 
	C39.957489,112.713188 30.898645,110.393303 21.865698,107.976608 
	C18.050989,106.956024 14.290829,105.731552 10.276001,104.327988 
	C13.246238,102.352097 16.446346,100.647972 19.898232,98.732315 
	C23.832291,96.725899 27.522940,94.947937 31.195532,93.133423 
	C58.899212,79.445877 86.605881,65.764343 114.298767,52.054974 
	C142.626190,38.031475 170.906357,23.911411 199.322662,10.070664 
	C201.504562,9.007930 204.734802,9.260464 207.253021,9.854458 
	C233.085312,15.947755 258.865295,22.262348 284.671326,28.467510 
	C321.037720,37.211956 357.414917,45.911564 393.785461,54.638844 
	C422.170410,61.449959 450.553223,68.270271 478.930115,75.114876 
	C479.615479,75.280190 480.220001,75.780624 480.833984,76.504112 
	C470.128754,81.879501 459.385956,86.740280 448.786346,91.895439 
	C407.233337,112.104874 365.725220,132.406525 324.201111,152.675369 
	C311.952026,158.654434 299.705261,164.638275 286.784393,170.746918 
	C281.490784,169.651520 276.911530,168.234238 272.241608,167.244705 
	C260.173492,164.687546 248.065369,162.319229 235.894165,159.420380 
	C235.880753,153.302032 235.946396,147.638794 236.404968,141.992783 
	C248.586960,144.797943 260.331970,147.801346 272.194946,150.227936 
	C275.307129,150.864548 279.194031,150.580017 282.030029,149.243530 
	C303.219849,139.257507 324.261688,128.955307 345.292267,118.634682 
	C354.149628,114.288010 362.867615,109.657379 372.046692,105.113838 
	C374.445679,104.297867 376.497742,103.633255 378.439697,102.731590 
	C388.488678,98.065804 398.562439,93.447838 408.517639,88.588051 
	C413.451202,86.179657 418.148590,83.287453 422.952820,80.614136 
	C422.859039,80.102783 422.765289,79.591431 422.671539,79.080078 
	C415.812897,77.358032 408.953308,75.639877 402.095856,73.913078 
	C390.388489,70.965012 378.728180,67.812981 366.964935,65.108200 
	C350.518921,61.326675 333.945374,58.094109 317.522522,54.219196 
	C303.501007,50.910866 289.651154,46.881039 275.659851,43.436634 
	C258.596191,39.235882 241.477036,35.257000 224.351715,31.313118 
	C220.405960,30.404428 216.337540,30.028473 211.993546,29.440140 
	C211.450562,29.543434 211.239609,29.613945 210.646027,29.698166 
	C205.020264,32.212200 199.745697,34.648945 194.538986,37.222912 
	C152.667374,57.922283 110.808205,78.646843 68.947456,99.368187 
	C67.709106,99.981171 66.495102,100.643333 63.981541,101.954597 
	C71.154678,103.630295 76.896271,105.021500 82.661270,106.307770 
	C94.143394,108.869629 105.638382,111.373802 117.443527,114.159607 
	C124.178337,115.829132 130.597687,117.240845 137.410889,118.745087 
	C151.783981,122.119598 165.763214,125.401596 179.810120,129.165283 
	C179.953735,134.440781 180.029678,139.234589 180.105621,144.028381 
	C180.105621,144.028381 180.052994,144.060623 179.813965,144.164688 
	C179.310837,144.447739 179.118530,144.684952 178.998032,144.980408 
	C177.637131,144.954025 176.276245,144.927643 174.257889,144.640625 
	C169.080399,143.229996 164.560379,142.080002 160.040344,140.930008 
	C159.245071,140.634842 158.449783,140.339676 157.064423,139.764923 
	C152.663681,138.973679 148.853012,138.462067 145.042343,137.950455 
	C145.042343,137.950455 145.017731,137.954102 144.938873,137.587524 
	C139.897308,136.170303 134.934601,135.119644 129.971909,134.068985 
	C129.971909,134.068985 129.517838,134.005219 129.196411,133.631714 
	C127.568428,132.896942 126.261864,132.535690 124.955292,132.174423 
	C124.519356,132.136429 124.083412,132.098419 123.060478,131.777740 
	C119.639839,131.024612 116.806206,130.554169 113.972565,130.083725 
	C112.881584,129.724258 111.790611,129.364792 110.167877,128.768997 
	C109.071098,128.409988 108.506065,128.287292 107.941032,128.164597 
	C107.206436,128.114166 106.471840,128.063736 105.194382,127.764130 
	C104.088348,127.380325 103.525169,127.245705 102.961998,127.111092 
	C101.218582,126.792564 99.475159,126.474045 97.109528,125.831955 
	C93.493591,124.671761 90.529579,123.701866 87.499916,123.026451 
	C81.335678,121.652222 75.136009,120.436951 68.950935,119.156174 
	C67.897789,119.104118 66.844650,119.052063 65.141731,118.727600 
	C60.309505,117.359512 56.127056,116.263832 51.944603,115.168137 
	C51.210140,115.131752 50.475681,115.095367 49.373543,115.065590 
z"/>
<path fill="#0F0A0B" opacity="1.000000" stroke="none" 
	d="
M481.462646,73.525436 
	C481.438995,73.481812 481.486267,73.569069 481.462646,73.525436 
z"/>
<path fill="#010103" opacity="1.000000" stroke="none" 
	d="
M175.623260,184.746796 
	C175.940735,184.656403 176.251617,184.675217 176.781769,185.259399 
	C177.866348,186.826233 178.725067,187.936920 179.670242,189.505798 
	C179.767853,223.928406 179.789474,257.892853 179.777924,291.857269 
	C179.776337,296.511505 179.609589,301.165710 179.201782,305.936493 
	C164.792160,312.961853 150.676834,319.823761 136.613373,326.790375 
	C115.051071,337.471710 93.524460,348.225128 71.616486,358.989014 
	C68.735840,360.116150 66.221413,361.202240 63.693771,361.801636 
	C63.708912,295.018311 63.738285,228.721649 63.753830,162.425003 
	C63.754021,161.601013 63.577019,160.777008 63.602135,159.634750 
	C63.827549,158.876755 63.933552,158.437027 64.039551,157.997284 
	C90.788017,164.298309 117.536491,170.599350 144.890182,177.269653 
	C146.365173,177.744522 147.234924,177.850113 148.104691,177.955719 
	C148.104691,177.955704 148.555557,177.995056 148.815460,178.331940 
	C149.827179,178.724564 150.578995,178.780334 151.330811,178.836105 
	C151.705368,178.856842 152.079926,178.877563 152.697144,179.295624 
	C153.918854,181.229416 155.056076,184.120590 155.845032,184.028488 
	C157.648163,183.817963 159.280930,182.148117 160.982895,181.070984 
	C163.521439,181.488098 166.059967,181.905197 168.900452,183.033630 
	C171.342682,184.078903 173.482971,184.412842 175.623260,184.746796 
z"/>
<path fill="#030204" opacity="1.000000" stroke="none" 
	d="
M238.995743,359.014771 
	C239.442627,359.037201 239.889496,359.059631 240.726685,359.502686 
	C243.109482,363.568604 245.795273,364.075012 249.119507,361.690765 
	C249.119507,361.690765 249.580368,361.780426 249.969330,362.141296 
	C250.184967,364.014313 250.573563,366.056335 249.737198,366.943359 
	C246.744339,370.117554 246.970505,373.844666 246.984924,377.675507 
	C247.030670,389.831848 246.963364,401.988739 247.044556,414.144745 
	C247.056335,415.909454 247.273315,417.850342 248.031067,419.398590 
	C250.141830,423.711243 247.438446,426.771118 245.317627,430.105713 
	C243.750107,429.816559 242.563446,429.549042 241.719193,429.062378 
	C242.345123,427.139557 242.628632,425.435913 242.912155,423.732300 
	C242.461609,423.600220 242.011078,423.468140 241.560532,423.336060 
	C240.338104,425.007172 239.115677,426.678314 237.475693,428.305298 
	C228.221222,426.303467 219.366974,424.420502 210.550964,422.372772 
	C191.543228,417.957886 172.541504,413.515472 153.564041,408.972595 
	C141.634537,406.116882 129.753555,403.058563 118.052864,399.773987 
	C119.961395,398.860687 121.759506,398.446075 123.359444,397.638763 
	C133.711960,392.414978 143.979553,387.022034 154.353882,381.842560 
	C173.180008,372.443298 192.061249,363.154449 211.147797,354.105225 
	C212.815216,355.097931 214.797638,355.436340 215.579697,356.589081 
	C217.181778,358.950531 218.669266,359.610199 221.666595,359.275665 
	C224.956635,358.908447 228.409760,360.371582 231.803329,360.436646 
	C234.190842,360.482391 236.597580,359.524536 238.995743,359.014771 
z"/>
<path fill="#9C8084" opacity="1.000000" stroke="none" 
	d="
M63.482723,159.953003 
	C63.577019,160.777008 63.754021,161.601013 63.753830,162.425003 
	C63.738285,228.721649 63.708912,295.018311 63.632812,362.181763 
	C63.724667,371.362518 63.864265,379.676453 63.650375,388.042603 
	C56.527676,391.491119 49.758469,394.887421 42.989265,398.283691 
	C42.989273,398.283722 43.025967,398.069641 43.067497,397.607269 
	C43.072006,394.342499 43.002903,391.540100 43.002636,388.737701 
	C42.995472,313.201111 43.017761,237.664474 42.932095,162.127991 
	C42.927509,158.084061 43.003021,154.642471 48.006008,153.971069 
	C50.067795,154.353363 52.129578,154.735672 54.490879,155.544250 
	C54.323658,156.726532 53.856918,157.482513 53.090950,158.723145 
	C56.952389,159.180145 60.217556,159.566574 63.482723,159.953003 
z"/>
<path fill="#9B8083" opacity="1.000000" stroke="none" 
	d="
M210.919495,353.819519 
	C192.061249,363.154449 173.180008,372.443298 154.353882,381.842560 
	C143.979553,387.022034 133.711960,392.414978 123.359444,397.638763 
	C121.759506,398.446075 119.961395,398.860687 117.638901,399.756744 
	C99.608986,396.032990 82.195099,392.009399 65.001541,387.702515 
	C68.192177,385.676422 71.162468,383.933624 74.083054,382.202393 
	C74.033348,382.213959 74.129005,382.249573 74.440277,382.263580 
	C75.220116,381.925171 75.688690,381.572754 76.175781,381.264648 
	C76.194298,381.308929 76.290268,381.305298 76.643250,381.288147 
	C79.746384,379.877869 82.496552,378.484741 85.593292,377.039612 
	C109.160797,365.541901 132.397995,354.129150 155.597412,342.640076 
	C173.444397,333.801727 191.243835,324.867279 209.405869,315.938080 
	C211.972672,314.789368 213.224884,315.275085 213.134247,317.964478 
	C213.105637,329.176147 213.077026,340.387848 212.759003,352.145264 
	C211.952911,353.067200 211.436203,353.443359 210.919495,353.819519 
z"/>
<path fill="#997E81" opacity="1.000000" stroke="none" 
	d="
M236.012039,141.975540 
	C235.946396,147.638794 235.880753,153.302032 235.827576,159.899551 
	C235.811615,171.780319 235.724808,182.727295 235.815842,193.672806 
	C235.829956,195.369659 236.658020,197.059738 236.698318,198.956863 
	C236.105087,201.297394 235.769592,203.433685 235.765228,205.570679 
	C235.724167,225.720551 235.703613,245.870621 235.752045,266.020447 
	C235.781631,278.334167 235.942245,290.647552 235.691559,302.974396 
	C233.553360,303.979828 231.767639,304.971954 229.679535,306.026001 
	C228.198166,306.789978 227.019196,307.492065 225.465088,308.266113 
	C221.766861,309.951447 218.443741,311.564789 214.842743,313.142212 
	C214.379562,313.086609 214.194260,313.066956 213.915955,312.837891 
	C213.658234,312.361572 213.434830,312.159546 213.055511,311.763641 
	C212.874680,311.340515 212.791061,311.176208 212.707428,311.011902 
	C212.777786,310.844208 212.848129,310.676544 213.295853,310.207642 
	C213.959534,309.587585 214.245865,309.268829 214.532196,308.950073 
	C214.056747,308.630920 213.581299,308.311737 213.042862,307.622437 
	C213.025482,306.506042 213.071106,305.759735 213.470703,304.955078 
	C216.814758,303.278778 216.846008,300.876404 216.535385,297.723694 
	C215.740570,289.656158 215.150543,281.524536 215.237549,273.426697 
	C215.319077,265.838867 216.871857,258.260773 216.860260,250.679779 
	C216.848724,243.133163 215.296753,235.596222 215.146683,228.040604 
	C214.962265,218.757492 215.572388,209.460175 215.745926,200.167267 
	C215.791824,197.710388 215.408173,195.248337 215.374176,192.786560 
	C215.302872,187.622070 215.132675,182.446533 215.380737,177.293716 
	C215.602051,172.696518 216.739441,168.121536 216.713867,163.540970 
	C216.691498,159.538116 215.113708,155.542801 215.100494,151.541260 
	C215.069275,142.091797 215.807205,132.639893 215.781128,123.190239 
	C215.744461,109.903091 215.193207,96.617821 215.097107,83.330048 
	C215.072052,79.866760 215.918793,76.397171 216.477524,72.057465 
	C217.299286,72.544594 218.653717,73.207687 219.843094,74.092628 
	C220.984802,74.942108 221.955429,76.021523 223.001038,77.389465 
	C223.170700,79.068771 223.340561,80.358505 223.590591,82.257034 
	C227.070694,79.300385 232.869751,80.097321 232.426880,73.937080 
	C233.399490,73.667488 233.942169,73.466309 234.494568,73.363312 
	C234.504303,73.461494 234.423767,73.641632 234.281555,74.056160 
	C234.092896,77.244034 233.871582,80.027908 234.037872,82.788437 
	C234.346710,87.915497 234.881729,93.028931 235.433395,98.591858 
	C235.469879,103.306931 235.395523,107.578171 234.984451,112.136368 
	C234.880219,118.673828 235.112717,124.924347 235.446472,131.572876 
	C235.504135,133.606186 235.460526,135.241455 235.041977,136.931366 
	C233.548767,137.560089 232.430496,138.134186 231.312225,138.708282 
	C231.425308,139.040909 231.538406,139.373550 231.651489,139.706177 
	C232.905807,139.803177 234.160126,139.900177 235.547760,140.315781 
	C235.791397,141.081436 235.901718,141.528488 236.012039,141.975540 
M220.330887,305.408966 
	C220.004257,305.989685 219.677643,306.570404 219.351044,307.151123 
	C219.921509,307.327148 220.491959,307.503174 221.062424,307.679199 
	C221.009735,307.005371 220.957062,306.331543 220.330887,305.408966 
M227.704453,298.093262 
	C227.374176,298.519379 227.043900,298.945496 226.713608,299.371582 
	C227.586395,299.366699 228.459167,299.361816 229.331955,299.356934 
	C228.997620,298.934540 228.663284,298.512146 227.704453,298.093262 
M233.275803,300.340088 
	C233.164658,299.587555 233.053513,298.835022 232.942352,298.082489 
	C232.457642,298.248871 231.972916,298.415222 231.488190,298.581604 
	C231.993469,299.325653 232.498734,300.069672 233.275803,300.340088 
z"/>
<path fill="#9B8184" opacity="1.000000" stroke="none" 
	d="
M117.128059,113.901810 
	C105.638382,111.373802 94.143394,108.869629 82.661270,106.307770 
	C76.896271,105.021500 71.154678,103.630295 63.981541,101.954597 
	C66.495102,100.643333 67.709106,99.981171 68.947456,99.368187 
	C110.808205,78.646843 152.667374,57.922283 194.538986,37.222912 
	C199.745697,34.648945 205.020264,32.212200 210.590698,30.072548 
	C209.147888,33.095707 207.377762,35.758190 205.460556,38.641922 
	C211.072937,40.236042 210.198959,44.629257 209.835663,48.799809 
	C209.577988,51.757553 209.074051,54.709316 209.038528,57.668049 
	C208.931030,66.621742 209.001938,66.630653 200.633453,69.603874 
	C199.859619,69.878807 198.745697,69.696480 198.260010,70.189659 
	C196.743347,71.729767 195.452408,73.492149 194.073975,75.168381 
	C194.073975,75.168381 193.806931,75.333076 193.290344,75.135872 
	C190.736877,75.416367 188.661911,75.776192 186.677597,76.416756 
	C185.520599,76.790260 184.461624,78.211243 183.439499,78.130913 
	C178.847961,77.770027 176.953079,79.894302 176.752533,84.470322 
	C163.008850,91.569405 149.514603,98.440880 135.682800,105.290482 
	C134.278503,105.904686 133.211792,106.540756 131.854401,107.161247 
	C131.201324,107.524406 130.838943,107.903145 130.454529,108.306091 
	C130.432495,108.330315 130.372162,108.304855 129.978638,108.220757 
	C129.347672,108.261597 129.110260,108.386536 128.506866,108.590515 
	C124.469933,110.413643 120.798996,112.157730 117.128059,113.901810 
M201.487228,36.565647 
	C201.487228,36.565647 201.441040,36.479961 201.487228,36.565647 
z"/>
<path fill="#FBFBCE" opacity="1.000000" stroke="none" 
	d="
M229.981918,305.964111 
	C231.767639,304.971954 233.553360,303.979828 235.897827,303.325806 
	C241.894241,304.704895 247.331909,305.745880 253.176315,306.876587 
	C264.589417,309.340485 275.595795,311.714630 286.602173,314.088776 
	C290.540039,315.666382 294.380280,317.601837 298.445953,318.711029 
	C301.840912,319.637268 305.499878,319.595764 309.693115,320.349396 
	C315.201080,321.648895 320.112030,322.365173 324.902435,323.563293 
	C332.971893,325.581573 340.964905,327.905701 348.843445,330.405334 
	C348.210938,331.697388 347.725037,332.685303 347.239136,333.673218 
	C347.156738,333.144196 347.074341,332.615173 346.991943,332.086151 
	C343.548920,331.802155 340.093658,331.616119 336.668640,331.188080 
	C335.207123,331.005432 333.354523,330.740906 332.462585,329.783875 
	C329.123627,326.201263 325.445190,325.668793 320.988708,327.246185 
	C319.903625,327.630280 317.865356,327.241882 317.157562,326.430420 
	C314.458313,323.335938 311.646423,324.875885 309.151794,326.143921 
	C306.987885,327.243835 305.261261,329.204102 303.025177,331.044342 
	C305.304810,331.522949 308.452484,331.226288 309.573242,332.592468 
	C313.473877,337.347168 318.866821,337.024506 323.956604,338.077393 
	C327.944489,338.902344 331.876678,339.280853 335.923615,340.877197 
	C341.082275,342.912018 347.710022,345.304535 353.369415,339.747925 
	C354.812408,338.331146 358.384125,337.425262 359.765930,341.281921 
	C357.370087,342.406281 355.209564,343.248718 353.049042,344.091156 
	C353.082153,344.534576 353.115265,344.977966 353.148376,345.421387 
	C354.819733,345.614471 356.645660,346.337921 358.134308,345.904083 
	C363.196136,344.428772 368.122375,342.604889 373.156982,345.953125 
	C373.612610,346.256165 374.568054,346.178467 375.104553,345.907562 
	C376.058350,345.425995 377.635315,344.576965 377.575562,344.032654 
	C377.461151,342.989929 376.544586,341.400116 375.676270,341.184753 
	C371.839844,340.233307 367.902222,339.689911 364.027771,338.704773 
	C364.369568,337.940918 364.684784,337.471069 365.292419,336.999664 
	C366.052032,336.875610 366.519196,336.753082 368.419159,336.254883 
	C366.260284,336.093109 365.630737,336.045929 364.788086,335.881500 
	C364.309540,335.561432 364.118683,335.303436 364.366943,334.946472 
	C365.639648,334.540497 366.547882,334.178253 367.720245,334.097015 
	C377.258972,336.583008 386.533600,338.787994 395.398438,341.156708 
	C390.442871,341.795898 385.700500,341.873077 382.279694,345.497955 
	C381.190216,346.652435 380.161560,348.476379 380.246826,349.926910 
	C380.310913,351.018097 382.042267,352.579132 383.304688,352.920410 
	C386.472260,353.776764 389.861023,353.803131 393.042084,354.623688 
	C400.679932,356.593964 408.249451,358.828918 414.316620,360.528503 
	C417.601990,358.925873 419.758820,358.151642 421.563293,356.878113 
	C422.487183,356.226074 423.343018,353.714508 423.278534,353.676941 
	C419.268127,351.342163 415.293732,348.851685 411.022858,347.083740 
	C406.447021,345.189606 400.606995,346.225952 397.798431,340.960541 
	C399.422791,341.241333 400.718353,341.620758 402.072021,342.153290 
	C402.130066,342.306396 402.515717,342.539429 402.515717,342.539429 
	C402.515717,342.539429 402.938965,342.349548 403.339539,342.332581 
	C411.159363,343.921509 418.578613,345.527374 426.103485,347.462891 
	C426.157166,350.918579 425.707977,354.104279 426.166412,357.153564 
	C426.613434,360.126862 427.988342,362.960663 429.336975,365.908417 
	C430.486694,365.968201 431.255310,365.975311 432.355530,366.150391 
	C436.129028,367.194763 439.570923,368.071198 443.251129,368.973785 
	C443.489410,368.999939 443.968750,369.009766 444.222260,369.275116 
	C448.871063,370.700623 453.266327,371.860809 457.661621,373.020996 
	C456.654480,373.826538 455.753845,374.847046 454.624786,375.406616 
	C408.186859,398.419739 361.729309,421.393280 315.268524,444.360229 
	C313.839355,445.066742 312.349243,445.650024 310.719635,446.364349 
	C310.719635,437.875854 310.719635,429.892303 311.173035,421.398163 
	C312.452057,420.359009 313.277679,419.830414 314.345642,419.233398 
	C314.727356,419.071289 314.866669,418.977600 315.293060,418.907074 
	C315.833832,418.662231 316.087494,418.394226 316.691620,418.089020 
	C332.024170,410.682556 347.006287,403.313293 362.344177,395.917053 
	C365.687958,394.250397 368.675934,392.610718 371.663910,390.971039 
	C375.860596,389.341553 380.057281,387.712036 384.567047,386.376648 
	C381.104370,389.185028 377.328583,391.699341 373.531555,394.227783 
	C373.963104,395.419739 374.442017,396.742584 374.920959,398.065430 
	C374.450134,397.862122 373.979309,397.658813 373.508484,397.455505 
	C371.806549,399.604340 370.189575,401.828461 368.374878,403.877472 
	C367.002594,405.426910 365.224182,406.625122 363.906433,408.212036 
	C362.442505,409.974945 360.961090,411.874817 360.167603,413.972382 
	C359.823914,414.880920 361.183685,416.433807 361.769714,417.694031 
	C363.767548,416.707977 365.823608,415.823395 367.752197,414.716644 
	C373.339752,411.510254 378.325104,407.109650 385.456940,407.343109 
	C389.397644,407.472107 390.849243,404.609161 388.541290,401.401978 
	C386.593018,398.694611 384.004730,396.447845 380.830841,393.073486 
	C383.392578,393.073486 385.611816,392.594757 387.464386,393.213654 
	C389.176361,393.785553 390.607727,395.423889 391.951843,396.798706 
	C393.020355,397.891693 394.031891,400.502106 394.621460,400.374390 
	C400.210510,399.163452 406.329041,398.318695 408.761505,391.985596 
	C410.399597,387.720734 413.010529,387.102448 416.347565,389.467712 
	C418.980042,391.333588 420.440552,390.445618 422.080170,388.321381 
	C422.829681,387.350342 423.862213,386.446716 424.961853,385.922607 
	C430.236145,383.408722 435.570190,381.019226 440.902893,378.629944 
	C441.643555,378.298096 442.531128,378.302643 443.287689,377.996063 
	C445.136597,377.246765 446.948547,376.406372 449.578583,375.249329 
	C445.951904,373.303589 443.548615,371.357483 440.831482,370.691010 
	C434.878265,369.230713 428.959198,365.328369 422.550598,369.518768 
	C422.032196,369.857788 420.845398,369.174591 419.969177,368.966431 
	C420.901611,367.892731 421.834045,366.819031 423.316589,365.111908 
	C417.031067,363.425018 411.387329,361.785980 405.681580,360.402710 
	C389.272400,356.424500 372.844940,352.520935 356.412018,348.641632 
	C336.251251,343.882294 316.079590,339.168945 295.909088,334.451050 
	C276.580688,329.930115 257.247711,325.428711 237.306641,320.620483 
	C234.450546,319.592804 232.204529,318.863312 229.958527,318.133820 
	C229.218185,318.096008 228.477829,318.058197 227.136169,317.733704 
	C224.861893,316.965637 223.146408,316.595459 221.526352,315.975739 
	C219.352493,315.144135 217.252396,314.119720 215.120621,313.178101 
	C218.443741,311.564789 221.766861,309.951447 225.503723,308.719360 
	C225.944626,309.400146 225.971741,309.699646 225.785431,310.114197 
	C225.305161,310.428558 225.112244,310.683685 224.871674,311.047668 
	C224.835098,311.069275 224.920105,311.037964 225.217255,310.889343 
	C225.693604,310.569794 225.884033,310.312836 226.337860,310.064789 
	C228.105072,311.517242 229.366684,313.557648 231.783478,311.900146 
	C233.721161,310.571289 237.809448,312.088806 237.649902,307.232819 
	C235.746643,307.118347 233.987991,307.093628 232.254578,306.871704 
	C231.471115,306.771362 230.737915,306.278748 229.981918,305.964111 
M254.767426,314.017090 
	C261.492889,315.211212 267.055328,321.810730 274.879730,318.337158 
	C275.341400,318.132202 276.684204,319.912201 277.616974,320.768494 
	C276.686737,321.503510 275.814331,322.762146 274.815094,322.872498 
	C272.133484,323.168671 269.397583,322.973572 265.706757,322.973572 
	C271.536011,328.058685 299.286499,328.493286 305.798798,323.672699 
	C302.338776,322.738892 299.646698,322.060974 296.983459,321.284149 
	C289.884827,319.213470 282.854767,316.875031 275.686829,315.086426 
	C271.228607,313.973969 266.569153,313.667969 261.647888,312.379852 
	C259.763916,312.251068 257.879913,312.122314 255.500641,311.994263 
	C255.500641,311.994263 255.005356,311.995270 254.771637,311.571533 
	C254.570923,311.307434 254.316071,311.115082 253.873184,310.317261 
	C252.248871,309.546875 250.624557,308.776489 248.327164,308.125763 
	C244.115768,310.963562 239.904358,313.801331 235.245621,316.940552 
	C242.212311,319.581940 248.130463,316.977356 254.767426,314.017090 
M252.949356,321.963013 
	C254.568985,321.785736 256.188629,321.608459 258.182343,321.390259 
	C256.513092,316.930176 253.836060,317.838776 251.194550,318.634949 
	C251.518341,319.707184 251.842117,320.779388 252.949356,321.963013 
z"/>
<path fill="#FAFBCC" opacity="1.000000" stroke="none" 
	d="
M64.781204,387.985779 
	C82.195099,392.009399 99.608986,396.032990 117.436844,400.073853 
	C129.753555,403.058563 141.634537,406.116882 153.564041,408.972595 
	C172.541504,413.515472 191.543228,417.957886 210.550964,422.372772 
	C219.366974,424.420502 228.221222,426.303467 237.658539,428.563446 
	C239.298218,429.004364 240.337494,429.142944 241.376785,429.281555 
	C242.563446,429.549042 243.750107,429.816559 245.559982,430.421570 
	C248.801941,431.285156 251.420670,431.811310 254.039398,432.337463 
	C254.039398,437.950439 254.039398,443.563385 254.039398,449.990997 
	C246.573761,448.392395 239.792755,447.109375 233.098007,445.473358 
	C216.705353,441.467499 200.368668,437.232697 183.979172,433.213623 
	C167.176910,429.093353 150.355301,425.048645 133.510757,421.104980 
	C120.136444,417.973724 106.690254,415.148834 93.320641,411.998352 
	C78.218552,408.439636 63.160080,404.694489 48.101208,400.955627 
	C46.403427,400.534119 44.825882,399.628296 43.090919,398.615387 
	C49.758469,394.887421 56.527676,391.491119 63.844685,388.043945 
	C64.392487,387.993073 64.781204,387.985779 64.781204,387.985779 
z"/>
<path fill="#FBFAC9" opacity="1.000000" stroke="none" 
	d="
M209.064423,315.975586 
	C191.243835,324.867279 173.444397,333.801727 155.597412,342.640076 
	C132.397995,354.129150 109.160797,365.541901 85.167084,377.013062 
	C81.506981,378.107605 76.970963,376.045135 76.290268,381.305298 
	C76.290268,381.305298 76.194298,381.308929 75.854248,381.223877 
	C75.052475,381.509094 74.590736,381.879333 74.129005,382.249573 
	C74.129005,382.249573 74.033348,382.213959 73.681046,382.142914 
	C71.937813,382.460876 70.516411,383.237518 69.164406,383.131287 
	C67.775398,383.022095 65.236771,381.917816 65.284927,381.476288 
	C66.073746,374.243774 61.095226,365.262451 71.193275,360.670441 
	C71.627686,360.472870 71.727196,359.538910 71.982712,358.947968 
	C93.524460,348.225128 115.051071,337.471710 136.613373,326.790375 
	C150.676834,319.823761 164.792160,312.961853 179.570450,306.094757 
	C184.507309,307.111786 188.757965,308.087097 193.008621,309.062439 
	C193.718552,309.085632 194.428482,309.108826 195.622696,309.471313 
	C199.088852,310.825348 202.070709,311.840057 205.052567,312.854736 
	C205.790268,312.898956 206.527969,312.943146 207.762390,313.278259 
	C208.527542,314.371307 208.795975,315.173462 209.064423,315.975586 
z"/>
<path fill="#040405" opacity="1.000000" stroke="none" 
	d="
M361.988373,395.944031 
	C347.006287,403.313293 332.024170,410.682556 316.428528,418.132294 
	C315.545319,418.436493 315.275635,418.660187 315.005951,418.883911 
	C314.866669,418.977600 314.727356,419.071289 314.276855,418.829376 
	C313.309845,416.167603 312.122711,413.849335 312.087860,411.513885 
	C311.915253,399.937469 312.046753,388.356567 312.071106,376.777222 
	C312.816315,376.763794 313.561554,376.750336 314.817200,377.171631 
	C317.410461,379.317474 319.177032,382.772919 322.278320,378.866516 
	C322.278320,378.866516 322.691010,378.839325 322.885376,379.296387 
	C323.743439,380.359894 324.407074,380.966339 325.070740,381.572754 
	C325.381378,381.043976 325.692017,380.515198 326.002686,379.986420 
	C326.624573,379.991028 327.246429,379.995605 328.126953,380.446503 
	C329.934692,385.239227 332.470917,383.589020 335.000092,381.981659 
	C335.172699,381.922211 335.345306,381.862762 335.950623,382.144928 
	C336.742981,382.603638 337.102661,382.720734 337.462341,382.837830 
	C343.392944,384.145111 349.323547,385.452393 355.798584,387.113525 
	C356.696625,387.583923 357.050232,387.700470 357.403839,387.817017 
	C357.403839,387.817017 357.707092,387.626740 357.878387,388.075500 
	C358.620728,389.353851 359.044769,390.713867 359.788574,390.920013 
	C362.775024,391.747620 362.919159,393.545441 361.988373,395.944031 
M326.293182,383.838440 
	C326.435150,383.918610 326.577118,383.998779 326.719086,384.078949 
	C326.657837,383.948090 326.596588,383.817200 326.293182,383.838440 
M323.485596,384.570038 
	C323.485596,384.570038 323.434631,384.478058 323.485596,384.570038 
z"/>
<path fill="#FCFDC7" opacity="1.000000" stroke="none" 
	d="
M419.637085,368.964478 
	C420.845398,369.174591 422.032196,369.857788 422.550598,369.518768 
	C428.959198,365.328369 434.878265,369.230713 440.831482,370.691010 
	C443.548615,371.357483 445.951904,373.303589 449.578583,375.249329 
	C446.948547,376.406372 445.136597,377.246765 443.287689,377.996063 
	C442.531128,378.302643 441.643555,378.298096 440.902893,378.629944 
	C435.570190,381.019226 430.236145,383.408722 424.961853,385.922607 
	C423.862213,386.446716 422.829681,387.350342 422.080170,388.321381 
	C420.440552,390.445618 418.980042,391.333588 416.347565,389.467712 
	C413.010529,387.102448 410.399597,387.720734 408.761505,391.985596 
	C406.329041,398.318695 400.210510,399.163452 394.621460,400.374390 
	C394.031891,400.502106 393.020355,397.891693 391.951843,396.798706 
	C390.607727,395.423889 389.176361,393.785553 387.464386,393.213654 
	C385.611816,392.594757 383.392578,393.073486 380.830841,393.073486 
	C384.004730,396.447845 386.593018,398.694611 388.541290,401.401978 
	C390.849243,404.609161 389.397644,407.472107 385.456940,407.343109 
	C378.325104,407.109650 373.339752,411.510254 367.752197,414.716644 
	C365.823608,415.823395 363.767548,416.707977 361.769714,417.694031 
	C361.183685,416.433807 359.823914,414.880920 360.167603,413.972382 
	C360.961090,411.874817 362.442505,409.974945 363.906433,408.212036 
	C365.224182,406.625122 367.002594,405.426910 368.374878,403.877472 
	C370.189575,401.828461 371.806549,399.604340 373.508484,397.455505 
	C373.979309,397.658813 374.450134,397.862122 374.920959,398.065430 
	C374.442017,396.742584 373.963104,395.419739 373.531555,394.227783 
	C377.328583,391.699341 381.104370,389.185028 384.934174,386.328491 
	C384.988220,385.986206 384.998291,385.998779 385.407410,385.999023 
	C387.780579,385.435486 389.732605,384.824310 391.712738,384.324371 
	C393.061615,383.983826 394.787201,383.148163 395.763397,383.654327 
	C400.605835,386.165192 403.445679,383.826477 405.512329,379.899048 
	C406.973633,377.121948 408.701080,376.511139 411.532837,377.719513 
	C413.082245,378.380646 414.871857,378.478943 416.553131,378.831024 
	C416.690247,378.428864 416.827332,378.026703 416.964417,377.624573 
	C416.054993,376.407288 415.145569,375.190002 414.334991,374.105042 
	C415.343353,372.830292 416.142853,371.819550 416.942383,370.808777 
	C416.942352,370.808777 416.941132,370.398651 417.182922,370.091614 
	C417.680817,369.600769 417.866028,369.362030 417.980377,369.068298 
	C418.421906,369.033020 418.863434,368.997742 419.637085,368.964478 
M432.063507,375.332520 
	C433.222412,376.071014 434.381348,376.809540 435.540283,377.548096 
	C435.998566,376.573151 437.032440,375.406403 436.785797,374.666382 
	C436.373779,373.430084 435.143311,372.466553 434.257416,371.388184 
	C433.512634,372.447540 432.767883,373.506897 432.063507,375.332520 
z"/>
<path fill="#9B828A" opacity="1.000000" stroke="none" 
	d="
M194.422394,75.068504 
	C195.452408,73.492149 196.743347,71.729767 198.260010,70.189659 
	C198.745697,69.696480 199.859619,69.878807 200.633453,69.603874 
	C209.001938,66.630653 208.931030,66.621742 209.038528,57.668049 
	C209.074051,54.709316 209.577988,51.757553 209.835663,48.799809 
	C210.198959,44.629257 211.072937,40.236042 205.460556,38.641922 
	C207.377762,35.758190 209.147888,33.095707 210.973343,30.058838 
	C211.239609,29.613945 211.450562,29.543434 211.894791,29.956516 
	C212.102570,40.422108 212.332611,50.414143 211.941315,60.381779 
	C211.752243,65.197685 212.977173,67.474457 218.045609,68.374016 
	C223.638535,69.366669 229.014420,71.582237 234.484833,73.265121 
	C233.942169,73.466309 233.399490,73.667488 232.045059,73.934540 
	C227.744949,72.957481 224.829163,73.485916 223.001221,76.999893 
	C221.955429,76.021523 220.984802,74.942108 219.843094,74.092628 
	C218.653717,73.207687 217.299286,72.544594 216.477524,72.057465 
	C215.918793,76.397171 215.072052,79.866760 215.097107,83.330048 
	C215.193207,96.617821 215.744461,109.903091 215.781128,123.190239 
	C215.807205,132.639893 215.069275,142.091797 215.100494,151.541260 
	C215.113708,155.542801 216.691498,159.538116 216.713867,163.540970 
	C216.739441,168.121536 215.602051,172.696518 215.380737,177.293716 
	C215.132675,182.446533 215.302872,187.622070 215.374176,192.786560 
	C215.408173,195.248337 215.791824,197.710388 215.745926,200.167267 
	C215.572388,209.460175 214.962265,218.757492 215.146683,228.040604 
	C215.296753,235.596222 216.848724,243.133163 216.860260,250.679779 
	C216.871857,258.260773 215.319077,265.838867 215.237549,273.426697 
	C215.150543,281.524536 215.740570,289.656158 216.535385,297.723694 
	C216.846008,300.876404 216.814758,303.278778 213.391510,304.490448 
	C212.832489,297.066925 212.706635,290.049652 212.580765,283.032379 
	C212.635254,279.973602 212.689758,276.914856 212.749008,272.955872 
	C212.639679,261.389648 212.525574,250.723663 212.411499,240.057678 
	C212.340683,230.626175 212.230225,221.194763 212.207214,211.763153 
	C212.158081,191.622620 212.143127,171.481995 212.134659,151.341400 
	C212.124008,126.040855 212.133820,100.740303 212.134796,75.439758 
	C212.134888,73.133949 212.134811,70.828140 212.134811,67.380783 
	C205.800797,70.148666 200.285797,72.558647 194.422394,75.068504 
z"/>
<path fill="#988895" opacity="1.000000" stroke="none" 
	d="
M47.735958,153.723419 
	C43.003021,154.642471 42.927509,158.084061 42.932095,162.127991 
	C43.017761,237.664474 42.995472,313.201111 43.002636,388.737701 
	C43.002903,391.540100 43.072006,394.342499 43.075447,397.498962 
	C42.388500,396.814728 41.224201,395.802002 41.170738,394.733704 
	C40.946304,390.249084 41.043213,385.747772 41.042137,381.252594 
	C41.024345,306.829041 41.007832,232.405518 41.004303,157.981979 
	C41.004219,156.196594 41.156643,154.411209 41.264870,152.034225 
	C43.680988,152.595901 45.573448,153.035843 47.735958,153.723419 
z"/>
<path fill="#06060B" opacity="1.000000" stroke="none" 
	d="
M254.055939,431.845490 
	C251.420670,431.811310 248.801941,431.285156 245.940826,430.443176 
	C247.438446,426.771118 250.141830,423.711243 248.031067,419.398590 
	C247.273315,417.850342 247.056335,415.909454 247.044556,414.144745 
	C246.963364,401.988739 247.030670,389.831848 246.984924,377.675507 
	C246.970505,373.844666 246.744339,370.117554 249.737198,366.943359 
	C250.573563,366.056335 250.184967,364.014313 250.179138,362.246582 
	C254.527740,360.665741 254.018326,363.842346 254.021133,366.516479 
	C254.043839,388.128845 254.056656,409.741180 254.055939,431.845490 
z"/>
<path fill="#D2E2EB" opacity="1.000000" stroke="none" 
	d="
M192.836273,308.734039 
	C188.757965,308.087097 184.507309,307.111786 179.887970,305.978180 
	C179.609589,301.165710 179.776337,296.511505 179.777924,291.857269 
	C179.789474,257.892853 179.767853,223.928406 179.777466,189.118637 
	C179.825089,187.204971 179.851959,186.136658 179.878845,185.068329 
	C180.252457,186.941818 180.948532,188.814728 180.951965,190.688919 
	C181.017166,226.290161 181.152023,261.892853 180.843765,297.491547 
	C180.795609,303.052094 182.479828,305.606323 187.720947,306.456024 
	C189.429062,306.732910 191.019608,307.735168 192.836273,308.734039 
z"/>
<path fill="#FBFBCE" opacity="1.000000" stroke="none" 
	d="
M416.555359,370.849579 
	C416.142853,371.819550 415.343353,372.830292 414.334991,374.105042 
	C415.145569,375.190002 416.054993,376.407288 416.964417,377.624573 
	C416.827332,378.026703 416.690247,378.428864 416.553131,378.831024 
	C414.871857,378.478943 413.082245,378.380646 411.532837,377.719513 
	C408.701080,376.511139 406.973633,377.121948 405.512329,379.899048 
	C403.445679,383.826477 400.605835,386.165192 395.763397,383.654327 
	C394.787201,383.148163 393.061615,383.983826 391.712738,384.324371 
	C389.732605,384.824310 387.780579,385.435486 385.403259,385.993591 
	C391.300476,382.627869 397.541809,379.127930 403.947052,375.959320 
	C407.891449,374.008118 412.086090,372.562805 416.555359,370.849579 
z"/>
<path fill="#06060B" opacity="1.000000" stroke="none" 
	d="
M211.147797,354.105225 
	C211.436203,353.443359 211.952911,353.067200 212.776367,352.580688 
	C221.575882,354.435425 230.068649,356.400513 238.778580,358.690186 
	C236.597580,359.524536 234.190842,360.482391 231.803329,360.436646 
	C228.409760,360.371582 224.956635,358.908447 221.666595,359.275665 
	C218.669266,359.610199 217.181778,358.950531 215.579697,356.589081 
	C214.797638,355.436340 212.815216,355.097931 211.147797,354.105225 
z"/>
<path fill="#0C070C" opacity="1.000000" stroke="none" 
	d="
M311.913757,376.511108 
	C312.046753,388.356567 311.915253,399.937469 312.087860,411.513885 
	C312.122711,413.849335 313.309845,416.167603 314.034485,418.897797 
	C313.277679,419.830414 312.452057,420.359009 311.352966,421.022888 
	C310.704742,419.492767 310.016235,417.829468 310.004822,416.161530 
	C309.915131,403.069733 309.955139,389.977081 309.963074,376.412903 
	C310.566193,376.042389 311.161316,376.143677 311.913757,376.511108 
z"/>
<path fill="#D1E1EE" opacity="1.000000" stroke="none" 
	d="
M180.482498,143.909393 
	C180.029678,139.234589 179.953735,134.440781 179.797546,128.713867 
	C179.739655,113.245117 179.762054,98.709488 179.952362,83.877792 
	C180.632874,83.165604 181.145477,82.749474 181.658081,82.333344 
	C181.443665,96.203629 181.122177,110.073524 181.070862,123.944412 
	C181.052017,129.041748 181.778275,134.138199 181.934860,139.242096 
	C181.980988,140.745804 181.239761,142.273636 180.482498,143.909393 
z"/>
<path fill="#D2E2EB" opacity="1.000000" stroke="none" 
	d="
M212.093628,240.219208 
	C212.525574,250.723663 212.639679,261.389648 212.641739,272.509277 
	C212.025604,272.046082 211.093430,271.133850 211.083542,270.211670 
	C210.983109,260.852142 211.020065,251.490906 211.072479,242.130478 
	C211.075745,241.545929 211.530853,240.963928 212.093628,240.219208 
z"/>
<path fill="#D2E0ED" opacity="1.000000" stroke="none" 
	d="
M69.045128,119.490501 
	C75.136009,120.436951 81.335678,121.652222 87.499916,123.026451 
	C90.529579,123.701866 93.493591,124.671761 96.732178,125.797791 
	C96.238525,126.386597 95.415359,127.069153 94.774261,126.927528 
	C86.106628,125.012840 77.091354,124.318115 69.045128,119.490501 
z"/>
<path fill="#16181D" opacity="1.000000" stroke="none" 
	d="
M362.344177,395.917053 
	C362.919159,393.545441 362.775024,391.747620 359.788574,390.920013 
	C359.044769,390.713867 358.620728,389.353851 358.044098,388.143127 
	C362.414642,388.660645 366.790802,389.559265 371.415405,390.714478 
	C368.675934,392.610718 365.687958,394.250397 362.344177,395.917053 
z"/>
<path fill="#D2E2EB" opacity="1.000000" stroke="none" 
	d="
M209.405869,315.938080 
	C208.795975,315.173462 208.527542,314.371307 208.132050,313.274048 
	C209.359497,312.356079 210.714005,311.733307 212.387970,311.061218 
	C212.791061,311.176208 212.874680,311.340515 213.064880,312.027222 
	C213.450638,312.715515 213.729797,312.881409 214.008957,313.047302 
	C214.194260,313.066956 214.379562,313.086609 214.842743,313.142212 
	C217.252396,314.119720 219.352493,315.144135 221.526352,315.975739 
	C223.146408,316.595459 224.861893,316.965637 226.765396,317.737610 
	C222.604767,317.983032 218.213623,317.937866 213.478363,317.928589 
	C213.224884,315.275085 211.972672,314.789368 209.405869,315.938080 
z"/>
<path fill="#9B828A" opacity="1.000000" stroke="none" 
	d="
M181.851822,82.078842 
	C181.145477,82.749474 180.632874,83.165604 179.603149,83.822662 
	C178.391342,84.123299 177.696655,84.183006 177.001968,84.242722 
	C176.953079,79.894302 178.847961,77.770027 183.439499,78.130913 
	C184.461624,78.211243 185.520599,76.790260 186.677597,76.416756 
	C188.661911,75.776192 190.736877,75.416367 193.135910,75.108398 
	C189.680557,77.460190 185.863052,79.642265 181.851822,82.078842 
z"/>
<path fill="#D2E2EB" opacity="1.000000" stroke="none" 
	d="
M212.239227,283.176910 
	C212.706635,290.049652 212.832489,297.066925 213.037537,304.548828 
	C213.071106,305.759735 213.025482,306.506042 212.918839,307.878540 
	C212.765564,308.670441 212.673340,308.836060 212.581100,309.001648 
	C212.177979,308.729675 211.419647,308.452881 211.423248,308.186432 
	C211.535599,299.897491 211.722366,291.609528 212.239227,283.176910 
z"/>
<path fill="#0D101A" opacity="1.000000" stroke="none" 
	d="
M160.747925,180.782700 
	C159.280930,182.148117 157.648163,183.817963 155.845032,184.028488 
	C155.056076,184.120590 153.918854,181.229416 152.966309,179.382584 
	C155.499527,179.546280 158.006226,180.020355 160.747925,180.782700 
M155.480850,181.578140 
	C155.480850,181.578140 155.428482,181.486313 155.480850,181.578140 
z"/>
<path fill="#988895" opacity="1.000000" stroke="none" 
	d="
M63.602135,159.634766 
	C60.217556,159.566574 56.952389,159.180145 53.090950,158.723145 
	C53.856918,157.482513 54.323658,156.726532 54.856918,155.688354 
	C57.762688,156.129700 60.601940,156.853226 63.740372,157.787018 
	C63.933552,158.437027 63.827549,158.876755 63.602135,159.634766 
z"/>
<path fill="#D2E0ED" opacity="1.000000" stroke="none" 
	d="
M130.074173,134.432831 
	C134.934601,135.119644 139.897308,136.170303 144.953583,137.577194 
	C140.090240,136.887833 135.133347,135.842255 130.074173,134.432831 
z"/>
<path fill="#D2E0ED" opacity="1.000000" stroke="none" 
	d="
M52.037727,115.495689 
	C56.127056,116.263832 60.309505,117.359512 64.746140,118.722176 
	C59.789242,121.678764 56.078892,118.267899 52.037727,115.495689 
z"/>
<path fill="#D2E0ED" opacity="1.000000" stroke="none" 
	d="
M160.195953,141.261017 
	C164.560379,142.080002 169.080399,143.229996 173.849579,144.638672 
	C169.516342,143.795593 164.933945,142.693817 160.195953,141.261017 
z"/>
<path fill="#D2E0ED" opacity="1.000000" stroke="none" 
	d="
M145.273682,138.236847 
	C148.853012,138.462067 152.663681,138.973679 156.730682,139.768936 
	C153.159683,139.542786 149.332352,139.033005 145.273682,138.236847 
z"/>
<path fill="#D2E2EB" opacity="1.000000" stroke="none" 
	d="
M204.981873,312.505859 
	C202.070709,311.840057 199.088852,310.825348 195.977875,309.473267 
	C199.248260,309.006958 202.840012,308.301300 204.981873,312.505859 
z"/>
<path fill="#06060B" opacity="1.000000" stroke="none" 
	d="
M248.930862,361.375854 
	C245.795273,364.075012 243.109482,363.568604 241.054962,359.572083 
	C243.576050,359.834229 246.159134,360.447601 248.930862,361.375854 
z"/>
<path fill="#D2E0ED" opacity="1.000000" stroke="none" 
	d="
M114.067352,130.436432 
	C116.806206,130.554169 119.639839,131.024612 122.732254,131.772522 
	C120.048073,131.629700 117.105110,131.209412 114.067352,130.436432 
z"/>
<path fill="#0C070C" opacity="1.000000" stroke="none" 
	d="
M322.013550,378.591797 
	C319.177032,382.772919 317.410461,379.317474 315.164795,377.307190 
	C317.250885,377.444397 319.499817,377.880768 322.013550,378.591797 
z"/>
<path fill="#0C070C" opacity="1.000000" stroke="none" 
	d="
M334.640839,381.860077 
	C332.470917,383.589020 329.934692,385.239227 328.429321,380.519348 
	C330.409210,380.676727 332.345398,381.207611 334.640839,381.860077 
z"/>
<path fill="#0D101A" opacity="1.000000" stroke="none" 
	d="
M179.633362,185.005646 
	C179.851959,186.136658 179.825089,187.204971 179.691010,188.660461 
	C178.725067,187.936920 177.866348,186.826233 177.001587,185.348343 
	C177.793015,184.968414 178.590454,184.955688 179.633362,185.005646 
z"/>
<path fill="#D2E2EB" opacity="1.000000" stroke="none" 
	d="
M230.052460,318.472900 
	C232.204529,318.863312 234.450546,319.592804 236.895752,320.612274 
	C234.778748,320.205475 232.462570,319.508728 230.052460,318.472900 
z"/>
<path fill="#0D101A" opacity="1.000000" stroke="none" 
	d="
M175.369461,184.439072 
	C173.482971,184.412842 171.342682,184.078903 169.109802,183.350922 
	C171.050018,183.348404 173.082840,183.739883 175.369461,184.439072 
z"/>
<path fill="#D2E0ED" opacity="1.000000" stroke="none" 
	d="
M125.056488,132.508179 
	C126.261864,132.535690 127.568428,132.896942 128.968567,133.606232 
	C127.760658,133.583511 126.459167,133.212723 125.056488,132.508179 
z"/>
<path fill="#0C070C" opacity="1.000000" stroke="none" 
	d="
M325.810547,379.708618 
	C325.692017,380.515198 325.381378,381.043976 325.070740,381.572754 
	C324.407074,380.966339 323.743439,380.359894 323.039062,379.434814 
	C323.871674,379.221069 324.745056,379.325958 325.810547,379.708618 
z"/>
<path fill="#D2E0ED" opacity="1.000000" stroke="none" 
	d="
M107.996582,128.431625 
	C108.506065,128.287292 109.071098,128.409988 109.816956,128.770462 
	C109.349228,128.905060 108.700684,128.801849 107.996582,128.431625 
z"/>
<path fill="#9B828A" opacity="1.000000" stroke="none" 
	d="
M212.718079,309.251343 
	C212.673340,308.836060 212.765564,308.670441 212.981827,308.248688 
	C213.581299,308.311737 214.056747,308.630920 214.532196,308.950073 
	C214.245865,309.268829 213.959534,309.587585 213.398361,309.954895 
	C213.034012,309.835938 212.944534,309.668457 212.718079,309.251343 
z"/>
<path fill="#D2E0ED" opacity="1.000000" stroke="none" 
	d="
M103.009033,127.384499 
	C103.525169,127.245705 104.088348,127.380325 104.826096,127.757065 
	C104.352470,127.885437 103.704269,127.771675 103.009033,127.384499 
z"/>
<path fill="#0D101A" opacity="1.000000" stroke="none" 
	d="
M151.161163,178.533356 
	C150.578995,178.780334 149.827179,178.724564 149.030930,178.401062 
	C149.654831,178.165741 150.323166,178.198166 151.161163,178.533356 
z"/>
<path fill="#0D101A" opacity="1.000000" stroke="none" 
	d="
M147.934692,177.647263 
	C147.234924,177.850113 146.365173,177.744522 145.254349,177.410614 
	C145.930435,177.234482 146.847565,177.286652 147.934692,177.647263 
z"/>
<path fill="#16181D" opacity="1.000000" stroke="none" 
	d="
M357.263184,387.546997 
	C357.050232,387.700470 356.696625,387.583923 356.171509,387.236877 
	C356.374207,387.096588 356.748352,387.186798 357.263184,387.546997 
z"/>
<path fill="#0C070C" opacity="1.000000" stroke="none" 
	d="
M337.309448,382.569519 
	C337.102661,382.720734 336.742981,382.603638 336.195618,382.267273 
	C336.390808,382.132385 336.773712,382.216797 337.309448,382.569519 
z"/>
<path fill="#D1E1EE" opacity="1.000000" stroke="none" 
	d="
M179.212173,144.891724 
	C179.118530,144.684952 179.310837,144.447739 179.789291,144.183212 
	C179.889511,144.396896 179.697067,144.632019 179.212173,144.891724 
z"/>
<path fill="#FBFBCE" opacity="1.000000" stroke="none" 
	d="
M417.761719,369.152954 
	C417.866028,369.362030 417.680817,369.600769 417.220917,369.890076 
	C417.097168,369.676819 417.272491,369.424164 417.761719,369.152954 
z"/>
<path fill="#010103" opacity="1.000000" stroke="none" 
	d="
M402.013947,342.000183 
	C400.718353,341.620758 399.422791,341.241333 397.554688,340.873444 
	C396.821075,340.946930 396.660004,341.008881 396.470093,341.099487 
	C396.441284,341.128204 396.375305,341.206848 396.273621,341.047150 
	C396.171906,340.887451 395.808228,340.992981 395.808228,340.992981 
	C386.533600,338.787994 377.258972,336.583008 367.468323,333.819702 
	C365.962738,333.242706 364.973145,333.223999 363.648651,332.976135 
	C362.536530,332.683624 361.759277,332.620331 360.917847,332.498688 
	C360.853668,332.440338 360.563049,332.565308 360.323639,332.328217 
	C356.722595,331.426208 353.360931,330.761292 349.746490,329.991608 
	C349.325775,329.958313 349.157898,330.029755 348.990051,330.101166 
	C340.964905,327.905701 332.971893,325.581573 324.902435,323.563293 
	C320.112030,322.365173 315.201080,321.648895 310.134399,320.377625 
	C309.924469,279.936493 309.924469,239.833649 309.924469,199.533844 
	C348.453064,180.674881 386.836090,161.887177 425.616211,143.551422 
	C426.074768,152.341492 426.136200,160.679657 426.117432,169.479218 
	C426.027679,212.168259 426.004028,254.395889 426.017120,296.623535 
	C426.021057,309.420319 426.126556,322.217072 426.099365,335.467957 
	C426.008087,339.659149 426.002991,343.396179 425.997864,347.133240 
	C418.578613,345.527374 411.159363,343.921509 403.148193,342.140015 
	C402.375519,341.976349 402.194733,341.988251 402.013947,342.000183 
z"/>
<path fill="#BDDAFE" opacity="1.000000" stroke="none" 
	d="
M426.185547,335.013855 
	C426.126556,322.217072 426.021057,309.420319 426.017120,296.623535 
	C426.004028,254.395889 426.027679,212.168259 426.489624,169.351883 
	C427.293030,166.068375 427.783295,163.383087 427.968109,160.676956 
	C428.453918,153.562592 425.867249,145.741760 432.872498,140.165039 
	C433.108185,139.977417 432.882965,139.210846 432.872620,138.714142 
	C433.309326,138.443802 433.746033,138.173447 434.878296,137.927368 
	C439.682007,136.610886 443.831177,135.376190 447.856750,133.821487 
	C448.502960,133.571930 448.597137,131.892960 448.946503,130.874756 
	C450.082367,130.282303 451.218231,129.689850 452.883392,129.325195 
	C454.907379,131.371750 456.402039,133.190460 457.896698,135.009186 
	C457.965027,153.290451 458.079956,171.571701 458.091827,189.852997 
	C458.114777,225.257797 458.079742,260.662628 457.868958,296.628479 
	C457.780212,297.460510 457.891174,297.731476 458.002167,298.002441 
	C458.037994,321.023376 458.073822,344.044342 457.700531,367.575867 
	C452.850525,368.394226 448.409637,368.701996 443.968750,369.009766 
	C443.968750,369.009766 443.489410,368.999939 443.197205,368.612610 
	C440.166626,364.482666 434.670044,363.349670 432.023956,365.982422 
	C431.255310,365.975311 430.486694,365.968201 429.352905,365.490417 
	C428.658081,359.569855 428.454346,354.108521 427.959869,348.673645 
	C427.544159,344.104370 426.789917,339.565948 426.185547,335.013855 
z"/>
<path fill="#BED9FB" opacity="1.000000" stroke="none" 
	d="
M286.737579,313.627350 
	C275.595795,311.714630 264.589417,309.340485 253.534546,306.649292 
	C253.668549,305.046417 254.009506,303.760712 254.010376,302.474701 
	C254.031342,271.394012 254.015945,240.313309 254.007278,209.232605 
	C254.006638,206.953384 254.007202,204.674179 254.007202,202.654373 
	C247.980591,201.262909 242.545120,200.007935 237.109665,198.752960 
	C236.658020,197.059738 235.829956,195.369659 235.815842,193.672806 
	C235.724808,182.727295 235.811615,171.780319 235.906647,160.354645 
	C248.065369,162.319229 260.173492,164.687546 272.241608,167.244705 
	C276.911530,168.234238 281.490784,169.651520 286.475891,170.927979 
	C286.902832,194.096024 287.010925,217.210022 287.015137,240.324036 
	C287.019562,264.604675 286.924561,288.885284 286.737579,313.627350 
z"/>
<path fill="#C1D6EB" opacity="1.000000" stroke="none" 
	d="
M432.509949,138.773499 
	C432.882965,139.210846 433.108185,139.977417 432.872498,140.165039 
	C425.867249,145.741760 428.453918,153.562592 427.968109,160.676956 
	C427.783295,163.383087 427.293030,166.068375 426.569824,168.890472 
	C426.136200,160.679657 426.074768,152.341492 425.973145,143.541275 
	C428.004425,141.663757 430.075867,140.248322 432.509949,138.773499 
z"/>
<path fill="#C1D6EB" opacity="1.000000" stroke="none" 
	d="
M444.222260,369.275116 
	C448.409637,368.701996 452.850525,368.394226 457.652313,368.042480 
	C458.011292,369.466980 458.009338,370.935455 457.834503,372.712463 
	C453.266327,371.860809 448.871063,370.700623 444.222260,369.275116 
z"/>
<path fill="#C1D6EB" opacity="1.000000" stroke="none" 
	d="
M448.590637,130.936890 
	C448.597137,131.892960 448.502960,133.571930 447.856750,133.821487 
	C443.831177,135.376190 439.682007,136.610886 435.140381,137.906891 
	C439.216187,135.574417 443.725494,133.286713 448.590637,130.936890 
z"/>
<path fill="#C1D6EB" opacity="1.000000" stroke="none" 
	d="
M457.973145,134.573929 
	C456.402039,133.190460 454.907379,131.371750 453.207764,129.284485 
	C454.311005,128.270935 455.619171,127.525925 458.049591,126.141792 
	C458.049591,129.546555 458.049591,131.842621 457.973145,134.573929 
z"/>
<path fill="#C1D6EB" opacity="1.000000" stroke="none" 
	d="
M458.040344,297.751038 
	C457.891174,297.731476 457.780212,297.460510 457.823120,297.095398 
	C458.010834,297.167389 458.044647,297.333527 458.040344,297.751038 
z"/>
<path fill="#BED9FA" opacity="1.000000" stroke="none" 
	d="
M234.494568,73.363312 
	C229.014420,71.582237 223.638535,69.366669 218.045609,68.374016 
	C212.977173,67.474457 211.752243,65.197685 211.941315,60.381779 
	C212.332611,50.414143 212.102570,40.422108 212.226807,29.923733 
	C216.337540,30.028473 220.405960,30.404428 224.351715,31.313118 
	C241.477036,35.257000 258.596191,39.235882 275.659851,43.436634 
	C289.651154,46.881039 303.501007,50.910866 317.522522,54.219196 
	C333.945374,58.094109 350.518921,61.326675 366.964935,65.108200 
	C378.728180,67.812981 390.388489,70.965012 402.095856,73.913078 
	C408.953308,75.639877 415.812897,77.358032 422.671539,79.080078 
	C422.765289,79.591431 422.859039,80.102783 422.952820,80.614136 
	C418.148590,83.287453 413.451202,86.179657 408.517639,88.588051 
	C398.562439,93.447838 388.488678,98.065804 378.439697,102.731590 
	C376.497742,103.633255 374.445679,104.297867 371.652649,105.146240 
	C361.460297,103.064651 352.042572,100.980400 342.662384,98.739120 
	C315.384735,92.221451 288.139191,85.568520 260.843628,79.127213 
	C252.184525,77.083786 243.407806,75.538681 234.636047,73.699966 
	C234.587173,73.634392 234.423767,73.641632 234.423767,73.641632 
	C234.423767,73.641632 234.504303,73.461494 234.494568,73.363312 
z"/>
<path fill="#030305" opacity="1.000000" stroke="none" 
	d="
M234.684906,73.765541 
	C243.407806,75.538681 252.184525,77.083786 260.843628,79.127213 
	C288.139191,85.568520 315.384735,92.221451 342.662384,98.739120 
	C352.042572,100.980400 361.460297,103.064651 371.254913,105.188232 
	C362.867615,109.657379 354.149628,114.288010 345.292267,118.634682 
	C324.261688,128.955307 303.219849,139.257507 282.030029,149.243530 
	C279.194031,150.580017 275.307129,150.864548 272.194946,150.227936 
	C260.331970,147.801346 248.586960,144.797943 236.404968,141.992783 
	C235.901718,141.528488 235.791397,141.081436 235.669159,140.013855 
	C235.577133,138.554459 235.497025,137.715591 235.416931,136.876740 
	C235.460526,135.241455 235.504135,133.606186 235.582611,131.177826 
	C235.518723,124.206306 235.419952,118.027863 235.321167,111.849419 
	C235.395523,107.578171 235.469879,103.306931 235.542114,98.177902 
	C235.254990,89.468590 234.969955,81.617065 234.684906,73.765541 
z"/>
<path fill="#070508" opacity="1.000000" stroke="none" 
	d="
M176.752533,84.470322 
	C177.696655,84.183006 178.391342,84.123299 179.435242,84.118729 
	C179.762054,98.709488 179.739655,113.245117 179.729858,128.232178 
	C165.763214,125.401596 151.783981,122.119598 137.319351,118.427490 
	C133.760315,116.599480 130.686661,115.181572 126.830803,113.402817 
	C127.239952,112.422791 128.056412,110.467133 128.872864,108.511475 
	C129.110260,108.386536 129.347672,108.261597 129.913361,108.440842 
	C130.319931,108.590645 130.398239,108.436264 130.476562,108.281876 
	C130.838943,107.903145 131.201324,107.524406 132.201675,107.387589 
	C133.899872,106.857124 134.960114,106.084740 136.020370,105.312347 
	C149.514603,98.440880 163.008850,91.569405 176.752533,84.470322 
z"/>
<path fill="#110E0C" opacity="1.000000" stroke="none" 
	d="
M128.506866,108.590515 
	C128.056412,110.467133 127.239952,112.422791 126.830803,113.402817 
	C130.686661,115.181572 133.760315,116.599480 136.925491,118.334976 
	C130.597687,117.240845 124.178337,115.829132 117.443527,114.159615 
	C120.798996,112.157730 124.469933,110.413643 128.506866,108.590515 
z"/>
<path fill="#F9F4D5" opacity="1.000000" stroke="none" 
	d="
M71.616501,358.989014 
	C71.727196,359.538910 71.627686,360.472870 71.193275,360.670441 
	C61.095226,365.262451 66.073746,374.243774 65.284927,381.476288 
	C65.236771,381.917816 67.775398,383.022095 69.164406,383.131287 
	C70.516411,383.237518 71.937813,382.460876 73.730751,382.131348 
	C71.162468,383.933624 68.192177,385.676422 65.001541,387.702515 
	C64.781204,387.985779 64.392487,387.993073 64.198181,387.991699 
	C63.864265,379.676453 63.724667,371.362518 63.646027,362.668488 
	C66.221413,361.202240 68.735840,360.116150 71.616501,358.989014 
z"/>
<path fill="#06060B" opacity="1.000000" stroke="none" 
	d="
M241.719193,429.062378 
	C240.337494,429.142944 239.298218,429.004364 238.076080,428.607605 
	C239.115677,426.678314 240.338104,425.007172 241.560532,423.336060 
	C242.011078,423.468140 242.461609,423.600220 242.912155,423.732300 
	C242.628632,425.435913 242.345123,427.139557 241.719193,429.062378 
z"/>
<path fill="#F9F4D5" opacity="1.000000" stroke="none" 
	d="
M76.643250,381.288147 
	C76.970963,376.045135 81.506981,378.107605 84.820496,377.065125 
	C82.496552,378.484741 79.746384,379.877869 76.643250,381.288147 
z"/>
<path fill="#F9F4D5" opacity="1.000000" stroke="none" 
	d="
M74.440277,382.263580 
	C74.590736,381.879333 75.052475,381.509094 75.835739,381.179626 
	C75.688690,381.572754 75.220116,381.925171 74.440277,382.263580 
z"/>
<path fill="#040306" opacity="1.000000" stroke="none" 
	d="
M236.698318,198.956848 
	C242.545120,200.007935 247.980591,201.262909 254.007202,202.654373 
	C254.007202,204.674179 254.006638,206.953384 254.007278,209.232605 
	C254.015945,240.313309 254.031342,271.394012 254.010376,302.474701 
	C254.009506,303.760712 253.668549,305.046417 253.127808,306.559570 
	C247.331909,305.745880 241.894241,304.704895 236.250305,303.312500 
	C235.942245,290.647552 235.781631,278.334167 235.752045,266.020447 
	C235.703613,245.870621 235.724167,225.720551 235.765228,205.570679 
	C235.769592,203.433685 236.105087,201.297394 236.698318,198.956848 
z"/>
<path fill="#9E7E80" opacity="1.000000" stroke="none" 
	d="
M223.001038,77.389465 
	C224.829163,73.485916 227.744949,72.957481 231.615112,74.002953 
	C232.869751,80.097321 227.070694,79.300385 223.590591,82.257034 
	C223.340561,80.358505 223.170700,79.068771 223.001038,77.389465 
z"/>
<path fill="#F8F7C7" opacity="1.000000" stroke="none" 
	d="
M229.679535,306.026001 
	C230.737915,306.278748 231.471115,306.771362 232.254578,306.871704 
	C233.987991,307.093628 235.746643,307.118347 237.649902,307.232819 
	C237.809448,312.088806 233.721161,310.571289 231.783478,311.900146 
	C229.366684,313.557648 228.105072,311.517242 226.337524,310.064178 
	C226.000000,310.000000 225.998840,309.999115 225.998840,309.999115 
	C225.971741,309.699646 225.944626,309.400146 225.878845,308.647400 
	C227.019196,307.492065 228.198166,306.789978 229.679535,306.026001 
z"/>
<path fill="#9B828A" opacity="1.000000" stroke="none" 
	d="
M234.636047,73.699966 
	C234.969955,81.617065 235.254990,89.468590 235.431305,97.734070 
	C234.881729,93.028931 234.346710,87.915497 234.037872,82.788437 
	C233.871582,80.027908 234.092896,77.244034 234.281555,74.056160 
	C234.423767,73.641632 234.587173,73.634392 234.636047,73.699966 
z"/>
<path fill="#9B828A" opacity="1.000000" stroke="none" 
	d="
M234.984467,112.136368 
	C235.419952,118.027863 235.518723,124.206306 235.481354,130.779816 
	C235.112717,124.924347 234.880219,118.673828 234.984467,112.136368 
z"/>
<path fill="#9B828A" opacity="1.000000" stroke="none" 
	d="
M235.041992,136.931366 
	C235.497025,137.715591 235.577133,138.554459 235.535843,139.695251 
	C234.160126,139.900177 232.905807,139.803177 231.651489,139.706177 
	C231.538406,139.373550 231.425308,139.040909 231.312225,138.708282 
	C232.430496,138.134186 233.548767,137.560089 235.041992,136.931366 
z"/>
<path fill="#9B828A" opacity="1.000000" stroke="none" 
	d="
M220.617645,305.533325 
	C220.957062,306.331543 221.009735,307.005371 221.062408,307.679199 
	C220.491959,307.503174 219.921509,307.327148 219.351044,307.151123 
	C219.677643,306.570404 220.004257,305.989685 220.617645,305.533325 
z"/>
<path fill="#9B828A" opacity="1.000000" stroke="none" 
	d="
M228.016693,298.091492 
	C228.663284,298.512146 228.997620,298.934540 229.331955,299.356934 
	C228.459167,299.361816 227.586395,299.366699 226.713623,299.371582 
	C227.043900,298.945496 227.374176,298.519379 228.016693,298.091492 
z"/>
<path fill="#9B828A" opacity="1.000000" stroke="none" 
	d="
M233.139908,300.576904 
	C232.498734,300.069672 231.993469,299.325653 231.488190,298.581604 
	C231.972916,298.415222 232.457642,298.248871 232.942352,298.082489 
	C233.053513,298.835022 233.164658,299.587555 233.139908,300.576904 
z"/>
<path fill="#9B828A" opacity="1.000000" stroke="none" 
	d="
M213.915955,312.837891 
	C213.729797,312.881409 213.450638,312.715515 213.162094,312.286072 
	C213.434830,312.159546 213.658234,312.361572 213.915955,312.837891 
z"/>
<path fill="#110E0C" opacity="1.000000" stroke="none" 
	d="
M135.682800,105.290482 
	C134.960114,106.084740 133.899872,106.857124 132.492340,107.403168 
	C133.211792,106.540756 134.278503,105.904686 135.682800,105.290482 
z"/>
<path fill="#9B828A" opacity="1.000000" stroke="none" 
	d="
M201.464142,36.522804 
	C201.441040,36.479961 201.487228,36.565647 201.464142,36.522804 
z"/>
<path fill="#110E0C" opacity="1.000000" stroke="none" 
	d="
M130.454529,108.306099 
	C130.398239,108.436264 130.319931,108.590645 130.306885,108.524940 
	C130.372162,108.304855 130.432495,108.330315 130.454529,108.306099 
z"/>
<path fill="#FCFCC8" opacity="1.000000" stroke="none" 
	d="
M360.982056,332.557037 
	C361.759277,332.620331 362.536530,332.683624 363.647797,333.273743 
	C363.988708,334.197113 363.995575,334.593658 364.002441,334.990234 
	C364.118683,335.303436 364.309540,335.561432 364.787048,336.132111 
	C364.999420,336.667084 364.999725,336.834137 365.000000,337.001221 
	C364.684784,337.471069 364.369568,337.940918 363.736908,338.852356 
	C362.280060,339.862640 361.140656,340.431335 360.001221,341.000000 
	C358.384125,337.425262 354.812408,338.331146 353.369415,339.747925 
	C347.710022,345.304535 341.082275,342.912018 335.923615,340.877197 
	C331.876678,339.280853 327.944489,338.902344 323.956604,338.077393 
	C318.866821,337.024506 313.473877,337.347168 309.573242,332.592468 
	C308.452484,331.226288 305.304810,331.522949 303.025177,331.044342 
	C305.261261,329.204102 306.987885,327.243835 309.151794,326.143921 
	C311.646423,324.875885 314.458313,323.335938 317.157562,326.430420 
	C317.865356,327.241882 319.903625,327.630280 320.988708,327.246185 
	C325.445190,325.668793 329.123627,326.201263 332.462585,329.783875 
	C333.354523,330.740906 335.207123,331.005432 336.668640,331.188080 
	C340.093658,331.616119 343.548920,331.802155 346.991943,332.086151 
	C347.074341,332.615173 347.156738,333.144196 347.239136,333.673218 
	C347.725037,332.685303 348.210938,331.697388 348.843445,330.405334 
	C349.157898,330.029755 349.325775,329.958313 349.756958,330.345673 
	C351.014709,332.203369 352.009186,333.602203 353.013245,335.223022 
	C353.353241,335.626892 353.683655,335.808807 354.259949,335.992493 
	C354.505829,335.994232 354.997620,335.998779 355.150482,336.211670 
	C355.869293,336.282623 356.435242,336.140686 357.248230,335.997498 
	C357.495300,335.996216 357.989410,335.994202 358.206238,335.881897 
	C358.693207,335.570190 358.887146,335.313263 359.253357,334.999390 
	C359.501831,335.000000 359.998779,335.001221 360.212311,334.885803 
	C360.693146,334.570404 360.883698,334.313477 360.995514,333.638916 
	C360.989746,333.037872 360.985901,332.797455 360.982056,332.557037 
M338.479523,336.725250 
	C338.729523,336.988251 338.977203,337.253723 339.242401,337.500397 
	C339.249237,337.506775 339.447510,337.307343 339.556488,337.203888 
	C339.306183,336.940796 339.055847,336.677673 338.479523,336.725250 
z"/>
<path fill="#FBFBC7" opacity="1.000000" stroke="none" 
	d="
M396.498932,341.070801 
	C396.660004,341.008881 396.821075,340.946930 397.225891,340.972076 
	C400.606995,346.225952 406.447021,345.189606 411.022858,347.083740 
	C415.293732,348.851685 419.268127,351.342163 423.278534,353.676941 
	C423.343018,353.714508 422.487183,356.226074 421.563293,356.878113 
	C419.758820,358.151642 417.601990,358.925873 414.316620,360.528503 
	C408.249451,358.828918 400.679932,356.593964 393.042084,354.623688 
	C389.861023,353.803131 386.472260,353.776764 383.304688,352.920410 
	C382.042267,352.579132 380.310913,351.018097 380.246826,349.926910 
	C380.161560,348.476379 381.190216,346.652435 382.279694,345.497955 
	C385.700500,341.873077 390.442871,341.795898 395.398438,341.156708 
	C395.808228,340.992981 396.171906,340.887451 395.898132,341.179871 
	C395.563354,341.824829 395.502380,342.177338 395.441406,342.529846 
	C395.793915,342.043488 396.146423,341.557159 396.498932,341.070801 
z"/>
<path fill="#FDFEC6" opacity="1.000000" stroke="none" 
	d="
M255.005356,311.995270 
	C255.005356,311.995270 255.500641,311.994263 255.963562,312.244568 
	C258.284332,312.663239 260.142151,312.831635 262.000000,313.000031 
	C266.569153,313.667969 271.228607,313.973969 275.686829,315.086426 
	C282.854767,316.875031 289.884827,319.213470 296.983459,321.284149 
	C299.646698,322.060974 302.338776,322.738892 305.798798,323.672699 
	C299.286499,328.493286 271.536011,328.058685 265.706757,322.973572 
	C269.397583,322.973572 272.133484,323.168671 274.815094,322.872498 
	C275.814331,322.762146 276.686737,321.503510 277.616974,320.768494 
	C276.684204,319.912201 275.341400,318.132202 274.879730,318.337158 
	C267.055328,321.810730 261.492889,315.211212 254.227020,313.705902 
	C252.124512,311.598511 250.562378,309.802307 249.000259,308.006104 
	C250.624557,308.776489 252.248871,309.546875 254.054352,310.869843 
	C254.435883,311.688965 254.692490,311.879913 255.005356,311.995270 
z"/>
<path fill="#FCFDC6" opacity="1.000000" stroke="none" 
	d="
M359.765930,341.281921 
	C361.140656,340.431335 362.280060,339.862640 363.710327,339.146362 
	C367.902222,339.689911 371.839844,340.233307 375.676270,341.184753 
	C376.544586,341.400116 377.461151,342.989929 377.575562,344.032654 
	C377.635315,344.576965 376.058350,345.425995 375.104553,345.907562 
	C374.568054,346.178467 373.612610,346.256165 373.156982,345.953125 
	C368.122375,342.604889 363.196136,344.428772 358.134308,345.904083 
	C356.645660,346.337921 354.819733,345.614471 353.148376,345.421387 
	C353.115265,344.977966 353.082153,344.534576 353.049042,344.091156 
	C355.209564,343.248718 357.370087,342.406281 359.765930,341.281921 
z"/>
<path fill="#FDFCC6" opacity="1.000000" stroke="none" 
	d="
M248.663712,308.065918 
	C250.562378,309.802307 252.124512,311.598511 253.843018,313.696747 
	C248.130463,316.977356 242.212311,319.581940 235.245621,316.940552 
	C239.904358,313.801331 244.115768,310.963562 248.663712,308.065918 
z"/>
<path fill="#C1D6EB" opacity="1.000000" stroke="none" 
	d="
M426.099365,335.467957 
	C426.789917,339.565948 427.544159,344.104370 427.959869,348.673645 
	C428.454346,354.108521 428.658081,359.569855 428.971832,365.437744 
	C427.988342,362.960663 426.613434,360.126862 426.166412,357.153564 
	C425.707977,354.104279 426.157166,350.918579 426.103516,347.462891 
	C426.002991,343.396179 426.008087,339.659149 426.099365,335.467957 
z"/>
<path fill="#C1D6EB" opacity="1.000000" stroke="none" 
	d="
M432.355530,366.150391 
	C434.670044,363.349670 440.166626,364.482666 442.958923,368.586456 
	C439.570923,368.071198 436.129028,367.194763 432.355530,366.150391 
z"/>
<path fill="#FCFDC6" opacity="1.000000" stroke="none" 
	d="
M252.557632,321.907318 
	C251.842117,320.779388 251.518341,319.707184 251.194550,318.634949 
	C253.836060,317.838776 256.513092,316.930176 258.182343,321.390259 
	C256.188629,321.608459 254.568985,321.785736 252.557632,321.907318 
z"/>
<path fill="#FDFCC6" opacity="1.000000" stroke="none" 
	d="
M261.823944,312.689941 
	C260.142151,312.831635 258.284332,312.663239 256.211212,312.244202 
	C257.879913,312.122314 259.763916,312.251068 261.823944,312.689941 
z"/>
<path fill="#F4F5C8" opacity="1.000000" stroke="none" 
	d="
M364.366943,334.946472 
	C363.995575,334.593658 363.988708,334.197113 363.982697,333.502930 
	C364.973145,333.223999 365.962738,333.242706 367.204224,333.538727 
	C366.547882,334.178253 365.639648,334.540497 364.366943,334.946472 
z"/>
<path fill="#F4F5C8" opacity="1.000000" stroke="none" 
	d="
M365.292419,336.999664 
	C364.999725,336.834137 364.999420,336.667084 365.000183,336.249390 
	C365.630737,336.045929 366.260284,336.093109 368.419159,336.254883 
	C366.519196,336.753082 366.052032,336.875610 365.292419,336.999664 
z"/>
<path fill="#0C070C" opacity="1.000000" stroke="none" 
	d="
M315.293060,418.907074 
	C315.275635,418.660187 315.545319,418.436493 316.078064,418.169495 
	C316.087494,418.394226 315.833832,418.662231 315.293060,418.907074 
z"/>
<path fill="#FBFBC7" opacity="1.000000" stroke="none" 
	d="
M402.072021,342.153290 
	C402.194733,341.988251 402.375519,341.976349 402.747620,342.156982 
	C402.938965,342.349548 402.515717,342.539429 402.515717,342.539429 
	C402.515717,342.539429 402.130066,342.306396 402.072021,342.153290 
z"/>
<path fill="#F8F7C7" opacity="1.000000" stroke="none" 
	d="
M224.993286,310.994751 
	C225.112244,310.683685 225.305161,310.428558 225.785431,310.114197 
	C225.998840,309.999115 226.000000,310.000000 226.000336,310.000610 
	C225.884033,310.312836 225.693604,310.569794 225.214691,310.886017 
	C225.000000,311.000000 224.993286,310.994751 224.993286,310.994751 
z"/>
<path fill="#F8F7C7" opacity="1.000000" stroke="none" 
	d="
M225.002563,311.003357 
	C224.920105,311.037964 224.835098,311.069275 224.871674,311.047668 
	C224.993286,310.994751 225.000000,311.000000 225.002563,311.003357 
z"/>
<path fill="#FDFCC6" opacity="1.000000" stroke="none" 
	d="
M254.888489,311.783386 
	C254.692490,311.879913 254.435883,311.688965 254.121292,311.208435 
	C254.316071,311.115082 254.570923,311.307434 254.888489,311.783386 
z"/>
<path fill="#0C070C" opacity="1.000000" stroke="none" 
	d="
M326.414246,383.762390 
	C326.596588,383.817200 326.657837,383.948090 326.719086,384.078949 
	C326.577118,383.998779 326.435150,383.918610 326.414246,383.762390 
z"/>
<path fill="#0C070C" opacity="1.000000" stroke="none" 
	d="
M323.460114,384.524048 
	C323.434631,384.478058 323.485596,384.570038 323.460114,384.524048 
z"/>
<path fill="#FBFBCE" opacity="1.000000" stroke="none" 
	d="
M432.043304,374.949402 
	C432.767883,373.506897 433.512634,372.447540 434.257416,371.388184 
	C435.143311,372.466553 436.373779,373.430084 436.785797,374.666382 
	C437.032440,375.406403 435.998566,376.573151 435.540283,377.548096 
	C434.381348,376.809540 433.222412,376.071014 432.043304,374.949402 
z"/>
<path fill="#010103" opacity="1.000000" stroke="none" 
	d="
M155.454666,181.532227 
	C155.428482,181.486313 155.480850,181.578140 155.454666,181.532227 
z"/>
<path fill="#FBFBCE" opacity="1.000000" stroke="none" 
	d="
M353.003662,335.001068 
	C352.009186,333.602203 351.014709,332.203369 350.009766,330.450439 
	C353.360931,330.761292 356.722595,331.426208 360.108002,332.658691 
	C360.088654,333.484985 360.045563,333.743713 360.001038,334.252136 
	C359.999603,334.501831 359.998779,335.001221 359.998779,335.001221 
	C359.998779,335.001221 359.501831,335.000000 359.037537,335.113098 
	C358.303772,335.425262 358.109161,335.681274 357.989410,335.994202 
	C357.989410,335.994202 357.495300,335.996216 356.914307,335.997131 
	C355.888092,335.998291 355.442871,335.998535 354.997620,335.998779 
	C354.997620,335.998779 354.505829,335.994232 354.140411,335.781982 
	C353.571503,335.307465 353.314392,335.117920 353.003662,335.001068 
z"/>
<path fill="#FBFBCE" opacity="1.000000" stroke="none" 
	d="
M396.470093,341.099487 
	C396.146423,341.557159 395.793915,342.043488 395.441406,342.529846 
	C395.502380,342.177338 395.563354,341.824829 395.999817,341.339600 
	C396.375305,341.206848 396.441284,341.128204 396.470093,341.099487 
z"/>
<path fill="#FBFBCE" opacity="1.000000" stroke="none" 
	d="
M360.917847,332.498688 
	C360.985901,332.797455 360.989746,333.037872 360.746796,333.639679 
	C360.500000,334.001068 360.002441,334.002441 360.002441,334.002441 
	C360.045563,333.743713 360.088654,333.484985 360.347412,332.895782 
	C360.563049,332.565308 360.853668,332.440338 360.917847,332.498688 
z"/>
<path fill="#FBFBCE" opacity="1.000000" stroke="none" 
	d="
M338.642517,336.569916 
	C339.055847,336.677673 339.306183,336.940796 339.556488,337.203888 
	C339.447510,337.307343 339.249237,337.506775 339.242401,337.500397 
	C338.977203,337.253723 338.729523,336.988251 338.642517,336.569916 
z"/>
<path fill="#F4F5C8" opacity="1.000000" stroke="none" 
	d="
M353.013245,335.223022 
	C353.314392,335.117920 353.571503,335.307465 353.894531,335.780212 
	C353.683655,335.808807 353.353241,335.626892 353.013245,335.223022 
z"/>
<path fill="#F4F5C8" opacity="1.000000" stroke="none" 
	d="
M355.150482,336.211670 
	C355.442871,335.998535 355.888092,335.998291 356.667267,335.998413 
	C356.435242,336.140686 355.869293,336.282623 355.150482,336.211670 
z"/>
<path fill="#F4F5C8" opacity="1.000000" stroke="none" 
	d="
M358.206238,335.881897 
	C358.109161,335.681274 358.303772,335.425262 358.789062,335.112488 
	C358.887146,335.313263 358.693207,335.570190 358.206238,335.881897 
z"/>
<path fill="#F4F5C8" opacity="1.000000" stroke="none" 
	d="
M360.001038,334.252136 
	C360.002441,334.002441 360.500000,334.001068 360.748718,334.000305 
	C360.883698,334.313477 360.693146,334.570404 360.212311,334.885803 
	C359.998779,335.001221 359.999603,334.501831 360.001038,334.252136 
z"/>
</svg>