<svg version="1.1" id="Layer_1" xmlns="http://www.w3.org/2000/svg" xmlns:xlink="http://www.w3.org/1999/xlink" x="0px" y="0px"
	 width="100%" viewBox="0 0 1500 1500" enable-background="new 0 0 1500 1500" xml:space="preserve">
<path fill="#000000" opacity="1.000000" stroke="none" 
	d="
M694.000000,1501.000000 
	C462.666718,1501.000000 231.833420,1501.000000 1.000062,1501.000000 
	C1.000000,1251.000122 1.000000,1001.000183 1.000000,751.000244 
	C1.000000,501.000305 1.000000,251.000336 1.000000,1.000294 
	C500.999786,1.000196 1000.999573,1.000196 1500.999512,1.000098 
	C1500.999756,500.999664 1500.999756,1000.999329 1500.999878,1500.999512 
	C1232.166626,1501.000000 963.333313,1501.000000 694.000000,1501.000000 
M1121.024170,656.033203 
	C1121.024170,656.033203 1120.999268,656.017273 1121.064453,656.699158 
	C1121.652832,657.853821 1122.241333,659.008423 1122.829712,660.163086 
	C1123.275635,660.115295 1123.721680,660.067444 1124.167603,660.019592 
	C1124.737915,658.210632 1125.666138,656.432495 1125.824463,654.588135 
	C1127.929565,630.070068 1130.336304,605.567505 1131.826050,581.010132 
	C1133.115112,559.762207 1133.364014,538.450195 1134.010864,517.164673 
	C1134.339600,506.350098 1135.204590,505.308838 1145.746338,503.974274 
	C1146.735962,503.848999 1147.723267,503.691711 1148.703247,503.504791 
	C1172.235474,499.016022 1195.767822,494.528351 1219.294067,490.008087 
	C1220.586914,489.759644 1221.826050,489.230865 1223.090210,488.832581 
	C1223.046387,488.271698 1223.002686,487.710785 1222.958862,487.149872 
	C1221.400513,486.991241 1219.777100,486.465881 1218.293579,486.729004 
	C1196.501343,490.594147 1174.726807,494.559204 1152.950562,498.514069 
	C1148.914673,499.247009 1144.889771,500.039673 1140.859741,500.804779 
	C1141.992798,499.635040 1143.257202,499.248993 1144.548340,499.004120 
	C1168.914062,494.383942 1193.273193,489.727631 1217.663208,485.239227 
	C1220.769897,484.667511 1223.930176,483.803497 1223.133545,480.390137 
	C1222.525391,477.784210 1220.047607,475.257477 1217.766113,473.539062 
	C1216.487793,472.576263 1213.854370,472.999329 1211.937378,473.360229 
	C1187.406860,477.978302 1162.906616,482.758972 1138.359619,487.286469 
	C1136.197266,487.685364 1133.769165,486.354431 1131.448853,486.273468 
	C1129.390137,486.201569 1127.117310,486.315826 1125.283447,487.126801 
	C1122.416870,488.394409 1120.023193,490.867371 1117.099976,491.839386 
	C1112.543823,493.354370 1107.652710,493.826508 1103.007812,495.115967 
	C1088.255859,499.211151 1073.524536,503.386597 1058.853271,507.759399 
	C1055.867310,508.649323 1052.489380,510.315674 1053.654907,514.433960 
	C1054.736084,518.253967 1057.534912,519.922852 1061.734619,519.190247 
	C1078.937622,516.188904 1096.181763,513.420044 1113.366699,510.321289 
	C1120.647339,509.008484 1121.128662,509.486786 1120.404907,516.688354 
	C1118.110474,539.516846 1116.044556,562.368896 1113.986328,585.220459 
	C1112.957520,596.644043 1112.182495,608.090271 1111.211304,619.519348 
	C1110.197754,631.449890 1108.898682,643.359619 1108.101074,655.303650 
	C1107.725830,660.923462 1109.773682,662.209656 1115.326538,661.992004 
	C1119.462646,661.829834 1119.744141,658.599060 1121.024170,656.033203 
M976.144104,945.418579 
	C1000.119812,958.433960 1013.002808,948.916992 1021.018311,926.893250 
	C1021.610229,925.266785 1021.557373,922.435852 1020.551514,921.471436 
	C1019.553162,920.513977 1016.937744,920.972046 1015.091919,921.234131 
	C1012.485596,921.604065 1009.958496,922.716614 1007.355774,922.892334 
	C999.698486,923.409546 993.597290,919.420776 988.981567,914.198975 
	C980.407715,904.499512 972.739075,894.004456 964.559753,883.949402 
	C961.150940,879.758911 961.146973,875.897217 963.815491,871.207397 
	C977.288269,847.529968 988.596680,822.874634 995.643250,796.472290 
	C1003.650574,766.470520 1010.096863,736.246704 1007.038147,704.832886 
	C1004.839355,682.251343 996.249023,663.471008 976.241028,651.091736 
	C970.236084,647.376404 970.671753,647.167908 973.199707,640.164917 
	C974.279236,637.174377 974.828003,632.913086 973.494080,630.323059 
	C968.536377,620.696655 962.693848,611.513489 953.508362,605.150024 
	C940.937195,596.440979 927.450989,591.502075 911.745178,593.833191 
	C895.172913,596.292908 882.527405,605.650146 871.037415,616.658752 
	C855.456360,631.587036 844.534485,649.988403 835.078857,669.164429 
	C824.676575,690.260498 816.277039,712.191956 809.901978,734.863586 
	C798.590881,775.089600 790.423950,815.727112 792.943298,857.887268 
	C794.313721,880.820923 800.231262,902.266541 813.362854,921.250671 
	C822.180969,933.998718 833.592651,943.706421 849.069702,947.820862 
	C865.555908,952.203613 881.086304,948.732544 896.249573,942.325684 
	C912.081421,935.636169 924.668274,924.574524 936.311768,912.241394 
	C940.892761,907.389038 941.366821,907.520691 945.075256,913.152771 
	C953.292725,925.632629 962.559509,937.091248 976.144104,945.418579 
M402.493256,906.981445 
	C406.436005,913.142090 409.808105,919.773926 414.431061,925.372925 
	C427.031433,940.633240 443.374847,948.852966 463.385803,947.764282 
	C481.862305,946.759094 498.413696,939.714050 512.880188,928.393921 
	C520.162476,922.695557 526.540405,915.817322 533.145569,909.288757 
	C536.076782,906.391479 538.273560,905.930115 540.560120,909.838989 
	C541.986572,912.277527 543.395508,914.846130 545.340942,916.840637 
	C553.901184,925.616455 562.240051,934.680847 571.473938,942.702698 
	C578.254211,948.593018 587.091553,950.476013 595.962402,948.484131 
	C600.359253,947.496826 605.763550,945.691956 608.187988,942.398682 
	C612.417297,936.654053 615.187927,929.646057 617.591492,922.822998 
	C618.878235,919.170227 615.928711,917.478088 611.523987,919.272278 
	C602.941956,922.768066 595.476379,920.513977 588.689087,915.112305 
	C576.246338,905.209839 567.680542,892.044250 559.260803,878.873108 
	C558.096008,877.051025 558.574951,873.319702 559.616699,871.091003 
	C564.689087,860.238953 570.569702,849.759460 575.511108,838.852173 
	C594.234375,797.522949 605.015503,754.340698 603.777832,708.728516 
	C603.533447,699.721741 601.372437,690.553040 598.733032,681.873291 
	C594.362366,667.499878 585.163086,656.481262 572.170410,648.744507 
	C568.978271,646.843689 566.085815,644.606750 568.846436,640.410095 
	C572.876099,634.284424 571.442505,628.828430 567.314941,623.451538 
	C565.392822,620.947632 563.816345,618.180786 562.034302,615.566345 
	C549.529297,597.219910 525.267212,587.595520 503.705383,592.648376 
	C483.597260,597.360535 469.640350,611.102966 457.113556,626.151917 
	C443.731171,642.228821 433.789551,660.572327 425.587677,679.819702 
	C402.433838,734.155090 388.093872,790.376404 388.975922,849.897217 
	C389.269257,869.689880 393.490662,888.507080 402.493256,906.981445 
z"/>
<path fill="#231F20" opacity="1.000000" stroke="none" 
	d="
M975.842285,945.212952 
	C962.559509,937.091248 953.292725,925.632629 945.075256,913.152771 
	C941.366821,907.520691 940.892761,907.389038 936.311768,912.241394 
	C924.668274,924.574524 912.081421,935.636169 896.249573,942.325684 
	C881.086304,948.732544 865.555908,952.203613 849.069702,947.820862 
	C833.592651,943.706421 822.180969,933.998718 813.362854,921.250671 
	C800.231262,902.266541 794.313721,880.820923 792.943298,857.887268 
	C790.423950,815.727112 798.590881,775.089600 809.901978,734.863586 
	C816.277039,712.191956 824.676575,690.260498 835.078857,669.164429 
	C844.534485,649.988403 855.456360,631.587036 871.037415,616.658752 
	C882.527405,605.650146 895.172913,596.292908 911.745178,593.833191 
	C927.450989,591.502075 940.937195,596.440979 953.508362,605.150024 
	C962.693848,611.513489 968.536377,620.696655 973.494080,630.323059 
	C974.828003,632.913086 974.279236,637.174377 973.199707,640.164917 
	C970.671753,647.167908 970.236084,647.376404 976.241028,651.091736 
	C996.249023,663.471008 1004.839355,682.251343 1007.038147,704.832886 
	C1010.096863,736.246704 1003.650574,766.470520 995.643250,796.472290 
	C988.596680,822.874634 977.288269,847.529968 963.815491,871.207397 
	C961.146973,875.897217 961.150940,879.758911 964.559753,883.949402 
	C972.739075,894.004456 980.407715,904.499512 988.981567,914.198975 
	C993.597290,919.420776 999.698486,923.409546 1007.355774,922.892334 
	C1009.958496,922.716614 1012.485596,921.604065 1015.091919,921.234131 
	C1016.937744,920.972046 1019.553162,920.513977 1020.551514,921.471436 
	C1021.557373,922.435852 1021.610229,925.266785 1021.018311,926.893250 
	C1013.002808,948.916992 1000.119812,958.433960 975.842285,945.212952 
M980.727112,803.154053 
	C981.008545,802.022705 981.289429,800.891296 981.571594,799.760132 
	C987.575012,775.694580 990.859253,751.436035 986.966309,726.632324 
	C983.713379,705.906494 973.332092,690.256958 953.930603,681.613220 
	C945.306396,677.771118 936.300903,674.274475 927.106750,672.342224 
	C913.471375,669.476501 899.627014,668.459473 890.533264,682.810852 
	C890.058105,683.560669 888.617981,683.699036 887.627197,684.122131 
	C887.190552,682.802246 886.136169,681.328369 886.420288,680.188049 
	C887.946045,674.064697 889.098083,667.704285 891.675476,662.012634 
	C901.044800,641.322449 917.286255,635.149292 939.698547,637.482544 
	C943.513916,637.879761 947.278442,638.765320 952.114502,639.607910 
	C934.228760,624.755127 904.088257,623.908264 883.566467,636.986267 
	C869.419128,646.001953 858.496948,658.241211 849.050598,671.918335 
	C838.207336,687.617981 831.993042,705.366760 826.375549,723.365112 
	C814.662170,760.894714 808.535461,799.114990 813.090881,838.487671 
	C815.439148,858.784180 821.087036,878.060669 834.251526,894.252625 
	C843.131958,905.175171 854.740356,911.960938 868.914001,912.847534 
	C891.393921,914.253845 910.596008,905.810852 927.419556,891.473999 
	C928.620728,890.450500 929.308105,887.419250 928.713989,885.926758 
	C925.392273,877.581909 921.655212,869.399353 917.923828,861.223450 
	C917.254578,859.756958 916.219116,857.941711 914.890686,857.380066 
	C908.690002,854.757996 908.836182,850.368469 910.858459,845.157593 
	C911.334351,843.931458 911.451965,842.567017 911.741699,841.267883 
	C913.093628,835.206116 916.738342,830.977600 922.694336,829.518127 
	C928.738953,828.036987 933.003784,831.721741 936.057068,836.284180 
	C940.488037,842.905151 944.363770,849.897217 948.493164,856.720825 
	C951.900574,862.351257 952.869568,862.352722 956.659851,856.981018 
	C968.047058,840.842285 975.120422,822.772766 980.727112,803.154053 
z"/>
<path fill="#231F20" opacity="1.000000" stroke="none" 
	d="
M402.322235,906.649170 
	C393.490662,888.507080 389.269257,869.689880 388.975922,849.897217 
	C388.093872,790.376404 402.433838,734.155090 425.587677,679.819702 
	C433.789551,660.572327 443.731171,642.228821 457.113556,626.151917 
	C469.640350,611.102966 483.597260,597.360535 503.705383,592.648376 
	C525.267212,587.595520 549.529297,597.219910 562.034302,615.566345 
	C563.816345,618.180786 565.392822,620.947632 567.314941,623.451538 
	C571.442505,628.828430 572.876099,634.284424 568.846436,640.410095 
	C566.085815,644.606750 568.978271,646.843689 572.170410,648.744507 
	C585.163086,656.481262 594.362366,667.499878 598.733032,681.873291 
	C601.372437,690.553040 603.533447,699.721741 603.777832,708.728516 
	C605.015503,754.340698 594.234375,797.522949 575.511108,838.852173 
	C570.569702,849.759460 564.689087,860.238953 559.616699,871.091003 
	C558.574951,873.319702 558.096008,877.051025 559.260803,878.873108 
	C567.680542,892.044250 576.246338,905.209839 588.689087,915.112305 
	C595.476379,920.513977 602.941956,922.768066 611.523987,919.272278 
	C615.928711,917.478088 618.878235,919.170227 617.591492,922.822998 
	C615.187927,929.646057 612.417297,936.654053 608.187988,942.398682 
	C605.763550,945.691956 600.359253,947.496826 595.962402,948.484131 
	C587.091553,950.476013 578.254211,948.593018 571.473938,942.702698 
	C562.240051,934.680847 553.901184,925.616455 545.340942,916.840637 
	C543.395508,914.846130 541.986572,912.277527 540.560120,909.838989 
	C538.273560,905.930115 536.076782,906.391479 533.145569,909.288757 
	C526.540405,915.817322 520.162476,922.695557 512.880188,928.393921 
	C498.413696,939.714050 481.862305,946.759094 463.385803,947.764282 
	C443.374847,948.852966 427.031433,940.633240 414.431061,925.372925 
	C409.808105,919.773926 406.436005,913.142090 402.322235,906.649170 
M416.485901,866.945923 
	C418.971161,872.211487 421.056915,877.714722 424.020813,882.695435 
	C431.283966,894.901184 441.010223,904.403015 454.953461,908.827942 
	C479.287598,916.550354 508.788422,903.604614 524.366150,888.800903 
	C525.475769,887.746399 525.393433,884.441772 524.685547,882.649353 
	C522.121460,876.156799 519.381104,869.685364 516.055603,863.559814 
	C514.006592,859.785522 510.629608,856.754456 508.142975,853.184937 
	C507.102570,851.691467 506.328217,849.667847 506.324677,847.883545 
	C506.320129,845.611572 507.353394,843.358276 507.704834,841.060974 
	C508.760315,834.161743 512.221375,828.981140 519.152954,827.467346 
	C525.878967,825.998474 530.193542,830.732544 533.505066,835.544800 
	C537.736267,841.693604 541.137695,848.410767 544.961060,854.844727 
	C545.999451,856.591980 547.269653,858.201416 548.760010,860.343567 
	C550.708862,857.816528 552.213379,856.058716 553.507690,854.157776 
	C567.909912,833.005127 576.095154,809.363953 580.956360,784.478516 
	C584.932922,764.121460 586.859436,743.631714 582.910583,723.000122 
	C580.072449,708.171692 574.372070,694.908752 561.387207,686.051697 
	C548.100403,676.988708 533.306030,671.342957 517.444458,669.281006 
	C505.749512,667.760620 494.227051,668.540405 487.119019,680.487427 
	C486.592224,681.372803 484.993103,681.620178 483.892456,682.164185 
	C483.441132,680.872314 482.400482,679.456543 482.641388,678.310181 
	C483.632202,673.595093 484.754700,668.874573 486.297943,664.314880 
	C490.947357,650.578125 499.355286,640.036499 514.013428,636.818970 
	C521.325073,635.214050 529.158508,635.803467 536.757385,635.773865 
	C540.181763,635.760498 543.609619,636.660339 548.358154,637.333252 
	C528.874268,622.942932 502.904633,621.550537 481.582581,634.093872 
	C458.452332,647.700867 443.286316,668.590332 433.107269,692.780334 
	C419.805756,724.390869 411.418671,757.391113 408.784790,791.764160 
	C406.845886,817.067810 407.897827,841.977356 416.485901,866.945923 
z"/>
<path fill="#221E20" opacity="1.000000" stroke="none" 
	d="
M1121.048706,656.056702 
	C1119.744141,658.599060 1119.462646,661.829834 1115.326538,661.992004 
	C1109.773682,662.209656 1107.725830,660.923462 1108.101074,655.303650 
	C1108.898682,643.359619 1110.197754,631.449890 1111.211304,619.519348 
	C1112.182495,608.090271 1112.957520,596.644043 1113.986328,585.220459 
	C1116.044556,562.368896 1118.110474,539.516846 1120.404907,516.688354 
	C1121.128662,509.486786 1120.647339,509.008484 1113.366699,510.321289 
	C1096.181763,513.420044 1078.937622,516.188904 1061.734619,519.190247 
	C1057.534912,519.922852 1054.736084,518.253967 1053.654907,514.433960 
	C1052.489380,510.315674 1055.867310,508.649323 1058.853271,507.759399 
	C1073.524536,503.386597 1088.255859,499.211151 1103.007812,495.115967 
	C1107.652710,493.826508 1112.543823,493.354370 1117.099976,491.839386 
	C1120.023193,490.867371 1122.416870,488.394409 1125.283447,487.126801 
	C1127.117310,486.315826 1129.390137,486.201569 1131.448853,486.273468 
	C1133.769165,486.354431 1136.197266,487.685364 1138.359619,487.286469 
	C1162.906616,482.758972 1187.406860,477.978302 1211.937378,473.360229 
	C1213.854370,472.999329 1216.487793,472.576263 1217.766113,473.539062 
	C1220.047607,475.257477 1222.525391,477.784210 1223.133545,480.390137 
	C1223.930176,483.803497 1220.769897,484.667511 1217.663208,485.239227 
	C1193.273193,489.727631 1168.914062,494.383942 1144.548340,499.004120 
	C1143.257202,499.248993 1141.992798,499.635040 1140.859741,500.804779 
	C1144.889771,500.039673 1148.914673,499.247009 1152.950562,498.514069 
	C1174.726807,494.559204 1196.501343,490.594147 1218.293579,486.729004 
	C1219.777100,486.465881 1221.400513,486.991241 1222.958862,487.149872 
	C1223.002686,487.710785 1223.046387,488.271698 1223.090210,488.832581 
	C1221.826050,489.230865 1220.586914,489.759644 1219.294067,490.008087 
	C1195.767822,494.528351 1172.235474,499.016022 1148.703247,503.504791 
	C1147.723267,503.691711 1146.735962,503.848999 1145.746338,503.974274 
	C1135.204590,505.308838 1134.339600,506.350098 1134.010864,517.164673 
	C1133.364014,538.450195 1133.115112,559.762207 1131.826050,581.010132 
	C1130.336304,605.567505 1127.929565,630.070068 1125.824463,654.588135 
	C1125.666138,656.432495 1124.737915,658.210632 1124.167603,660.019592 
	C1123.721680,660.067444 1123.275635,660.115295 1122.829712,660.163086 
	C1122.241333,659.008423 1121.652832,657.853821 1121.205078,656.007446 
	C1123.219604,636.965088 1125.403809,618.639160 1126.878052,600.256409 
	C1128.273315,582.857056 1128.963501,565.400146 1129.871826,547.963684 
	C1130.077271,544.020325 1129.902100,540.057190 1129.902100,536.103210 
	C1128.416016,549.744080 1127.793823,563.360840 1126.951172,576.963867 
	C1126.180176,589.408569 1125.193726,601.840088 1124.260376,614.274353 
	C1123.214478,628.203613 1122.121216,642.129395 1121.048706,656.056702 
z"/>
<path fill="#000000" opacity="1.000000" stroke="none" 
	d="
M980.605347,803.543091 
	C975.120422,822.772766 968.047058,840.842285 956.659851,856.981018 
	C952.869568,862.352722 951.900574,862.351257 948.493164,856.720825 
	C944.363770,849.897217 940.488037,842.905151 936.057068,836.284180 
	C933.003784,831.721741 928.738953,828.036987 922.694336,829.518127 
	C916.738342,830.977600 913.093628,835.206116 911.741699,841.267883 
	C911.451965,842.567017 911.334351,843.931458 910.858459,845.157593 
	C908.836182,850.368469 908.690002,854.757996 914.890686,857.380066 
	C916.219116,857.941711 917.254578,859.756958 917.923828,861.223450 
	C921.655212,869.399353 925.392273,877.581909 928.713989,885.926758 
	C929.308105,887.419250 928.620728,890.450500 927.419556,891.473999 
	C910.596008,905.810852 891.393921,914.253845 868.914001,912.847534 
	C854.740356,911.960938 843.131958,905.175171 834.251526,894.252625 
	C821.087036,878.060669 815.439148,858.784180 813.090881,838.487671 
	C808.535461,799.114990 814.662170,760.894714 826.375549,723.365112 
	C831.993042,705.366760 838.207336,687.617981 849.050598,671.918335 
	C858.496948,658.241211 869.419128,646.001953 883.566467,636.986267 
	C904.088257,623.908264 934.228760,624.755127 952.114502,639.607910 
	C947.278442,638.765320 943.513916,637.879761 939.698547,637.482544 
	C917.286255,635.149292 901.044800,641.322449 891.675476,662.012634 
	C889.098083,667.704285 887.946045,674.064697 886.420288,680.188049 
	C886.136169,681.328369 887.190552,682.802246 887.627197,684.122131 
	C888.617981,683.699036 890.058105,683.560669 890.533264,682.810852 
	C899.627014,668.459473 913.471375,669.476501 927.106750,672.342224 
	C936.300903,674.274475 945.306396,677.771118 953.930603,681.613220 
	C973.332092,690.256958 983.713379,705.906494 986.966309,726.632324 
	C990.859253,751.436035 987.575012,775.694580 981.571594,799.760132 
	C981.289429,800.891296 981.008545,802.022705 980.605347,803.543091 
z"/>
<path fill="#000000" opacity="1.000000" stroke="none" 
	d="
M416.351746,866.578369 
	C407.897827,841.977356 406.845886,817.067810 408.784790,791.764160 
	C411.418671,757.391113 419.805756,724.390869 433.107269,692.780334 
	C443.286316,668.590332 458.452332,647.700867 481.582581,634.093872 
	C502.904633,621.550537 528.874268,622.942932 548.358154,637.333252 
	C543.609619,636.660339 540.181763,635.760498 536.757385,635.773865 
	C529.158508,635.803467 521.325073,635.214050 514.013428,636.818970 
	C499.355286,640.036499 490.947357,650.578125 486.297943,664.314880 
	C484.754700,668.874573 483.632202,673.595093 482.641388,678.310181 
	C482.400482,679.456543 483.441132,680.872314 483.892456,682.164185 
	C484.993103,681.620178 486.592224,681.372803 487.119019,680.487427 
	C494.227051,668.540405 505.749512,667.760620 517.444458,669.281006 
	C533.306030,671.342957 548.100403,676.988708 561.387207,686.051697 
	C574.372070,694.908752 580.072449,708.171692 582.910583,723.000122 
	C586.859436,743.631714 584.932922,764.121460 580.956360,784.478516 
	C576.095154,809.363953 567.909912,833.005127 553.507690,854.157776 
	C552.213379,856.058716 550.708862,857.816528 548.760010,860.343567 
	C547.269653,858.201416 545.999451,856.591980 544.961060,854.844727 
	C541.137695,848.410767 537.736267,841.693604 533.505066,835.544800 
	C530.193542,830.732544 525.878967,825.998474 519.152954,827.467346 
	C512.221375,828.981140 508.760315,834.161743 507.704834,841.060974 
	C507.353394,843.358276 506.320129,845.611572 506.324677,847.883545 
	C506.328217,849.667847 507.102570,851.691467 508.142975,853.184937 
	C510.629608,856.754456 514.006592,859.785522 516.055603,863.559814 
	C519.381104,869.685364 522.121460,876.156799 524.685547,882.649353 
	C525.393433,884.441772 525.475769,887.746399 524.366150,888.800903 
	C508.788422,903.604614 479.287598,916.550354 454.953461,908.827942 
	C441.010223,904.403015 431.283966,894.901184 424.020813,882.695435 
	C421.056915,877.714722 418.971161,872.211487 416.351746,866.578369 
z"/>
<path fill="#000000" opacity="1.000000" stroke="none" 
	d="
M1121.036377,656.044922 
	C1122.121216,642.129395 1123.214478,628.203613 1124.260376,614.274353 
	C1125.193726,601.840088 1126.180176,589.408569 1126.951172,576.963867 
	C1127.793823,563.360840 1128.416016,549.744080 1129.902100,536.103210 
	C1129.902100,540.057190 1130.077271,544.020325 1129.871826,547.963684 
	C1128.963501,565.400146 1128.273315,582.857056 1126.878052,600.256409 
	C1125.403809,618.639160 1123.219604,636.965088 1121.172363,655.666504 
	C1120.999268,656.017273 1121.024170,656.033203 1121.036377,656.044922 
z"/>
</svg>