<?xml version="1.0" standalone="no"?>
<!DOCTYPE svg PUBLIC "-//W3C//DTD SVG 20010904//EN"
 "http://www.w3.org/TR/2001/REC-SVG-20010904/DTD/svg10.dtd">
<svg version="1.0" xmlns="http://www.w3.org/2000/svg"
 width="1500.000000pt" height="1500.000000pt" viewBox="0 0 1500.000000 1500.000000"
 preserveAspectRatio="xMidYMid meet">
<metadata>
Created by potrace 1.16, written by Peter Selinger 2001-2019
</metadata>
<g transform="translate(0.000000,1500.000000) scale(0.100000,-0.100000)"
fill="#000000" stroke="none">
<path d="M12025 10264 c-155 -27 -650 -127 -672 -135 -15 -6 -26 -3 -39 12
-26 29 -64 25 -76 -9 -10 -26 -19 -29 -180 -65 -189 -42 -476 -127 -514 -151
-30 -21 -31 -48 -1 -80 l23 -25 110 14 c116 16 327 54 439 80 92 21 89 23 81
-37 -29 -236 -56 -514 -66 -673 -6 -104 -20 -296 -32 -425 -12 -129 -22 -266
-22 -305 l-1 -70 55 0 c54 0 54 0 61 35 18 84 54 561 86 1125 4 72 9 121 11
111 14 -67 -55 -1083 -84 -1222 -5 -24 -2 -33 11 -38 10 -3 20 -5 22 -2 8 8
42 359 58 596 8 129 19 372 25 540 12 362 16 408 39 414 9 3 43 10 76 16 33 5
78 14 100 19 54 12 325 65 461 90 61 12 139 24 173 27 49 6 61 10 59 23 -3 13
-14 15 -53 13 -65 -4 -279 -42 -584 -103 -135 -27 -246 -47 -248 -45 -9 9 493
110 729 148 140 22 147 24 151 48 6 29 -15 75 -38 84 -24 9 -68 6 -160 -10z"/>
<path d="M10334 9720 c3 -14 122 -559 266 -1212 l262 -1187 -262 -1188 c-144
-653 -264 -1197 -267 -1208 -3 -13 -2 -17 5 -10 12 12 1042 2391 1042 2407 0
13 -1014 2359 -1037 2398 l-14 25 5 -25z"/>
<path d="M3792 9713 c-5 -10 -240 -550 -522 -1201 -335 -774 -510 -1191 -507
-1205 7 -34 1027 -2381 1039 -2392 8 -7 9 -5 6 5 -3 8 -123 552 -268 1207
l-263 1193 266 1202 c146 662 264 1205 262 1206 -2 2 -8 -5 -13 -15z"/>
<path d="M7390 9700 c-9 -6 -210 -10 -516 -10 -552 0 -538 2 -532 -60 2 -28
10 -38 36 -51 61 -31 136 -152 180 -289 18 -58 21 -98 25 -395 3 -195 1 -387
-5 -470 -8 -104 -7 -288 3 -720 16 -660 16 -729 8 -1660 -6 -649 -14 -829 -39
-876 -11 -19 -110 -93 -170 -126 -62 -34 -73 -96 -22 -121 9 -4 107 -5 217 -1
329 12 691 10 763 -3 65 -12 65 -12 88 16 33 38 32 81 -3 103 -87 53 -124 120
-142 259 -7 49 -10 305 -9 679 1 453 -3 680 -16 925 -15 295 -16 420 -6 1335
6 556 15 1044 21 1085 16 124 51 180 173 273 27 21 36 35 36 57 0 45 -52 74
-90 50z"/>
<path d="M5030 9084 c-237 -51 -494 -304 -694 -684 -197 -375 -365 -921 -432
-1405 -24 -178 -30 -534 -10 -660 53 -350 220 -628 441 -740 274 -138 634 -38
926 257 53 54 99 98 103 98 3 0 29 -35 57 -77 72 -108 237 -269 319 -312 53
-28 78 -35 140 -39 69 -3 80 -1 140 30 46 24 66 40 71 58 3 14 21 50 39 80 39
66 51 127 26 136 -9 3 -34 -1 -56 -10 -120 -48 -237 19 -397 230 -33 44 -79
108 -102 143 l-40 63 104 206 c145 289 206 447 274 717 89 355 115 715 66 925
-37 162 -121 297 -233 378 -36 26 -76 56 -89 67 l-24 20 26 57 c16 35 24 66
20 78 -15 46 -126 199 -179 247 -73 64 -180 119 -271 138 -85 18 -140 18 -225
-1z m244 -351 c60 -15 155 -58 191 -88 l20 -16 -20 5 c-131 33 -283 31 -380
-5 -71 -26 -169 -118 -203 -189 -24 -50 -64 -190 -66 -230 -2 -39 27 -31 65
19 55 72 94 86 229 85 102 0 126 -4 215 -33 360 -119 492 -291 511 -666 19
-370 -113 -860 -307 -1141 l-53 -76 -20 36 c-12 20 -41 72 -65 116 -93 169
-167 220 -248 170 -42 -25 -62 -57 -78 -127 -22 -91 -20 -109 15 -122 25 -8
37 -24 61 -78 17 -37 50 -109 74 -160 l44 -92 -37 -32 c-184 -162 -463 -244
-657 -194 -186 49 -338 213 -421 457 -54 159 -69 273 -69 528 0 272 19 427 86
692 89 355 191 596 328 779 237 316 495 434 785 362z"/>
<path d="M9073 9065 c-110 -24 -211 -81 -335 -187 -360 -310 -707 -1157 -803
-1963 -24 -194 -24 -498 -1 -630 46 -258 137 -448 285 -595 169 -169 371 -216
618 -144 168 49 327 149 478 303 44 44 82 81 86 81 3 0 27 -31 52 -69 105
-158 227 -273 352 -332 83 -40 169 -40 246 -1 49 24 59 35 101 112 80 144 76
188 -11 157 -94 -33 -165 -15 -256 65 -57 50 -151 166 -231 283 l-58 86 101
197 c151 295 236 528 301 827 99 454 92 781 -20 1005 -41 80 -128 175 -213
230 -36 23 -65 49 -65 57 0 7 9 31 20 53 31 62 26 84 -45 191 -77 115 -144
175 -260 230 -118 57 -223 70 -342 44z m252 -356 c65 -19 201 -86 193 -95 -3
-2 -36 3 -74 11 -288 61 -497 -58 -567 -324 -31 -119 -33 -141 -10 -141 10 0
26 13 36 29 26 45 83 89 129 102 77 20 219 6 341 -35 161 -53 240 -98 328
-186 85 -85 123 -160 154 -305 23 -107 23 -360 0 -510 -38 -253 -136 -547
-236 -716 -55 -92 -96 -149 -108 -149 -4 0 -29 40 -55 89 -122 232 -214 291
-305 197 -24 -25 -37 -52 -52 -111 -10 -43 -19 -81 -19 -86 0 -5 15 -16 33
-25 41 -22 50 -34 83 -119 15 -38 42 -100 61 -137 18 -37 33 -72 33 -77 0 -18
-138 -114 -225 -157 -308 -149 -591 -97 -760 140 -134 188 -197 440 -196 781
0 328 55 631 181 1000 94 275 191 437 364 610 61 61 137 125 169 144 159 93
334 118 502 70z"/>
</g>
</svg>
