<?xml version="1.0" standalone="no"?>
<!DOCTYPE svg PUBLIC "-//W3C//DTD SVG 20010904//EN"
 "http://www.w3.org/TR/2001/REC-SVG-20010904/DTD/svg10.dtd">
<svg version="1.0" xmlns="http://www.w3.org/2000/svg"
 width="2560.000000pt" height="1600.000000pt" viewBox="0 0 2560.000000 1600.000000"
 preserveAspectRatio="xMidYMid meet">

<g transform="translate(0.000000,1600.000000) scale(0.100000,-0.100000)"
fill="#000000" stroke="none">
<path d="M14895 15134 c-11 -3 -58 -14 -105 -24 -320 -73 -569 -226 -570 -350
0 -19 -7 -43 -15 -53 -11 -15 -13 -98 -10 -475 3 -470 7 -517 46 -593 42 -84
137 -102 215 -42 21 16 66 40 99 53 84 33 429 197 555 264 146 78 197 138 174
204 -15 42 -57 66 -127 70 -79 5 -183 -32 -469 -168 -134 -64 -206 -93 -210
-86 -4 6 -8 45 -8 86 l0 75 53 12 c28 7 122 47 207 90 165 82 242 143 266 210
11 29 10 34 -10 46 -94 61 -221 49 -422 -40 -58 -25 -106 -44 -108 -42 -5 5
-46 253 -46 276 0 43 211 141 441 203 166 46 237 81 266 133 27 47 5 114 -43
136 -30 13 -146 23 -179 15z"/>
<path d="M13005 14339 c-110 -45 -266 -188 -415 -383 -41 -54 -97 -125 -123
-159 -64 -83 -178 -310 -184 -369 -13 -117 78 -205 192 -184 57 11 90 50 162
187 71 136 196 306 276 374 l42 36 9 -28 c10 -34 23 -380 32 -858 6 -304 3
-417 -20 -865 -15 -283 -30 -543 -32 -577 l-6 -63 -446 6 c-246 2 -781 9
-1190 15 -727 9 -996 5 -1252 -21 -150 -15 -596 -88 -815 -132 -110 -23 -211
-41 -223 -42 -22 -1 -28 11 -69 124 -24 69 -48 137 -53 151 -17 54 -94 196
-146 271 -30 43 -54 82 -54 87 0 5 9 12 19 16 39 12 71 46 71 75 0 74 -112 92
-207 34 -101 -62 -109 -150 -26 -286 99 -163 119 -215 228 -603 44 -154 207
-691 230 -755 26 -73 71 -263 104 -440 45 -238 68 -352 92 -464 11 -54 18
-109 14 -123 -4 -17 0 -32 10 -43 9 -10 31 -73 49 -141 67 -250 109 -387 151
-499 24 -63 53 -149 65 -190 12 -41 48 -158 80 -260 81 -257 179 -590 200
-680 60 -252 117 -501 156 -675 24 -110 55 -240 69 -290 13 -49 38 -144 55
-210 18 -66 40 -147 51 -180 25 -81 114 -421 138 -531 11 -49 50 -199 87 -334
36 -135 73 -274 81 -310 33 -147 109 -349 242 -650 69 -155 257 -465 385 -637
162 -217 354 -420 521 -552 188 -149 344 -240 558 -322 163 -63 170 -58 -113
-88 -107 -12 -249 -28 -315 -36 -249 -30 -577 -65 -760 -80 -246 -20 -446 -41
-620 -65 -77 -10 -198 -23 -270 -30 -143 -12 -332 -33 -495 -56 -130 -18 -401
-34 -580 -33 -173 0 -276 17 -327 52 -22 15 -52 27 -69 27 -79 0 -133 -82 -99
-153 31 -65 122 -109 340 -163 179 -44 532 -54 845 -25 58 6 206 19 329 31
124 11 279 27 345 35 67 8 236 24 376 35 140 11 296 25 345 30 50 5 151 14
225 20 74 6 248 24 385 40 138 16 354 41 480 55 127 15 279 32 340 40 60 8
112 12 114 9 2 -2 8 -111 12 -241 16 -475 66 -910 156 -1363 9 -48 17 -179 22
-370 6 -224 12 -305 24 -338 9 -25 13 -59 10 -82 -5 -32 -1 -43 20 -64 32 -32
84 -35 118 -7 35 28 33 96 -4 125 -23 19 -27 29 -27 73 0 27 11 111 25 184 38
195 43 373 17 569 -12 85 -28 225 -36 310 -28 289 -51 1230 -31 1236 17 6 260
33 470 54 429 42 528 51 740 65 121 8 364 26 540 40 176 14 385 30 465 35 80
6 204 17 275 26 156 18 194 21 400 34 88 6 239 20 335 30 96 11 257 24 357 30
100 6 217 15 260 20 43 5 200 21 348 35 149 14 351 34 450 44 134 15 292 21
615 26 239 3 543 10 675 16 132 5 362 12 510 15 253 7 280 5 410 -16 139 -23
140 -23 535 -10 217 7 544 14 725 17 l330 4 -100 -67 c-55 -36 -142 -91 -193
-120 -151 -88 -263 -168 -320 -227 -29 -31 -69 -69 -88 -84 l-36 -27 93 -19
c212 -41 389 8 664 185 461 298 544 362 623 477 34 49 37 59 36 117 -2 99 -23
129 -130 189 -49 28 -112 64 -139 82 -84 53 -207 108 -332 148 -65 20 -170 55
-233 76 -157 52 -383 109 -437 109 -53 0 -91 -18 -126 -60 -76 -90 -24 -219
101 -255 31 -9 116 -42 187 -73 72 -30 179 -72 240 -92 l110 -37 -285 -7
c-157 -4 -375 -9 -485 -12 -110 -2 -254 -8 -320 -13 -144 -11 -372 1 -434 23
-36 13 -98 16 -365 16 -176 0 -353 -5 -392 -10 -39 -5 -351 -14 -695 -20 -412
-7 -668 -15 -754 -25 -71 -8 -179 -19 -240 -25 -60 -5 -155 -14 -210 -20 -244
-24 -420 -39 -555 -50 -277 -21 -405 -32 -411 -36 -4 -2 -112 -11 -240 -19
-129 -8 -313 -24 -409 -35 -96 -10 -218 -21 -270 -25 -174 -10 -502 -35 -745
-55 -277 -23 -669 -50 -673 -45 -1 1 42 32 97 69 111 74 319 268 434 405 149
177 273 359 394 576 27 50 70 124 95 165 154 257 327 584 353 668 4 13 42 98
84 190 43 92 95 212 115 267 21 55 60 154 86 220 26 66 66 176 89 245 39 118
43 126 78 145 72 39 98 108 72 194 -10 35 -7 48 56 202 71 174 139 333 200
464 21 44 71 160 111 258 41 98 85 199 98 225 13 27 54 118 89 203 36 84 145
339 242 564 98 226 192 446 210 490 18 44 40 98 50 120 21 50 202 394 355 675
65 118 139 258 165 310 26 52 116 221 200 375 83 154 183 339 220 410 73 140
171 311 300 525 66 109 89 138 120 155 55 29 77 64 83 132 4 47 12 67 42 108
74 100 293 444 338 529 22 42 26 65 27 129 l0 78 -42 40 c-38 35 -48 39 -93
39 -28 0 -64 -7 -79 -15 -40 -20 -137 -147 -295 -386 -74 -112 -166 -249 -204
-304 l-68 -100 -95 2 c-52 1 -498 3 -992 6 -494 3 -944 8 -1000 11 -56 3 -201
8 -322 12 -121 3 -308 14 -415 25 -107 11 -262 27 -345 35 -125 12 -1128 36
-1290 30 l-40 -1 3 155 c1 85 9 277 17 425 29 557 39 954 26 1148 -14 224 -21
537 -11 537 3 0 76 -69 162 -154 144 -142 159 -155 205 -165 119 -25 188 43
164 161 -15 72 -82 159 -234 303 -66 64 -154 160 -194 213 -41 53 -105 131
-142 173 -57 62 -78 78 -121 92 -67 22 -103 21 -165 -4z m-565 -3144 c113 -3
267 -5 342 -6 75 -1 141 -5 147 -8 14 -9 34 -562 26 -731 -6 -143 -17 -300
-37 -542 l-11 -148 -201 0 c-402 0 -1049 -33 -1556 -80 -118 -11 -273 -24
-345 -30 -129 -10 -345 -30 -545 -51 -138 -14 -590 -85 -660 -104 -77 -21 -87
-19 -93 13 -4 15 -20 92 -37 172 -16 80 -39 183 -49 230 -10 47 -28 128 -40
180 -35 161 -71 274 -166 520 -56 143 -155 427 -155 442 0 4 14 8 30 8 17 0
30 4 30 9 0 5 26 12 58 15 31 4 93 13 137 21 185 34 643 84 860 95 149 8 1872
4 2265 -5z m2070 -25 c116 -10 367 -33 470 -45 57 -7 576 -25 860 -30 315 -6
783 -9 1220 -6 411 2 570 -4 570 -24 0 -6 -43 -85 -96 -176 -139 -238 -177
-305 -324 -589 -73 -140 -147 -277 -165 -305 -17 -27 -60 -103 -94 -168 -35
-65 -69 -121 -77 -124 -7 -3 -44 0 -81 6 -80 14 -199 19 -533 26 -135 3 -328
9 -430 13 -102 5 -351 6 -555 3 -203 -3 -455 -4 -560 -3 -395 4 -1450 24
-1454 27 -2 3 4 98 14 212 27 318 31 458 24 838 -4 193 -5 354 -2 358 6 11
1056 -1 1213 -13z m-1625 -1602 c4 -4 0 -92 -9 -195 -9 -103 -21 -264 -26
-358 -6 -93 -17 -269 -25 -390 -8 -121 -19 -296 -25 -390 -6 -93 -13 -200 -17
-237 l-6 -66 -91 -6 c-50 -3 -433 -10 -851 -16 -802 -10 -981 -20 -1245 -69
-58 -11 -141 -25 -185 -31 -44 -7 -141 -25 -215 -40 -74 -16 -136 -27 -138
-25 -2 1 -30 95 -63 206 -33 112 -123 391 -199 619 -77 228 -151 456 -166 505
-50 172 -73 259 -69 263 10 10 195 44 415 76 223 33 599 68 1015 96 88 6 176
13 195 15 19 3 190 14 380 25 190 11 372 22 405 24 108 6 913 1 920 -6z m1185
-13 c267 -8 568 -17 670 -21 102 -3 271 -1 375 4 125 7 265 8 410 2 121 -5
290 -12 375 -15 85 -3 196 -8 245 -12 50 -4 137 -7 195 -7 116 -1 362 -15 398
-22 22 -4 20 -9 -43 -127 -187 -346 -443 -893 -590 -1257 -37 -90 -75 -180
-85 -200 l-18 -35 -304 -1 c-205 0 -322 -5 -363 -14 -98 -21 -532 -24 -688 -6
-181 22 -428 36 -637 36 -96 0 -247 5 -335 10 -88 5 -245 14 -349 20 -104 5
-191 12 -193 14 -3 3 2 105 11 228 16 226 25 375 51 794 16 265 44 602 51 623
4 12 33 13 172 7 92 -3 385 -13 652 -21z m-1324 -2012 c-8 -135 -23 -348 -36
-507 -6 -60 -15 -290 -21 -510 -7 -221 -13 -402 -14 -404 -2 -2 -128 -7 -281
-12 -154 -5 -371 -18 -484 -30 -113 -11 -243 -20 -290 -20 -140 -1 -628 -54
-790 -86 -41 -8 -126 -29 -188 -45 -63 -17 -116 -28 -118 -26 -3 2 -16 44 -29
93 -13 49 -38 134 -54 189 -110 366 -357 1384 -337 1390 6 2 81 8 166 15 85 6
211 18 280 27 298 37 396 40 1304 42 l898 1 -6 -117z m619 86 c99 -6 326 -14
505 -19 344 -10 573 -23 680 -40 116 -18 706 -34 790 -21 141 21 309 29 418
20 58 -5 107 -11 109 -13 5 -5 -31 -90 -98 -238 -27 -59 -82 -189 -123 -290
-41 -101 -100 -241 -131 -313 -31 -71 -79 -191 -107 -265 -28 -74 -61 -158
-73 -187 l-23 -52 -324 1 c-177 1 -359 -2 -403 -5 -44 -4 -207 -12 -363 -17
-155 -6 -288 -13 -295 -15 -6 -3 -160 -11 -342 -20 -181 -8 -383 -18 -447 -21
l-118 -7 0 145 c0 228 39 836 85 1311 5 62 9 67 48 61 17 -3 113 -9 212 -15z
m1834 -1715 c6 -6 -61 -206 -125 -369 -23 -60 -61 -159 -84 -220 -88 -233
-364 -800 -404 -830 -15 -12 -460 -2 -711 15 -88 6 -331 13 -540 16 -209 3
-382 7 -384 9 -2 2 2 86 8 187 21 346 31 564 41 843 6 153 13 282 18 286 9 8
135 15 502 29 151 5 367 15 480 21 459 25 1179 33 1199 13z m-2529 -121 c-1
-32 -7 -200 -16 -373 -8 -173 -19 -407 -24 -520 -5 -113 -12 -244 -16 -292
l-7 -87 -41 -5 c-23 -3 -111 -8 -196 -11 -367 -13 -826 -60 -1168 -120 -78
-14 -151 -25 -162 -25 -22 0 -45 41 -133 240 -107 244 -172 447 -283 894 -20
76 -34 139 -32 140 2 2 18 7 37 12 32 9 44 20 54 55 10 32 401 79 827 99 199
9 673 37 740 44 14 1 114 3 223 4 l197 3 0 -58z m1180 -1568 c140 -8 326 -17
413 -21 86 -3 157 -8 157 -11 0 -20 -167 -278 -260 -403 -125 -167 -338 -389
-445 -465 -95 -68 -311 -181 -425 -223 -140 -52 -218 -70 -320 -74 l-85 -3 -3
160 c-4 170 13 640 28 765 5 41 12 123 15 182 l7 107 86 4 c139 6 556 -3 832
-18z m-1264 -222 c-4 -131 -11 -310 -17 -398 -5 -88 -6 -244 -3 -347 l7 -188
-25 0 c-62 0 -351 101 -489 170 -283 143 -592 438 -848 809 -57 83 -62 101
-27 101 13 0 143 12 288 26 353 34 768 61 962 63 l159 1 -7 -237z"/>
<path d="M8038 11510 c-24 -15 -41 -75 -33 -118 5 -20 9 -116 10 -212 2 -149
6 -184 24 -235 26 -74 49 -95 106 -95 57 0 95 32 126 105 23 53 39 70 39 40 0
-37 84 -265 115 -312 28 -42 42 -54 76 -63 50 -14 80 -4 105 35 27 41 19 96
-31 222 -99 250 -176 351 -258 340 -45 -6 -81 -36 -110 -92 l-20 -40 -24 105
c-48 219 -47 208 -32 252 12 38 12 42 -10 59 -25 21 -57 24 -83 9z"/>
<path d="M6994 11151 c-29 -17 -68 -53 -93 -85 -36 -46 -47 -55 -66 -50 -36 9
-62 -4 -75 -37 -11 -25 -10 -40 5 -92 13 -43 20 -117 25 -244 8 -207 18 -237
82 -261 43 -17 79 -4 112 40 20 28 20 30 4 180 -17 163 -12 266 14 328 15 35
79 100 99 100 23 0 50 -23 68 -58 23 -45 65 -199 81 -297 20 -124 62 -195 124
-209 60 -14 70 45 35 209 -58 269 -94 373 -152 434 -72 76 -175 92 -263 42z"/>
<path d="M7439 11111 c-44 -44 -38 -111 15 -153 29 -24 112 -24 152 1 31 19
64 75 64 108 -1 36 -81 73 -157 73 -36 0 -50 -6 -74 -29z"/>
<path d="M7615 10944 c-52 -56 -19 -164 50 -164 62 0 137 70 154 144 3 13 -97
46 -142 46 -28 0 -44 -7 -62 -26z"/>
<path d="M8642 9720 c-31 -29 -38 -65 -17 -96 18 -27 70 -54 106 -54 33 0 145
-60 181 -97 l32 -33 -22 -52 c-46 -115 -42 -161 24 -238 54 -64 53 -77 -11
-163 -25 -32 -47 -74 -51 -93 -3 -19 -10 -37 -15 -40 -49 -30 85 -33 146 -4
54 26 106 98 113 155 8 79 -4 110 -69 174 l-60 58 40 79 c52 100 54 149 12
216 -51 80 -164 157 -280 192 -72 21 -103 20 -129 -4z"/>
<path d="M8328 9401 c-71 -8 -108 -38 -108 -88 0 -45 14 -69 52 -89 88 -46
254 47 219 122 -21 47 -72 64 -163 55z"/>
<path d="M7710 9282 c-19 -9 -53 -35 -76 -57 -58 -56 -78 -124 -78 -275 -1
-151 24 -240 84 -294 51 -46 90 -48 131 -7 33 34 36 60 14 135 -45 160 -64
263 -54 299 5 20 18 41 29 47 48 26 88 3 125 -70 10 -19 32 -55 49 -80 17 -25
47 -76 66 -115 27 -55 43 -74 72 -88 33 -16 40 -17 73 -3 25 11 40 26 51 51
23 55 -1 122 -88 251 -122 179 -182 224 -299 224 -40 0 -77 -7 -99 -18z"/>
<path d="M8413 9187 c-83 -29 -108 -55 -108 -112 0 -67 35 -98 117 -103 58 -3
68 0 128 35 55 32 70 47 97 98 17 33 32 62 32 65 2 12 -79 33 -139 36 -48 2
-81 -3 -127 -19z"/>
<path d="M9131 7841 c-75 -20 -100 -92 -47 -138 30 -26 76 -30 136 -12 49 15
125 4 151 -22 29 -29 25 -110 -11 -219 -32 -96 -36 -134 -20 -189 28 -99 107
-152 235 -158 70 -4 85 -1 125 20 28 16 55 41 71 68 l26 44 -33 32 c-39 38
-80 57 -157 73 -43 9 -56 16 -61 33 -3 12 -3 81 1 152 6 145 0 174 -56 237
-47 54 -117 79 -230 84 -53 2 -111 -1 -130 -5z"/>
<path d="M8312 7550 c-37 -23 -85 -94 -110 -162 -12 -34 -22 -48 -36 -48 -17
0 -18 -6 -12 -67 3 -38 9 -129 12 -203 4 -74 11 -141 17 -149 29 -35 97 -29
118 11 6 11 15 92 20 181 5 89 11 180 15 202 7 43 28 90 44 100 19 12 58 -99
79 -229 29 -171 58 -225 122 -226 35 0 50 20 56 73 6 49 -29 255 -56 332 -25
70 -94 171 -131 190 -40 21 -99 19 -138 -5z"/>
<path d="M8726 7469 c-32 -25 -36 -77 -8 -102 49 -44 130 3 118 68 -11 56 -62
72 -110 34z"/>
<path d="M8747 7290 c-44 -38 -56 -84 -33 -128 48 -93 172 -59 216 58 12 30
33 65 48 78 l27 23 -25 -8 c-28 -8 -58 -8 -141 2 -53 7 -58 6 -92 -25z"/>
<path d="M9777 5968 c-47 -36 -61 -169 -31 -303 8 -38 26 -125 39 -193 27
-139 45 -181 87 -217 39 -33 73 -32 109 4 27 27 29 35 29 101 0 89 -18 174
-75 365 -25 83 -45 165 -45 183 0 58 -67 94 -113 60z"/>
<path d="M9105 5614 c-16 -8 -33 -21 -37 -27 -9 -15 -10 -59 -2 -82 15 -37
102 -58 145 -34 19 9 19 9 10 -10 -50 -92 55 -176 136 -110 41 33 52 52 59
103 l6 43 -45 11 c-36 10 -53 9 -85 -2 l-40 -15 24 49 c14 27 30 52 36 56 17
11 -70 34 -127 34 -27 0 -63 -7 -80 -16z"/>
<path d="M8734 5561 c-17 -10 -40 -38 -52 -62 -13 -27 -29 -44 -39 -44 -16 0
-18 -12 -20 -95 -1 -52 -7 -138 -14 -191 -7 -53 -9 -108 -5 -122 13 -54 85
-61 104 -10 6 16 12 98 15 183 3 129 7 163 24 201 12 26 26 50 34 54 22 14 55
-39 78 -126 51 -191 73 -252 101 -281 49 -49 95 -29 94 41 0 53 -91 350 -120
392 -49 71 -138 98 -200 60z"/>
<path d="M10434 4266 c-37 -16 -64 -51 -64 -82 0 -18 4 -21 22 -16 20 5 19 0
-14 -46 -69 -95 -117 -215 -133 -328 -23 -170 142 -296 291 -223 157 76 224
327 145 540 -49 130 -154 195 -247 155z m90 -351 c0 -104 -21 -202 -49 -225
-21 -18 -48 -8 -63 23 -24 49 14 217 69 306 20 33 22 34 32 15 6 -10 11 -64
11 -119z"/>
<path d="M9532 4063 c-61 -30 -120 -128 -121 -200 -1 -49 -19 -40 -47 22 -27
58 -34 64 -54 41 -13 -17 1 -143 51 -461 17 -104 32 -205 35 -224 14 -89 121
-111 162 -34 16 30 15 101 -4 235 -21 145 -15 372 11 436 9 23 21 42 25 42 15
0 79 -212 99 -330 25 -139 81 -313 113 -347 13 -14 39 -32 58 -40 33 -15 35
-14 57 12 30 34 31 104 3 200 -12 39 -34 122 -50 187 -32 125 -106 328 -145
395 -16 27 -39 48 -68 62 -52 25 -81 26 -125 4z"/>
<path d="M9933 3990 c-66 -29 -93 -62 -93 -110 0 -46 34 -90 70 -90 24 0 27
-15 5 -24 -24 -9 -48 -74 -41 -111 13 -67 100 -112 165 -85 54 22 111 117 111
182 0 19 6 42 14 53 13 19 11 20 -60 18 -75 -2 -87 4 -57 28 47 40 48 110 1
143 -30 21 -63 20 -115 -4z"/>
</g>
</svg>
