<?xml version="1.0" standalone="no"?>
<!DOCTYPE svg PUBLIC "-//W3C//DTD SVG 20010904//EN"
 "http://www.w3.org/TR/2001/REC-SVG-20010904/DTD/svg10.dtd">
<svg version="1.0" xmlns="http://www.w3.org/2000/svg"
 width="2560.000000pt" height="1600.000000pt" viewBox="0 0 2560.000000 1600.000000"
 preserveAspectRatio="xMidYMid meet">

<g transform="translate(0.000000,1600.000000) scale(0.100000,-0.100000)"
fill="#000000" stroke="none">
<path d="M21863 12144 c-44 -22 -161 -166 -299 -365 -143 -209 -202 -309 -313
-529 -151 -299 -197 -422 -291 -776 -51 -189 -35 -284 46 -284 25 0 39 7 58
33 31 40 99 187 178 382 127 313 257 576 401 806 78 126 230 342 243 346 6 2
39 -86 73 -194 91 -283 216 -584 319 -763 55 -96 165 -253 203 -290 47 -45
113 -80 153 -80 65 0 126 50 147 121 16 51 -7 111 -65 176 -122 135 -294 469
-422 816 -24 67 -57 156 -73 197 -15 41 -45 122 -65 180 -52 148 -72 180 -129
209 -62 31 -123 36 -164 15z"/>
<path d="M7426 10999 c-47 -37 -90 -141 -125 -301 -20 -93 -73 -557 -89 -780
-5 -65 -11 -120 -13 -122 -2 -2 -80 -34 -174 -71 -158 -64 -178 -69 -280 -77
-129 -11 -184 -33 -216 -85 -32 -52 -35 -109 -7 -163 29 -56 69 -83 150 -101
131 -29 245 -13 414 57 46 19 87 34 92 34 5 0 12 -306 16 -722 4 -398 12 -758
17 -800 8 -66 6 -89 -13 -170 -18 -79 -22 -122 -22 -288 0 -115 5 -220 13
-255 6 -33 20 -122 30 -198 16 -118 22 -142 46 -173 31 -40 94 -74 140 -74 74
0 158 68 171 137 4 20 4 108 0 197 -3 89 -9 269 -12 401 l-7 240 30 72 c17 39
51 103 77 141 52 79 158 182 186 182 21 0 99 -83 147 -158 32 -50 60 -110 169
-374 25 -59 52 -143 60 -185 25 -134 106 -417 136 -478 79 -158 222 -179 290
-44 42 83 35 170 -37 459 -13 52 -33 136 -44 186 -25 117 -205 518 -283 631
-70 103 -196 233 -255 265 -140 75 -295 59 -430 -44 -36 -27 -68 -47 -71 -44
-6 6 -28 546 -38 942 l-7 261 34 12 c19 6 183 53 364 105 182 52 400 114 485
139 179 53 219 63 506 122 296 61 341 76 403 131 60 54 78 102 61 163 -23 87
-86 123 -215 124 -134 0 -561 -84 -820 -162 -189 -57 -456 -136 -644 -192
l-164 -48 6 252 c3 139 13 380 23 537 19 324 17 340 -39 340 -20 0 -46 -9 -61
-21z"/>
<path d="M5902 10963 c-13 -3 -38 -20 -57 -39 -59 -59 -59 -149 0 -208 105
-105 284 -1 246 142 -22 80 -98 122 -189 105z"/>
<path d="M24880 10813 c-37 -14 -74 -49 -91 -87 -16 -35 -19 -67 -19 -211 0
-176 -14 -291 -50 -408 -10 -34 -33 -136 -50 -227 -109 -577 -117 -613 -146
-679 -25 -57 -104 -181 -115 -181 -14 0 -52 261 -68 470 -8 102 -19 468 -25
850 -1 64 -2 65 -30 68 -55 7 -114 -74 -141 -190 -49 -218 -47 -588 6 -1126
12 -117 19 -215 17 -218 -3 -2 -26 2 -53 10 -59 18 -192 106 -272 179 -135
126 -178 315 -178 792 0 278 13 398 51 484 32 72 31 106 -5 142 -33 32 -58 36
-100 14 -121 -62 -188 -289 -198 -665 -6 -232 13 -468 49 -605 48 -184 167
-340 350 -459 134 -87 212 -118 351 -141 20 -3 37 -9 37 -13 0 -4 7 -83 15
-177 27 -320 45 -480 71 -620 54 -291 72 -394 93 -515 40 -229 64 -281 143
-314 84 -34 163 1 211 94 25 49 27 63 24 130 -2 41 -21 145 -40 230 -20 85
-66 308 -102 495 -36 187 -72 369 -81 405 -8 36 -27 130 -43 209 l-29 145 62
60 c81 79 206 257 261 371 24 50 60 144 79 210 59 197 171 589 218 760 l43
160 -1 185 c0 150 -3 193 -17 229 -22 57 -61 107 -101 132 -30 18 -93 24 -126
12z"/>
<path d="M15303 10298 c-58 -68 -118 -206 -154 -357 -27 -108 -180 -433 -260
-551 -70 -102 -192 -244 -243 -284 l-38 -29 6 84 c4 46 11 208 16 359 9 271
23 391 54 479 20 55 20 84 1 121 -29 55 -113 77 -174 45 -39 -20 -84 -91 -120
-190 -41 -113 -75 -372 -132 -998 -7 -76 -18 -145 -24 -153 -25 -35 -175 -44
-285 -18 -155 36 -272 166 -340 379 -33 101 -29 204 14 470 20 121 41 250 47
288 7 42 28 101 56 160 59 119 66 144 52 184 -20 60 -56 66 -144 24 -74 -34
-133 -99 -177 -190 -37 -78 -139 -481 -164 -645 -31 -214 -4 -370 105 -592 89
-180 204 -295 374 -374 92 -43 168 -60 300 -67 64 -3 117 -9 117 -12 0 -7 -25
-184 -46 -326 -8 -55 -21 -152 -30 -215 -8 -63 -23 -176 -34 -250 -51 -357
-53 -492 -6 -597 15 -33 41 -74 58 -90 26 -25 37 -28 93 -28 56 0 67 3 94 29
50 48 68 106 76 246 4 69 17 195 30 280 14 85 33 234 45 330 11 96 31 254 45
350 13 96 29 222 35 280 6 58 15 115 20 126 5 12 39 42 77 67 74 49 302 249
371 325 133 146 241 309 342 517 128 262 183 478 159 619 -22 134 -58 198
-139 248 -25 15 -26 15 -77 -44z"/>
<path d="M22237 10163 c-36 -41 -38 -89 -40 -844 l-2 -740 -50 6 c-79 10 -168
-17 -382 -116 -109 -50 -236 -106 -283 -124 -47 -18 -111 -45 -143 -59 -32
-14 -59 -26 -61 -26 -14 0 -17 133 -17 768 1 395 -2 750 -6 791 -5 61 -11 79
-32 102 -62 66 -164 22 -196 -84 -28 -93 -54 -320 -66 -567 -23 -487 4 -1553
51 -1986 23 -220 102 -640 147 -784 44 -145 96 -266 131 -307 78 -90 213 -79
262 22 28 57 25 85 -16 200 -89 248 -114 347 -164 650 -51 310 -78 571 -83
783 l-2 122 177 60 c304 101 609 259 706 364 23 25 43 42 46 38 2 -4 9 -181
15 -392 12 -419 22 -562 52 -714 39 -206 77 -271 170 -296 49 -13 81 -7 130
25 73 47 84 123 49 325 -27 157 -38 288 -50 607 -6 149 -21 367 -35 485 -48
429 -54 520 -60 953 -6 434 -13 512 -49 613 -22 62 -52 100 -96 122 -48 25
-82 25 -103 3z"/>
<path d="M11451 10109 c-241 -29 -481 -142 -654 -308 -171 -166 -246 -322
-203 -425 16 -37 16 -38 58 -31 64 11 112 36 283 150 335 223 510 277 784 246
175 -21 278 -68 400 -185 149 -143 217 -245 254 -381 37 -135 48 -259 36 -399
-27 -322 -138 -683 -316 -1026 -137 -265 -245 -423 -370 -545 -87 -85 -155
-127 -276 -173 -143 -53 -279 -46 -378 20 -121 81 -163 244 -123 473 54 314
161 531 363 738 207 214 390 361 548 441 78 39 95 89 49 143 -23 27 -29 28
-108 28 -71 -1 -92 -5 -148 -31 -97 -45 -188 -109 -340 -236 -262 -219 -401
-374 -497 -555 -50 -93 -115 -278 -149 -423 -37 -156 -43 -338 -15 -450 44
-179 126 -299 266 -394 99 -66 173 -87 325 -93 105 -5 139 -2 205 15 102 26
243 87 338 146 361 225 764 906 932 1576 73 293 79 530 21 791 -47 206 -112
323 -286 517 -151 168 -287 261 -468 322 -120 40 -397 65 -531 49z"/>
<path d="M5784 9951 c-38 -23 -76 -72 -97 -123 -66 -160 -166 -722 -301 -1693
-69 -496 -71 -522 -70 -845 0 -304 15 -466 59 -633 69 -265 308 -418 509 -324
74 34 183 143 219 218 14 30 29 77 33 106 6 47 3 60 -32 131 l-38 80 -66 -45
c-36 -25 -99 -78 -140 -117 -103 -99 -104 -100 -131 -85 -53 28 -77 84 -104
238 -57 335 -46 622 49 1291 119 835 224 1469 266 1603 34 109 21 170 -44 201
-45 21 -74 20 -112 -3z"/>
<path d="M19240 7954 c-36 -8 -166 -48 -290 -89 -360 -119 -429 -130 -522 -84
-82 42 -185 13 -228 -63 -43 -77 -6 -226 69 -276 114 -75 321 -89 521 -34 330
89 621 234 703 349 33 47 46 117 27 152 -29 56 -145 74 -280 45z"/>
<path d="M19325 7036 c-139 -29 -220 -41 -422 -63 -136 -14 -176 -15 -245 -5
-123 17 -185 -3 -229 -75 -54 -87 -3 -230 100 -282 91 -47 196 -50 481 -16
257 31 322 45 465 100 211 82 261 114 331 216 l43 63 -39 21 c-21 11 -54 29
-72 40 -53 31 -268 31 -413 1z"/>
<path d="M17110 6920 c-86 -30 -590 -136 -905 -190 -157 -26 -508 -81 -750
-116 -113 -16 -691 -89 -775 -98 -158 -16 -455 -47 -530 -56 -47 -5 -148 -15
-225 -20 -77 -6 -196 -15 -265 -20 -351 -27 -682 -49 -825 -55 -88 -3 -338
-15 -555 -26 -217 -10 -505 -24 -640 -29 -135 -6 -297 -15 -360 -20 -274 -24
-423 -31 -535 -25 -141 8 -300 29 -369 50 -77 24 -142 20 -171 -10 -47 -46
-28 -118 47 -171 94 -68 173 -93 393 -125 158 -24 1607 -11 2370 21 545 23
1262 72 1670 116 77 8 187 19 245 24 97 9 231 26 625 79 395 54 812 118 1005
156 96 18 231 43 300 55 270 45 450 95 502 138 107 90 84 267 -44 333 -52 27
-109 24 -208 -11z"/>
<path d="M14994 5891 c-16 -10 -51 -43 -77 -72 -99 -112 -348 -509 -423 -674
-23 -49 -30 -56 -67 -65 -23 -6 -96 -29 -162 -50 -66 -21 -158 -44 -205 -50
-103 -14 -146 -33 -166 -73 -19 -36 -13 -91 13 -119 52 -58 233 -115 331 -104
29 4 52 2 52 -3 0 -5 -23 -69 -51 -143 -28 -73 -75 -205 -104 -293 -29 -88
-76 -227 -105 -310 -126 -366 -160 -630 -98 -765 31 -67 96 -131 163 -162 73
-34 205 -31 292 5 131 54 325 212 403 330 38 57 51 92 80 217 7 30 15 61 18
69 3 9 -12 5 -44 -12 -27 -15 -80 -38 -117 -52 -92 -34 -188 -84 -272 -140
-87 -59 -178 -105 -206 -105 -20 0 -21 3 -14 63 15 134 47 268 116 485 113
360 215 668 263 792 l44 115 83 27 c46 14 143 43 214 63 72 19 172 56 223 81
84 41 96 50 129 101 l36 57 -41 37 c-75 66 -206 85 -369 54 -90 -17 -93 -18
-93 -7 0 4 43 79 95 167 130 218 204 365 211 419 15 105 -68 169 -152 117z"/>
<path d="M11855 5805 c-86 -19 -258 -98 -345 -160 -209 -148 -556 -466 -611
-560 -44 -76 -40 -144 12 -170 55 -29 169 -12 294 42 97 43 297 169 413 259
134 106 286 184 358 184 114 0 263 -57 364 -140 91 -74 270 -252 264 -262 -3
-4 -14 -8 -24 -8 -23 0 -154 -69 -235 -123 -33 -22 -92 -72 -132 -110 -40 -39
-95 -80 -124 -93 -86 -40 -180 -117 -307 -252 -325 -344 -467 -592 -567 -989
-60 -240 -71 -341 -52 -458 19 -113 46 -186 95 -250 45 -60 144 -129 214 -150
79 -23 224 -38 306 -31 307 25 738 241 992 496 265 265 415 581 455 958 45
419 -20 818 -177 1097 -68 119 -121 186 -254 315 -212 205 -287 261 -450 333
-152 66 -370 99 -489 72z m863 -967 c44 -78 78 -196 101 -356 44 -299 13 -601
-83 -823 -71 -166 -222 -372 -338 -463 -242 -188 -471 -291 -673 -303 -114 -7
-169 7 -194 48 -79 129 32 608 215 931 145 256 404 538 575 624 37 18 75 44
83 56 20 28 20 87 1 112 -8 11 -15 23 -15 27 0 4 49 35 109 69 60 35 124 78
142 96 18 19 36 34 40 34 4 0 21 -24 37 -52z"/>
</g>
</svg>
