<?xml version="1.0" standalone="no"?>
<!DOCTYPE svg PUBLIC "-//W3C//DTD SVG 20010904//EN"
 "http://www.w3.org/TR/2001/REC-SVG-20010904/DTD/svg10.dtd">
<svg version="1.0" xmlns="http://www.w3.org/2000/svg"
 width="2022.000000pt" height="1000.000000pt" viewBox="0 0 2022.000000 1000.000000"
 preserveAspectRatio="xMidYMid meet">

<g transform="translate(0.000000,1000.000000) scale(0.100000,-0.100000)"
fill="#000000" stroke="none">
<path d="M2029 9514 c-10 -12 -13 -47 -11 -138 2 -162 12 -230 34 -234 22 -4
30 78 26 253 -3 109 -6 130 -19 133 -9 1 -22 -5 -30 -14z"/>
<path d="M5107 9412 c-14 -15 -17 -40 -17 -128 0 -131 8 -184 26 -184 17 0 21
18 38 175 14 130 11 155 -19 155 -6 0 -19 -8 -28 -18z"/>
<path d="M7258 9298 c-20 -36 -18 -470 2 -523 8 -22 22 -40 30 -40 9 0 17 15
22 40 8 49 10 507 2 529 -9 23 -41 19 -56 -6z"/>
<path d="M9746 9258 c-13 -18 -16 -53 -16 -178 0 -185 6 -232 29 -228 23 5 41
122 43 281 1 102 -1 130 -13 138 -21 13 -26 11 -43 -13z"/>
<path d="M10590 9218 c-297 -28 -272 -18 -289 -107 -13 -67 -13 -75 2 -86 15
-11 17 -45 17 -316 l0 -304 -259 3 -259 3 -1 109 c-1 115 -11 160 -35 160 -30
0 -39 -31 -44 -150 l-5 -120 -411 0 -412 0 -18 72 c-16 60 -26 79 -66 119 -59
59 -121 74 -179 43 -61 -33 -135 -114 -160 -176 l-23 -58 -544 0 -544 0 0 64
c0 51 -3 65 -17 71 -23 8 -53 -28 -53 -64 0 -14 -3 -36 -6 -48 l-6 -23 -2597
0 c-1429 0 -2600 2 -2602 4 -2 2 -2 55 1 118 3 62 3 149 0 193 -4 66 -8 80
-22 83 -33 6 -40 -41 -33 -225 l7 -173 -185 0 c-168 0 -187 -2 -196 -18 -6
-11 -6 -24 0 -35 9 -16 170 -17 2818 -17 l2809 0 7 -112 c8 -117 19 -158 37
-140 13 13 37 141 37 205 l1 47 539 0 538 0 7 -62 c11 -108 76 -198 142 -198
l24 0 0 -945 c0 -520 1 -948 1 -952 1 -4 -31 -24 -71 -44 -40 -20 -92 -56
-117 -80 -39 -39 -154 -198 -164 -228 -3 -8 -281 -11 -1004 -11 l-1000 0 -6
43 c-22 143 -159 220 -313 175 -65 -19 -155 -116 -186 -200 l-10 -28 -620 0
c-341 0 -620 4 -620 8 0 5 7 60 16 123 19 134 27 488 12 507 -8 9 -6 12 6 12
9 0 16 8 16 19 0 37 -49 43 -405 51 -187 5 -392 14 -455 21 -168 18 -603 16
-775 -4 -77 -9 -177 -19 -222 -23 -45 -3 -86 -11 -91 -18 -5 -6 -14 -40 -21
-75 -9 -54 -8 -67 4 -81 12 -14 15 -61 15 -278 l0 -262 -279 0 -279 0 -7 83
c-3 46 -5 123 -4 171 2 67 0 89 -11 96 -42 26 -56 -62 -35 -220 8 -62 15 -117
15 -122 0 -4 -73 -9 -162 -10 l-163 -3 0 -25 0 -25 464 -3 464 -2 -6 -208 c-4
-114 -10 -268 -13 -344 -7 -132 -6 -137 15 -149 11 -8 21 -22 21 -32 0 -26 71
-54 156 -62 39 -4 345 -8 680 -10 370 -1 640 -7 689 -13 111 -15 211 1 230 38
15 28 27 111 51 335 14 134 45 354 60 428 l6 27 307 0 c169 0 450 -3 624 -7
l316 -6 17 -46 c33 -87 122 -161 194 -161 l30 0 0 -1000 0 -999 -72 -47 c-40
-26 -95 -65 -122 -87 l-48 -41 21 42 c25 49 26 62 6 62 -18 0 -125 -133 -167
-207 l-30 -53 -501 0 c-276 0 -1072 3 -1768 7 l-1267 6 -4 74 c-6 81 -18 105
-46 86 -9 -6 -17 -17 -16 -24 0 -8 4 -42 8 -76 l7 -63 -139 0 c-147 0 -178 -8
-170 -46 5 -26 38 -31 190 -33 117 -1 127 -2 133 -21 8 -25 25 -26 32 -2 4 18
40 19 806 25 441 4 1105 7 1475 7 l672 0 0 -114 c0 -165 9 -238 29 -234 29 6
53 242 32 316 l-10 32 263 0 263 0 1 -67 c3 -133 62 -288 131 -343 22 -16 66
-43 98 -57 80 -38 214 -40 318 -4 239 81 362 214 373 403 l5 78 361 0 c272 0
365 -3 374 -12 10 -10 17 -10 33 0 16 10 582 11 2856 6 l2836 -7 -7 -146 c-21
-460 -21 -418 3 -432 11 -8 21 -22 21 -32 0 -30 77 -55 202 -65 62 -5 280 -6
483 -3 365 6 630 0 835 -18 76 -7 121 -6 164 3 83 17 84 20 111 281 8 83 23
205 32 273 l16 122 408 0 409 0 0 -57 c0 -32 -7 -163 -15 -291 -15 -235 -12
-282 19 -282 8 0 16 -10 18 -22 4 -31 57 -55 138 -64 36 -4 335 -8 665 -9 405
0 636 -5 710 -13 115 -13 190 -5 226 25 21 18 33 87 59 333 12 107 28 241 37
297 l16 103 394 0 c253 0 401 4 414 10 23 13 25 36 2 44 -9 4 -191 6 -405 6
-335 0 -388 2 -388 15 0 8 9 83 20 167 19 154 29 485 15 508 -4 6 1 17 11 25
15 10 16 16 6 28 -22 26 -130 37 -363 37 -204 0 -401 9 -566 26 l-63 6 -1
1167 c-1 641 -4 1636 -8 2211 -3 575 -3 1055 1 1068 6 16 2 28 -14 44 l-21 21
-806 -7 c-443 -4 -817 -10 -830 -13 l-24 -6 9 94 c5 52 9 177 9 279 0 152 3
187 15 197 13 10 13 14 -1 28 -29 29 -98 36 -464 45 -198 5 -423 14 -500 21
-153 12 -529 7 -655 -10 -41 -6 -129 -15 -194 -20 -139 -11 -141 -12 -151
-107 -6 -51 -4 -66 9 -79 14 -15 16 -48 14 -278 l-3 -262 -80 -12 c-44 -6
-142 -12 -217 -12 l-137 -1 -3 108 c-3 101 -4 107 -25 110 -31 5 -41 -21 -49
-126 l-7 -92 -119 0 -120 0 6 28 c13 61 36 234 45 347 11 119 9 334 -3 353 -3
5 1 12 9 16 21 8 19 33 -4 45 -35 19 -196 31 -431 31 -129 0 -314 7 -410 15
-237 20 -567 17 -820 -7z m1236 -84 l322 -6 6 -30 c25 -124 -17 -596 -99
-1118 -19 -124 -35 -234 -35 -245 0 -35 -30 -44 -106 -35 -175 22 -633 33
-979 23 -192 -6 -388 -7 -435 -2 -47 4 -92 8 -100 8 -13 1 -14 50 -7 408 4
225 6 537 5 694 l-3 286 180 16 c185 16 481 16 1251 1z m2625 -60 l336 -6 7
-67 c3 -36 6 -100 6 -141 0 -80 -49 -532 -80 -745 -60 -404 -69 -456 -84 -470
-13 -13 -28 -14 -103 -5 -183 21 -576 29 -951 20 -247 -7 -402 -7 -460 0 -48
5 -91 10 -96 10 -5 0 -6 114 -2 278 15 626 17 844 9 972 l-8 135 195 17 c201
16 400 17 1231 2z m1525 -633 l511 -1 -5 -2207 c-2 -1215 -5 -2209 -6 -2209 0
-1 -44 1 -96 3 l-95 5 0 2104 c0 1885 -2 2105 -15 2119 -14 14 -92 14 -725 7
-391 -4 -712 -7 -715 -6 -5 2 24 199 29 199 0 0 137 -3 303 -6 167 -4 533 -7
814 -8z m-3016 -133 c0 -35 -7 -189 -16 -342 l-17 -280 24 -20 c25 -21 29 -28
29 -46 0 -6 21 -21 48 -33 47 -22 49 -22 627 -22 393 0 637 -5 757 -14 193
-15 279 -10 308 19 21 21 31 79 60 355 12 110 25 215 28 234 l7 33 140 -1 c77
0 394 -4 703 -7 l564 -7 -7 -89 c-4 -49 -8 -984 -8 -2078 l-2 -1990 -70 0
c-38 0 -128 -7 -200 -14 -71 -8 -169 -18 -216 -21 -48 -4 -91 -10 -97 -14 -6
-4 -17 -40 -24 -80 -11 -66 -11 -74 5 -86 15 -11 17 -40 17 -307 l0 -295 -397
-5 c-219 -3 -400 -4 -402 -2 -2 1 6 70 18 151 11 81 25 195 31 253 12 112 9
347 -3 368 -5 7 -3 12 7 12 9 0 16 8 16 19 0 37 -49 44 -400 51 -305 7 -385
11 -505 26 l-40 4 0 457 0 456 215 -6 c118 -4 260 -11 315 -17 118 -12 209 2
231 35 16 24 28 100 54 350 12 105 34 271 50 370 48 291 62 442 58 617 -2 119
0 159 10 163 23 8 12 26 -25 42 -31 14 -98 18 -383 24 -190 4 -392 13 -450 20
-158 18 -595 16 -770 -4 -80 -9 -180 -19 -223 -23 -44 -4 -84 -12 -91 -20 -23
-23 -31 -129 -12 -169 14 -29 16 -71 14 -295 l-3 -262 -250 1 c-137 1 -251 3
-252 5 -3 2 12 222 19 276 4 36 -35 40 -57 6 -14 -21 -16 -47 -13 -155 l3
-131 -1302 0 -1301 0 -17 50 c-12 35 -22 50 -35 50 -27 0 -43 -26 -38 -65 l4
-35 -322 0 -321 0 -7 60 c-9 82 -64 187 -125 243 -54 48 -104 67 -175 67 l-46
0 0 958 0 957 34 19 c19 10 48 32 64 50 35 36 82 121 82 147 0 18 18 19 425
19 l425 0 0 -24 c0 -13 7 -29 15 -36 13 -10 17 -7 30 24 l15 36 228 0 c125 0
245 3 266 7 l39 6 -6 -154 c-21 -498 -21 -468 -3 -475 10 -4 22 -18 27 -31 5
-15 27 -33 56 -46 48 -22 51 -22 568 -19 400 2 574 -1 755 -14 243 -16 333
-13 362 13 22 20 34 81 53 273 16 156 41 351 51 403 l6 27 122 0 122 0 12 -76
c13 -84 17 -94 36 -94 14 0 20 22 32 118 l7 52 126 0 c84 1 154 7 211 19 47
11 88 19 93 20 4 1 7 -27 7 -61z m1165 -1803 c154 -8 362 -15 462 -15 l181 0
7 -97 c4 -53 5 -137 1 -187 -16 -211 -96 -836 -141 -1090 -9 -49 -30 -65 -73
-56 -93 21 -483 32 -977 29 -286 -2 -535 0 -554 5 l-34 8 9 352 c9 370 12 750
5 926 l-4 105 124 7 c68 5 169 12 224 17 159 13 467 12 770 -4z m-10320 -40
c154 -8 357 -15 451 -15 147 0 173 -2 178 -16 3 -9 6 -87 6 -175 0 -171 -42
-563 -99 -929 -16 -102 -32 -207 -36 -235 -9 -65 -29 -84 -74 -74 -95 21 -487
32 -956 26 -324 -5 -510 -3 -550 4 l-60 10 6 345 c5 250 10 348 19 359 9 11 9
19 2 28 -7 8 -12 130 -14 335 l-3 322 75 1 c41 0 138 7 215 14 193 17 508 17
840 0z m5013 -371 c78 -32 136 -119 148 -218 l7 -56 -142 0 -141 0 0 63 c0 34
3 99 7 145 l6 82 39 0 c21 0 55 -7 76 -16z m-198 -144 l0 -130 -120 0 c-66 0
-120 4 -120 9 0 5 11 33 24 62 34 77 154 186 209 189 4 0 7 -58 7 -130z
m-1388 -297 c-6 -175 30 -421 61 -410 19 6 25 75 16 177 -4 52 -8 148 -9 213
l0 117 463 0 462 0 0 -108 c0 -120 9 -146 72 -207 93 -90 281 -85 483 14 100
49 176 124 225 224 l38 77 330 0 330 0 -4 -137 c-3 -118 -2 -138 11 -138 19 0
65 135 76 218 l7 57 1575 0 1575 0 -7 -127 c-3 -71 -11 -210 -18 -310 -12
-191 -7 -233 27 -233 9 0 14 -4 11 -9 -12 -18 6 -39 48 -55 66 -25 234 -37
437 -30 l186 7 -1 -450 -1 -451 -125 -6 c-69 -4 -186 -13 -260 -21 -74 -8
-170 -17 -212 -20 -42 -4 -81 -12 -86 -18 -5 -7 -14 -41 -21 -76 -9 -54 -8
-67 4 -81 13 -14 15 -68 15 -336 l0 -319 -1626 -1 -1626 -1 6 61 c3 33 7 113
8 176 3 111 2 115 -18 118 -46 7 -72 -144 -52 -299 l8 -56 -587 -6 c-322 -4
-856 -7 -1186 -7 l-599 0 7 23 c4 12 9 82 12 155 5 134 0 162 -33 162 -27 0
-36 -45 -42 -193 l-5 -150 -66 7 c-36 3 -203 6 -371 6 l-305 1 -33 68 c-43 91
-144 201 -211 230 -28 12 -77 24 -111 28 l-60 6 -2 988 c-1 544 -2 997 -2
1006 -1 12 10 19 37 25 91 19 145 67 168 151 l10 37 487 0 487 0 -3 -97z
m1388 -32 l0 -129 -67 -12 c-94 -16 -139 -6 -187 41 l-39 39 5 83 c2 45 8 88
12 95 5 8 47 12 142 12 l134 0 0 -129z m320 121 c0 -15 -57 -97 -89 -129 -29
-27 -138 -93 -155 -93 -3 0 -6 52 -6 115 l0 115 125 0 c69 0 125 -4 125 -8z
m4945 -1208 l0 -456 -59 6 c-32 3 -76 6 -97 6 l-39 0 0 450 0 450 98 0 97 0 0
-456z m270 -549 c154 -8 355 -15 446 -15 143 0 168 -2 173 -16 3 -9 6 -86 6
-172 0 -166 -43 -577 -94 -892 -14 -85 -30 -192 -36 -238 -13 -100 -29 -121
-80 -110 -96 20 -461 30 -955 27 -291 -2 -548 0 -570 4 l-40 8 8 382 c4 210 6
523 5 695 l-3 312 75 1 c41 0 136 7 210 14 186 17 522 17 855 0z m2640 -60
c154 -8 364 -15 467 -15 l186 0 8 -67 c15 -146 -24 -567 -95 -1023 -16 -102
-33 -213 -37 -247 -9 -84 -27 -105 -80 -93 -92 20 -490 32 -984 29 -283 -2
-530 0 -548 4 -25 7 -31 13 -27 26 3 9 6 321 7 692 l3 676 135 7 c74 5 176 11
225 15 153 13 447 11 740 -4z m-10660 -470 c67 -9 115 -36 160 -87 36 -41 95
-135 95 -150 0 -5 -76 -8 -170 -8 l-170 0 0 131 c0 119 1 130 18 126 9 -3 39
-8 67 -12z m-155 -135 l0 -110 -120 0 c-66 0 -120 4 -120 9 0 19 71 99 121
137 70 53 102 74 111 74 5 0 8 -49 8 -110z m424 -226 c-2 -132 -101 -238 -287
-308 l-67 -26 0 195 0 194 158 4 c86 1 166 3 177 2 18 0 20 -7 19 -61z m-424
-144 l0 -200 -37 0 c-90 0 -194 53 -230 117 -12 21 -29 63 -37 94 -16 54 -16
59 5 123 l22 66 138 0 139 0 0 -200z"/>
<path d="M10903 8808 c-6 -7 -13 -96 -17 -197 -5 -158 -9 -191 -26 -224 -18
-33 -19 -46 -11 -97 5 -32 7 -108 4 -167 -5 -94 -3 -111 11 -126 23 -22 49
-22 70 2 14 16 18 44 22 152 2 72 5 134 7 136 3 2 37 -1 77 -8 40 -6 131 -9
202 -7 l129 3 -5 -55 c-18 -185 -18 -200 -2 -225 11 -17 26 -25 46 -25 42 0
60 32 60 105 0 33 9 139 21 235 24 211 28 433 8 476 -15 32 -51 43 -75 24 -10
-9 -14 -37 -14 -108 0 -102 -19 -314 -29 -329 -7 -10 -366 1 -394 12 -16 7
-18 15 -13 59 12 103 10 330 -2 354 -14 24 -53 30 -69 10z"/>
<path d="M14274 8648 c-42 -46 -104 -117 -137 -158 -33 -41 -60 -76 -61 -77
-1 -2 -34 1 -72 6 -93 11 -218 -3 -299 -34 -72 -27 -184 -97 -240 -150 -39
-36 -47 -78 -17 -94 14 -8 37 4 113 54 51 36 126 76 164 91 74 27 217 47 259
36 26 -7 25 -8 -75 -157 -55 -83 -109 -167 -120 -188 -23 -44 -22 -85 3 -101
25 -15 44 7 193 227 143 212 124 200 234 139 84 -45 146 -104 184 -170 16 -29
34 -51 41 -49 7 2 11 28 10 64 -2 107 -53 167 -212 247 -53 27 -71 40 -64 49
79 103 118 161 156 230 79 144 56 157 -60 35z"/>
<path d="M9753 8138 c-6 -7 -19 -38 -29 -68 -28 -84 -17 -235 17 -235 10 0 19
31 32 120 25 165 25 189 6 193 -9 1 -20 -3 -26 -10z"/>
<path d="M14905 7996 c-41 -41 -47 -166 -9 -207 21 -23 62 -25 71 -4 3 9 -2
24 -11 34 -17 19 -20 53 -7 85 11 28 29 -47 44 -181 12 -115 25 -135 65 -107
17 12 22 26 23 67 2 52 2 52 10 -16 8 -76 20 -97 55 -97 31 0 45 22 99 161 26
65 51 121 56 125 6 4 7 -27 3 -84 -8 -109 -2 -140 30 -148 32 -8 82 20 101 56
17 33 7 45 -31 36 l-24 -6 0 109 c0 116 -10 157 -42 167 -43 13 -89 -41 -135
-161 -15 -38 -30 -74 -34 -78 -3 -5 -10 18 -14 50 -3 32 -13 68 -21 81 -15 23
-58 30 -69 12 -12 -19 -23 -10 -30 27 -7 40 -62 103 -89 103 -10 0 -28 -11
-41 -24z"/>
<path d="M12482 7988 c-29 -36 -56 -309 -36 -362 6 -16 34 -23 34 -8 1 4 5 27
10 52 16 78 41 310 35 320 -9 14 -31 12 -43 -2z"/>
<path d="M15620 7742 c-59 -29 -99 -136 -71 -190 5 -9 16 -33 24 -53 19 -46
53 -56 103 -33 76 36 113 142 79 229 -25 67 -67 82 -135 47z m68 -106 c4 -44
-24 -98 -39 -75 -13 21 -11 93 3 107 20 20 33 8 36 -32z"/>
<path d="M9731 7588 c-29 -65 -34 -142 -16 -232 15 -82 28 -107 44 -90 6 5 15
77 20 159 6 83 12 161 13 175 2 19 -2 26 -20 28 -18 3 -26 -5 -41 -40z"/>
<path d="M12425 7341 c-11 -19 -26 -187 -23 -267 2 -62 6 -79 18 -79 23 0 47
113 51 240 4 106 3 110 -18 113 -11 2 -24 -2 -28 -7z"/>
<path d="M9723 7083 c-25 -60 -38 -202 -25 -274 13 -70 38 -117 54 -101 6 6
14 90 18 189 4 98 8 183 10 188 6 23 -1 35 -21 35 -14 0 -25 -12 -36 -37z"/>
<path d="M12389 6803 c-10 -12 -14 -51 -14 -152 0 -152 9 -211 30 -211 20 0
23 23 28 207 4 135 2 163 -10 167 -20 8 -19 8 -34 -11z"/>
<path d="M9708 6558 c-32 -49 -43 -104 -42 -213 0 -98 3 -116 27 -168 43 -94
53 -75 48 99 -3 116 0 164 14 216 9 37 14 72 10 78 -11 18 -42 11 -57 -12z"/>
<path d="M14879 5424 c-17 -21 -24 -150 -10 -186 8 -22 17 -28 41 -28 30 0 30
-1 30 -54 0 -52 16 -86 40 -86 19 0 40 34 40 65 0 19 5 57 11 86 15 70 29 46
29 -53 0 -56 4 -81 16 -92 35 -36 59 -13 98 96 28 79 68 134 87 123 7 -5 10
-51 8 -132 -3 -130 1 -142 42 -143 36 0 44 29 44 159 0 139 -11 176 -57 199
-44 21 -106 -14 -149 -82 l-18 -29 -6 36 c-12 64 -73 101 -105 62 -17 -21 -30
-19 -30 5 0 28 -44 70 -73 70 -14 0 -31 -7 -38 -16z"/>
<path d="M15486 5171 c-27 -29 -20 -178 10 -217 27 -37 40 -40 55 -12 18 32
15 165 -5 211 -17 41 -34 46 -60 18z"/>
<path d="M14230 6090 c-189 -169 -177 -161 -225 -150 -53 13 -227 13 -290 1
-216 -42 -386 -188 -322 -275 20 -27 52 -17 52 16 0 86 215 178 416 178 54 0
100 -4 103 -9 4 -5 -21 -42 -55 -82 -134 -161 -229 -305 -229 -350 0 -30 15
-46 45 -49 39 -4 45 0 43 28 -2 31 20 63 201 287 57 72 106 132 107 134 2 2
25 -4 50 -14 29 -11 75 -44 120 -87 48 -46 79 -68 89 -64 21 8 19 15 -21 82
-42 70 -110 143 -141 151 -13 3 -23 8 -23 12 0 4 58 73 130 152 71 79 128 149
126 154 -8 27 -42 4 -176 -115z"/>
<path d="M3183 6098 c-11 -13 -22 -30 -25 -38 -3 -8 1 -94 7 -190 11 -152 11
-177 -2 -197 -12 -18 -14 -53 -11 -185 5 -172 9 -192 40 -209 57 -30 78 22 78
197 l0 121 148 31 c81 18 166 35 188 38 l42 6 4 -169 c4 -187 14 -223 63 -223
50 0 54 16 50 198 -3 92 -7 260 -9 375 -6 227 -13 262 -56 262 -41 0 -50 -34
-50 -202 0 -145 -1 -151 -20 -146 -23 6 -168 -19 -268 -47 -40 -11 -78 -20
-85 -20 -11 0 -17 42 -26 193 -7 105 -16 198 -20 206 -12 23 -26 23 -48 -1z"/>
<path d="M12369 5533 c-10 -11 -15 -56 -17 -155 -4 -154 2 -208 23 -208 24 0
59 216 49 299 -9 77 -27 98 -55 64z"/>
<path d="M9704 5198 c-18 -35 -30 -167 -20 -222 10 -54 33 -46 51 19 17 57 36
214 28 228 -11 18 -44 5 -59 -25z"/>
<path d="M7259 5044 c-37 -45 9 -459 51 -459 13 0 15 23 14 155 -2 204 -14
314 -35 318 -9 1 -22 -5 -30 -14z"/>
<path d="M12361 4880 c-15 -9 -16 -21 -13 -198 2 -121 4 -133 20 -130 9 2 27
23 40 48 24 49 28 116 11 190 -13 55 -17 73 -18 81 -2 12 -27 17 -40 9z"/>
<path d="M9696 4702 c-16 -26 -25 -156 -16 -223 15 -105 20 -120 39 -117 22 4
32 85 29 228 -3 109 -4 115 -25 118 -11 2 -24 -1 -27 -6z"/>
<path d="M7272 4378 c-9 -9 -12 -63 -12 -197 0 -229 7 -293 29 -289 13 3 19
39 35 220 21 231 18 270 -19 276 -11 1 -26 -3 -33 -10z"/>
<path d="M12332 4298 c-13 -17 -35 -287 -26 -332 9 -52 31 -45 49 17 22 72 32
291 15 312 -15 18 -24 19 -38 3z"/>
<path d="M9705 4034 c-42 -42 -50 -75 -48 -193 3 -108 14 -154 34 -134 5 5 15
63 22 129 8 66 19 130 26 141 25 48 0 90 -34 57z"/>
<path d="M12316 3718 c-3 -7 -9 -85 -15 -173 -12 -172 -6 -260 19 -260 26 0
42 99 43 275 2 164 2 165 -21 168 -12 2 -24 -3 -26 -10z"/>
<path d="M14155 3728 c-17 -12 -63 -58 -103 -102 -40 -45 -115 -126 -166 -180
l-93 -99 -59 40 c-90 61 -268 153 -296 153 -27 0 -58 -28 -58 -52 0 -23 34
-61 56 -63 28 -2 233 -118 283 -161 2 -2 -46 -64 -105 -138 -120 -150 -184
-248 -184 -282 0 -29 25 -54 53 -54 32 0 101 42 105 64 2 10 -2 22 -9 27 -9 5
20 48 105 153 64 80 121 148 125 151 5 2 46 -24 92 -59 80 -60 131 -115 136
-145 2 -19 64 -81 91 -92 51 -20 98 33 75 84 -17 37 -148 170 -233 237 -44 35
-80 66 -80 68 0 9 74 96 217 254 79 87 143 164 143 172 0 20 -28 46 -48 46
-10 0 -31 -10 -47 -22z"/>
<path d="M16235 3575 c-5 -2 -22 -6 -38 -9 -60 -14 -85 -72 -49 -115 19 -24
93 -45 123 -36 26 9 24 44 -3 54 -35 13 65 21 257 21 l170 -1 -45 -40 c-25
-23 -92 -85 -149 -138 l-105 -96 -54 0 c-42 0 -57 -4 -66 -18 -9 -15 -6 -22
18 -42 l29 -23 -67 -76 c-80 -92 -153 -189 -161 -217 -4 -12 0 -30 9 -44 23
-35 64 -32 111 5 21 17 38 30 39 30 0 0 23 -7 51 -15 63 -19 191 -34 327 -37
92 -2 110 1 128 17 32 29 27 78 -15 123 -34 36 -36 36 -50 18 -8 -11 -15 -28
-15 -39 0 -17 -7 -18 -107 -12 -122 8 -262 30 -275 43 -4 4 25 48 68 100 l76
91 86 3 c68 2 87 6 87 18 0 9 -20 20 -54 30 l-53 15 146 139 c80 76 149 148
152 161 9 38 -12 63 -68 80 -40 12 -101 15 -272 14 -122 0 -225 -2 -231 -4z"/>
<path d="M12521 9216 c-6 -7 -18 -83 -27 -167 -15 -146 -15 -157 3 -208 19
-57 36 -73 47 -46 3 9 13 71 22 138 19 145 16 273 -6 287 -20 13 -26 12 -39
-4z"/>
<path d="M5071 8866 c-15 -18 -15 -34 1 -221 10 -121 16 -150 28 -150 22 0 32
96 27 238 -6 134 -23 173 -56 133z"/>
<path d="M569 8773 c-10 -2 -29 -36 -47 -81 -25 -65 -28 -80 -18 -97 9 -14 10
-43 5 -105 -14 -153 16 -215 117 -242 l44 -12 0 -52 c0 -69 13 -102 45 -110
43 -11 53 8 60 124 8 104 9 108 45 152 21 25 43 56 51 70 16 32 40 131 33 142
-11 18 -33 6 -58 -31 -60 -86 -63 -84 -58 47 3 80 9 122 18 133 8 8 14 21 14
27 0 15 -33 32 -64 32 -48 0 -57 -32 -69 -237 -11 -169 -14 -188 -30 -191 -10
-2 -28 5 -39 15 -22 19 -22 9 -2 304 6 89 5 98 -12 106 -10 5 -26 8 -35 6z"/>
<path d="M342 8758 c-8 -8 -12 -51 -12 -129 0 -64 -5 -208 -12 -320 -18 -300
-17 -319 8 -335 19 -13 24 -12 43 3 33 27 46 154 46 428 -1 247 -8 327 -32
350 -18 18 -25 19 -41 3z"/>
<path d="M979 8726 c-10 -21 -7 -29 17 -60 16 -20 32 -36 36 -36 4 0 50 -51
103 -114 l95 -114 -141 -139 c-155 -152 -184 -191 -175 -228 14 -54 68 -52
110 4 47 62 284 295 313 307 55 24 55 84 -1 98 -12 3 -43 32 -68 63 -175 221
-259 285 -289 219z"/>
<path d="M5070 8280 c-9 -5 -10 -19 -6 -46 4 -22 10 -106 13 -187 4 -131 7
-148 21 -145 39 8 57 239 25 329 -18 51 -31 63 -53 49z"/>
<path d="M2021 7896 c-8 -9 -11 -99 -9 -307 3 -254 5 -294 18 -294 24 0 39
136 39 376 1 155 -2 218 -11 227 -15 15 -23 15 -37 -2z"/>
<path d="M7279 7784 c-21 -35 -21 -39 -9 -120 9 -55 11 -113 6 -171 -12 -145
-12 -148 4 -148 8 0 26 27 42 65 32 76 37 167 14 265 -13 52 -12 63 1 88 31
62 -21 81 -58 21z"/>
<path d="M5026 7525 c-7 -42 -1 -189 10 -282 6 -51 29 -58 38 -12 3 17 6 101
6 185 l0 154 -24 0 c-20 0 -25 -6 -30 -45z"/>
<path d="M7219 7143 c-8 -20 -8 -43 0 -84 6 -30 11 -126 11 -212 0 -103 4
-158 11 -163 17 -10 26 12 43 106 19 101 20 165 4 246 -6 32 -12 75 -12 94 -1
28 -5 36 -23 38 -17 3 -26 -4 -34 -25z"/>
<path d="M2000 7095 c-10 -12 -12 -64 -7 -243 7 -241 12 -282 32 -282 19 0 27
111 23 340 -3 169 -5 195 -19 198 -9 1 -22 -4 -29 -13z"/>
<path d="M5036 7038 c-3 -13 -7 -105 -10 -205 -4 -150 -3 -183 8 -183 22 0 57
209 54 316 -3 83 -4 89 -25 92 -17 2 -24 -3 -27 -20z"/>
<path d="M7243 6378 c-4 -7 -9 -76 -11 -153 -3 -162 14 -300 38 -300 13 0 16
34 20 220 3 121 1 226 -4 233 -5 6 -14 12 -22 12 -7 0 -16 -6 -21 -12z"/>
<path d="M5024 6366 c-3 -7 2 -30 10 -51 11 -27 16 -71 16 -151 0 -92 3 -114
14 -114 17 0 21 11 36 97 18 105 -9 233 -50 233 -12 0 -23 -6 -26 -14z"/>
<path d="M317 6082 c-15 -16 -17 -54 -17 -333 0 -341 3 -359 54 -359 53 0 55
25 39 427 -10 251 -15 283 -48 283 -6 0 -19 -8 -28 -18z"/>
<path d="M943 6093 c-7 -2 -13 -13 -13 -24 0 -32 197 -207 259 -230 22 -9 21
-12 -45 -73 -38 -34 -99 -89 -137 -120 -63 -54 -107 -115 -107 -150 0 -20 28
-46 48 -46 9 0 87 67 172 150 85 82 170 160 187 172 18 13 33 30 33 38 0 8
-35 43 -78 77 -42 34 -119 96 -170 137 -88 71 -114 84 -149 69z"/>
<path d="M675 5989 c-119 -64 -176 -154 -183 -294 l-4 -83 48 -46 c55 -51 89
-62 167 -52 90 12 130 29 178 76 54 52 71 100 71 198 -1 108 -37 177 -109 208
-48 21 -122 17 -168 -7z m167 -99 c21 -25 33 -98 24 -144 -14 -75 -89 -125
-185 -126 l-54 0 8 88 c4 48 8 100 9 116 1 23 11 36 51 63 43 30 56 34 90 30
23 -4 47 -14 57 -27z"/>
<path d="M5007 5728 c-2 -8 0 -89 6 -181 8 -126 14 -167 24 -167 20 0 24 34
21 200 -3 149 -4 155 -24 158 -12 2 -24 -3 -27 -10z"/>
<path d="M1983 5453 c-6 -16 13 -285 24 -330 3 -13 11 -23 19 -23 19 0 21 339
2 358 -17 17 -38 15 -45 -5z"/>
<path d="M4994 5216 c-9 -24 15 -359 26 -370 7 -7 14 -6 22 2 15 15 15 316 -1
355 -11 29 -38 36 -47 13z"/>
<path d="M1966 4677 c-17 -71 -18 -142 -1 -232 10 -52 22 -95 27 -95 4 0 11
-1 15 -2 4 -2 7 77 7 175 1 175 1 177 -20 177 -14 0 -24 -8 -28 -23z"/>
<path d="M5002 4628 c-27 -27 -6 -294 29 -359 23 -44 29 -3 22 174 -6 191 -15
221 -51 185z"/>
<path d="M1990 4060 c-17 -11 -20 -106 -7 -202 7 -46 12 -58 26 -58 15 0 19
12 25 61 9 88 8 154 -4 183 -10 28 -17 31 -40 16z"/>
<path d="M5023 3984 c-3 -8 -3 -41 -1 -72 3 -31 0 -115 -6 -187 -15 -156 -11
-217 12 -213 52 10 98 418 53 472 -17 21 -50 21 -58 0z"/>
<path d="M981 3586 c-17 -20 -17 -66 -1 -96 17 -33 95 -135 143 -187 l39 -43
-72 -77 c-118 -126 -155 -200 -116 -232 26 -22 72 15 180 145 133 162 136 167
105 197 -48 46 -195 220 -222 263 -29 47 -38 52 -56 30z"/>
<path d="M376 3567 c-28 -21 -36 -112 -36 -401 0 -239 2 -285 16 -304 17 -24
46 -29 62 -9 15 17 16 61 14 404 -2 283 -3 303 -21 312 -13 7 -23 7 -35 -2z"/>
<path d="M762 3451 c-101 -35 -173 -134 -194 -267 -15 -96 -12 -133 17 -176
66 -99 166 -102 293 -9 48 35 87 107 98 177 8 53 -12 180 -34 218 -38 66 -100
85 -180 57z m102 -93 c22 -35 30 -121 16 -178 -14 -58 -54 -104 -115 -131 -46
-21 -54 -22 -75 -9 -12 7 -12 12 4 28 11 13 16 32 14 54 -2 27 -7 33 -25 32
-45 -1 -23 91 38 161 55 63 118 81 143 43z"/>
<path d="M18814 3435 c-13 -20 -15 -38 -9 -90 3 -36 10 -161 14 -278 5 -131
12 -221 20 -235 13 -25 62 -31 78 -9 7 8 7 105 1 272 -12 343 -12 330 -27 349
-20 24 -58 20 -77 -9z"/>
<path d="M19677 3453 c-4 -3 -7 -19 -7 -35 0 -40 59 -100 168 -172 l90 -59
-58 -43 c-95 -70 -197 -171 -219 -219 -22 -46 -27 -90 -12 -99 14 -9 102 53
206 147 130 117 168 142 218 142 84 0 73 63 -23 126 -210 137 -258 170 -279
193 -23 25 -69 35 -84 19z"/>
<path d="M19085 3426 c-30 -31 -65 -143 -65 -212 0 -35 7 -69 19 -93 23 -44
82 -99 121 -113 26 -9 27 -12 32 -100 6 -92 19 -126 61 -152 32 -20 42 8 47
137 l5 121 38 9 c48 12 139 93 166 150 27 57 28 131 1 175 -11 19 -26 32 -33
29 -7 -2 -16 -32 -20 -66 -9 -77 -34 -128 -82 -169 -67 -59 -71 -53 -79 122
-3 85 -9 162 -12 171 -4 9 -15 15 -28 13 -29 -4 -44 -70 -53 -225 -3 -68 -9
-123 -13 -123 -20 0 -61 46 -71 79 -17 57 4 149 38 162 21 8 24 13 18 42 -8
37 -32 67 -52 67 -8 0 -25 -11 -38 -24z"/>
<path d="M12302 3108 c-7 -7 -12 -38 -12 -73 0 -34 -5 -97 -11 -141 -13 -100
-2 -207 23 -212 28 -5 43 92 43 273 0 135 -2 160 -15 163 -9 1 -21 -3 -28 -10z"/>
<path d="M9634 2972 c-16 -10 -34 -70 -34 -110 0 -19 9 -74 21 -123 16 -71 24
-89 38 -89 16 0 19 14 25 108 11 166 -7 243 -50 214z"/>
<path d="M1984 2808 c-11 -17 -18 -199 -10 -252 5 -30 12 -46 22 -46 8 0 14 6
15 13 0 6 6 71 13 142 13 130 10 155 -20 155 -7 0 -16 -5 -20 -12z"/>
<path d="M7185 2753 c-24 -63 -15 -390 11 -400 8 -3 17 -3 20 -1 2 3 11 60 20
127 21 159 11 284 -22 289 -13 2 -24 -4 -29 -15z"/>
<path d="M12263 2488 c-16 -20 -25 -226 -13 -304 15 -101 19 -114 35 -114 16
0 22 40 28 190 5 145 -4 234 -24 238 -9 1 -20 -3 -26 -10z"/>
<path d="M4980 2446 c-25 -31 -41 -307 -20 -361 27 -70 57 64 63 275 2 80 0
95 -14 98 -9 1 -22 -4 -29 -12z"/>
<path d="M9643 2435 c-3 -9 -3 -33 0 -53 4 -20 11 -66 16 -102 6 -36 11 -97
11 -137 0 -79 6 -103 25 -103 17 0 21 11 41 132 16 93 16 111 4 164 -8 32 -15
66 -16 74 0 8 -2 21 -3 28 -2 18 -70 16 -78 -3z"/>
<path d="M1934 2244 c-13 -32 -13 -49 6 -182 29 -201 39 -242 56 -242 24 0 26
22 13 146 -6 66 -13 160 -15 209 -2 50 -3 93 -4 98 0 4 -9 7 -21 7 -14 0 -25
-11 -35 -36z"/>
<path d="M7159 2133 c-16 -41 -16 -248 0 -316 10 -45 16 -57 29 -55 15 3 18
26 22 188 3 102 1 191 -4 198 -14 20 -36 14 -47 -15z"/>
<path d="M12321 1899 c-24 -26 -33 -104 -29 -249 2 -85 6 -105 18 -105 41 0
98 333 62 363 -21 17 -28 15 -51 -9z"/>
<path d="M9626 1788 c-8 -13 -17 -59 -21 -103 -10 -128 28 -216 62 -144 18 38
36 176 28 218 -10 54 -44 68 -69 29z"/>
<path d="M4929 1768 c-13 -23 -15 -209 -4 -229 4 -5 12 -9 20 -9 16 0 24 49
28 170 2 72 0 85 -15 88 -10 2 -22 -7 -29 -20z"/>
<path d="M7157 1583 c-21 -20 2 -138 26 -130 16 5 29 108 15 124 -11 14 -31
17 -41 6z"/>
<path d="M1730 1498 c-34 -56 -44 -108 -44 -253 -1 -124 1 -144 20 -175 25
-44 78 -80 115 -80 29 0 29 0 29 -64 0 -65 14 -96 44 -96 30 0 41 32 37 111
l-3 79 40 45 c49 56 67 92 88 182 17 68 14 110 -5 98 -5 -3 -30 -42 -55 -88
-25 -45 -50 -89 -56 -97 -7 -10 -10 34 -10 146 0 155 1 162 21 167 15 4 20 12
17 29 -6 47 -102 17 -110 -34 -3 -18 -7 -15 -28 18 -34 54 -72 58 -100 12z
m104 -69 c15 12 16 -4 16 -173 0 -204 -2 -209 -57 -162 -28 24 -28 26 -28 138
0 62 4 134 8 160 7 43 10 46 27 36 14 -9 22 -9 34 1z"/>
<path d="M1491 1446 c-11 -13 -9 -91 14 -525 5 -100 21 -141 54 -141 35 0 41
21 31 121 -5 51 -14 190 -20 307 -5 117 -15 222 -20 232 -12 23 -43 26 -59 6z"/>
<path d="M2342 1448 c-35 -35 5 -82 181 -208 l146 -104 -52 -56 c-70 -73 -121
-138 -141 -177 -20 -40 -21 -93 -2 -93 21 0 118 92 187 178 34 43 70 83 80 90
27 19 24 38 -15 91 -46 62 -85 97 -186 166 -47 33 -103 74 -126 92 -45 36 -54
39 -72 21z"/>
<path d="M5252 1378 c-21 -21 -13 -42 39 -98 27 -30 75 -89 106 -130 31 -41
76 -96 101 -122 l46 -48 -35 -37 c-107 -113 -159 -196 -159 -252 0 -79 66 -27
184 145 71 102 86 131 78 143 -6 9 -30 50 -52 91 -71 129 -173 252 -250 304
-29 19 -42 20 -58 4z"/>
<path d="M12107 1365 c-19 -19 -24 -46 -42 -259 -9 -99 -17 -182 -19 -184 -3
-2 -13 1 -25 7 -31 17 -34 65 -16 216 9 75 14 143 11 151 -9 25 -45 16 -61
-15 -35 -69 -58 -316 -34 -364 22 -42 53 -67 91 -73 l38 -7 0 -52 c0 -38 5
-56 18 -68 24 -22 38 -21 62 3 17 17 19 28 14 78 l-6 59 45 37 c66 54 126 186
85 186 -7 0 -36 -23 -65 -52 l-53 -52 1 49 c1 105 17 267 28 278 16 16 13 35
-9 57 -24 24 -43 25 -63 5z"/>
<path d="M4466 1338 c-14 -19 -16 -64 -16 -294 0 -250 1 -272 18 -287 23 -21
41 -21 70 -1 25 17 30 54 8 54 -12 0 -15 40 -18 243 -2 133 1 248 6 255 10 14
-19 52 -40 52 -7 0 -20 -10 -28 -22z"/>
<path d="M4655 1326 c-12 -18 -17 -63 -22 -178 l-6 -155 38 -42 c27 -29 51
-45 83 -53 l44 -11 -6 -64 c-7 -70 2 -97 34 -106 39 -10 56 21 64 118 6 85 8
90 47 132 60 65 81 119 77 200 -2 52 -7 68 -19 71 -11 2 -24 -19 -47 -75 l-32
-78 4 95 c2 52 5 106 7 120 3 21 -1 26 -23 28 -45 5 -59 -30 -77 -196 -15
-141 -17 -147 -39 -150 -15 -2 -34 5 -49 20 -25 23 -25 23 -17 138 4 63 7 132
7 154 -2 57 -40 75 -68 32z"/>
<path d="M12627 1343 c-4 -3 -7 -20 -7 -37 0 -22 16 -53 53 -102 164 -224 159
-216 143 -233 -26 -29 -106 -204 -106 -232 0 -40 10 -59 31 -59 25 0 59 48
108 154 23 49 50 96 61 103 26 18 25 37 -2 56 -13 8 -31 37 -41 65 -17 50
-113 188 -157 227 -12 11 -26 30 -31 43 -8 21 -38 30 -52 15z"/>
<path d="M7622 1308 c-28 -28 -9 -55 144 -211 l155 -158 -29 -37 c-16 -20 -50
-74 -76 -118 -41 -71 -47 -88 -44 -129 2 -27 8 -50 14 -52 22 -7 84 72 115
147 17 41 42 95 55 119 13 24 24 51 24 60 0 29 -89 174 -138 225 -69 71 -181
166 -195 166 -7 0 -18 -5 -25 -12z"/>
<path d="M11719 1293 c-16 -39 -24 -510 -10 -546 12 -31 37 -45 58 -31 12 7
14 59 14 296 1 158 -2 292 -6 297 -12 21 -45 11 -56 -16z"/>
<path d="M7271 1279 c-12 -13 -22 -28 -22 -33 -1 -6 -4 -74 -8 -151 l-6 -140
-27 -3 c-33 -4 -32 -13 -32 173 -1 128 -3 140 -20 143 -28 6 -38 -11 -52 -90
-18 -102 -18 -222 1 -258 17 -33 61 -60 98 -60 22 0 25 -5 30 -58 5 -60 29
-122 48 -122 15 0 28 43 39 137 10 80 14 90 42 112 28 22 88 130 88 158 0 32
-27 23 -67 -22 -23 -27 -45 -47 -47 -44 -3 3 -7 65 -9 139 -3 114 -6 135 -19
138 -9 2 -26 -7 -37 -19z"/>
<path d="M6907 1283 c-3 -5 -8 -137 -12 -294 -6 -259 -5 -287 10 -302 36 -36
73 -13 99 61 13 37 13 44 1 48 -8 3 -19 3 -26 -1 -8 -6 -10 3 -6 31 11 74 19
333 12 384 -4 28 -14 57 -22 65 -15 16 -49 20 -56 8z"/>
<path d="M10060 1261 c-5 -11 -10 -28 -10 -38 0 -26 50 -109 126 -210 37 -48
68 -92 70 -98 2 -5 -28 -50 -68 -98 -62 -77 -72 -94 -76 -137 -4 -41 -2 -50
11 -50 39 0 75 32 158 138 101 129 111 160 59 187 -16 9 -30 21 -30 27 0 7
-41 66 -91 131 -49 65 -94 129 -99 143 -11 29 -35 31 -50 5z"/>
<path d="M9250 1245 c-13 -16 -33 -198 -46 -420 -6 -97 -5 -113 10 -128 41
-41 80 -10 82 67 16 411 17 466 4 481 -16 19 -34 19 -50 0z"/>
<path d="M9610 1232 c-25 -21 -44 -90 -64 -246 -15 -113 -18 -122 -35 -112
-20 13 -23 79 -11 203 11 109 10 127 -3 140 -22 22 -54 7 -66 -30 -35 -107
-40 -281 -12 -344 19 -40 61 -73 96 -73 11 0 15 -11 15 -43 0 -75 53 -114 93
-69 14 15 16 31 11 78 l-6 59 50 42 c56 47 86 102 100 180 9 53 3 81 -17 69
-6 -4 -34 -41 -62 -83 -28 -41 -52 -73 -54 -71 -5 5 22 262 29 280 5 11 1 20
-13 27 -25 14 -25 14 -51 -7z"/>
<path d="M2196 1050 c-93 -29 -126 -72 -126 -163 0 -65 26 -96 88 -104 139
-19 258 139 177 235 -38 46 -70 53 -139 32z m78 -76 c23 -23 20 -42 -13 -75
-22 -22 -39 -29 -68 -29 l-38 0 0 42 c0 41 2 43 45 60 56 21 55 21 74 2z"/>
<path d="M12325 947 c-19 -47 -35 -152 -28 -187 8 -43 43 -71 92 -73 l41 -1 0
-61 c0 -34 5 -66 12 -73 18 -18 56 -14 68 7 17 32 13 233 -6 259 -22 33 -51
28 -75 -13 -12 -19 -28 -35 -36 -35 -13 0 -14 9 -9 52 4 29 14 57 23 63 13 10
14 19 7 51 -9 34 -13 39 -42 42 -29 3 -34 -1 -47 -31z"/>
<path d="M5112 923 c-13 -26 -22 -294 -11 -315 13 -25 46 -23 61 5 18 32 24
292 8 312 -17 20 -47 19 -58 -2z"/>
<path d="M7500 880 c-22 -22 -26 -60 -8 -78 12 -12 0 -32 -73 -129 -37 -49
-43 -98 -14 -119 27 -20 53 -17 113 11 60 28 69 57 19 63 -33 4 -33 5 -3 45
36 47 66 117 66 155 0 36 -29 72 -60 72 -11 0 -29 -9 -40 -20z"/>
<path d="M9878 889 c-40 -23 -10 -87 33 -74 35 11 18 -16 -29 -48 -66 -45 -57
-88 22 -100 21 -4 49 -16 62 -28 31 -29 18 -52 -41 -75 l-46 -17 -29 28 c-36
34 -50 26 -50 -30 0 -53 25 -75 85 -75 91 1 175 69 175 142 0 34 -7 47 -41 81
-40 40 -41 42 -25 68 22 38 21 94 -4 119 -22 22 -82 27 -112 9z"/>
</g>
</svg>
